<?xml version="1.0" encoding="utf-8"?>
<!-- Generator: Adobe Illustrator 19.0.0, SVG Export Plug-In . SVG Version: 6.00 Build 0)  -->
<svg version="1.1" id="Layer_1" xmlns="http://www.w3.org/2000/svg" xmlns:xlink="http://www.w3.org/1999/xlink" x="0px" y="0px"
	 viewBox="-19 -24.2 920 609.2" style="enable-background:new -19 -24.2 920 609.2;" xml:space="preserve">
<style type="text/css">
	.st0{display:none;fill:#1E110B;}
	.st1{fill:#FFF3D3;}
	.st2{fill:#6A371C;}
	.st3{fill:#EFEFEF;}
	.st4{fill:#B7B7B7;}
	.st5{fill:#FFFFFF;}
	.st6{fill:none;}
	.st7{enable-background:new    ;}
	.st8{fill:#1E110B;}
	.st9{fill:#A74C2A;}
</style>
<g id="profileForm">
	<rect id="XMLID_1220_" x="-19" y="-24.2" class="st0" width="920" height="609.2"/>
	<g id="XMLID_1248_">
		<polygon id="XMLID_1279_" class="st1" points="787.4,437.9 138.6,437.9 137.8,187.7 786.5,187.7 		"/>
		<g id="XMLID_1266_">
			<polygon id="XMLID_1278_" class="st2" points="269.4,221.6 305.8,249.2 269.4,279.8 			"/>
			<rect id="XMLID_1277_" x="106.7" y="161.6" class="st2" width="173.4" height="173.4"/>
			<rect id="XMLID_1276_" x="124.7" y="179.6" class="st3" width="137.3" height="137.3"/>
			<g id="XMLID_1267_">
				<g id="XMLID_1269_">
					<path id="XMLID_1270_" class="st4" d="M209.7,278.4c-3.4-0.5-3.4-9.8-3.4-9.8s9.9-9.8,12-22.9c5.8,0,9.4-14,3.6-18.9
						c0.2-5.2,7.4-40.7-29-40.7c-36.5,0-29.3,35.5-29,40.7c-5.8,4.9-2.2,18.9,3.6,18.9c2.2,13.2,12,22.9,12,22.9s-0.1,9.2-3.4,9.8
						c-10.8,1.7-51.3,19.6-51.3,39.1H261C261,297.9,220.5,280.1,209.7,278.4L209.7,278.4z"/>
				</g>
			</g>
		</g>
		<rect id="XMLID_1265_" x="317.8" y="207.2" class="st5" width="442.1" height="170.2"/>
		<rect id="XMLID_1264_" x="333.6" y="226.5" class="st6" width="413.4" height="131.6"/>
		<g class="st7">
			<path class="st8" d="M336,230.1l2.3-3.6h1l-1.3,3.7l-0.4,1.8h-2L336,230.1z M339.1,230.1l2.3-3.6h1l-1.3,3.7l-0.4,1.8h-2
				L339.1,230.1z"/>
			<path class="st8" d="M341.8,242.3l3-14.8h4.6c1.3,0,2.4,0.3,3.1,1c0.7,0.7,1,1.7,0.7,3c-0.1,0.7-0.5,1.3-0.9,1.8
				s-1.1,0.9-1.8,1.1c0.8,0.2,1.4,0.6,1.7,1.3c0.3,0.7,0.4,1.5,0.2,2.4c-0.3,1.4-0.9,2.5-1.8,3.2c-0.9,0.7-2.1,1-3.6,1H341.8z
				 M345.1,235.4l-1.1,5.4h3.2c0.8,0,1.4-0.2,2-0.7c0.6-0.5,0.9-1.1,1.1-1.9c0.2-0.9,0.1-1.6-0.1-2.1s-0.8-0.7-1.6-0.7H345.1z
				 M345.4,233.8h3c0.6,0,1.2-0.2,1.7-0.6s0.9-1,1-1.7c0.2-0.8,0.1-1.5-0.3-1.8c-0.4-0.4-1-0.6-1.9-0.6h-2.6L345.4,233.8z"/>
			<path class="st8" d="M356.1,242.3h-2l2.2-11h2L356.1,242.3z M358.8,228.5h-2l0.4-2h2L358.8,228.5z"/>
			<path class="st8" d="M359.6,236.7c0.3-1.7,0.9-3.1,1.9-4.1c1-1,2.2-1.5,3.6-1.5c1.4,0,2.4,0.5,3.1,1.6s0.9,2.4,0.6,4l0,0.2
				c-0.3,1.7-0.9,3.1-1.9,4.1c-1,1-2.2,1.5-3.6,1.5c-1.4,0-2.4-0.5-3.1-1.6c-0.7-1.1-0.9-2.4-0.6-4L359.6,236.7z M361.6,236.9
				c-0.2,1.2-0.1,2.2,0.2,2.9c0.3,0.7,0.9,1.1,1.8,1.1c0.8,0,1.5-0.4,2.1-1.2c0.6-0.8,1-1.7,1.1-2.9l0-0.2c0.2-1.2,0.1-2.2-0.2-2.9
				c-0.3-0.7-0.9-1.1-1.8-1.1c-0.8,0-1.5,0.4-2.1,1.2c-0.6,0.8-1,1.7-1.1,2.9L361.6,236.9z"/>
			<path class="st8" d="M381.3,242.3c0-0.3,0-0.6,0-0.8s0-0.4,0.1-0.7c-0.5,0.5-1,0.9-1.6,1.2c-0.6,0.3-1.2,0.5-1.8,0.5
				c-1,0-1.7-0.3-2.2-0.9c-0.5-0.6-0.6-1.4-0.4-2.4c0.2-1.1,0.8-2,1.7-2.5c0.9-0.6,2-0.8,3.4-0.8h1.9l0.2-1.1
				c0.1-0.7,0.1-1.2-0.2-1.6c-0.3-0.4-0.8-0.5-1.4-0.5c-0.6,0-1.1,0.2-1.5,0.5c-0.5,0.3-0.7,0.7-0.8,1.2h-1.9l0-0.1
				c0.1-0.8,0.6-1.6,1.5-2.2c0.9-0.6,1.9-1,3.2-1c1.1,0,2,0.3,2.6,1c0.6,0.6,0.8,1.6,0.6,2.7l-1.1,5.3c-0.1,0.4-0.1,0.8-0.2,1.1
				c0,0.4,0,0.7,0,1.1H381.3z M378.7,240.9c0.5,0,1.1-0.2,1.7-0.5c0.6-0.3,1-0.7,1.3-1.1l0.4-2h-1.9c-0.7,0-1.3,0.2-1.8,0.6
				c-0.5,0.4-0.9,0.9-1,1.4c-0.1,0.5-0.1,0.9,0.2,1.2C377.8,240.7,378.2,240.9,378.7,240.9z"/>
			<path class="st8" d="M395.6,237.4c-0.3,1.7-0.9,3-1.7,3.8c-0.8,0.9-1.8,1.3-3.1,1.3c-0.6,0-1.1-0.2-1.6-0.5
				c-0.5-0.3-0.9-0.8-1.1-1.3l-0.5,1.6h-1.7l3.2-15.9h2l-1.2,5.9c0.4-0.4,0.8-0.7,1.3-0.9c0.5-0.2,1-0.3,1.6-0.3
				c1.2,0,2.1,0.6,2.6,1.8c0.6,1.2,0.7,2.6,0.4,4.4L395.6,237.4z M393.7,237.2c0.3-1.3,0.2-2.4-0.1-3.2c-0.3-0.8-0.9-1.2-1.8-1.2
				c-0.5,0-0.9,0.2-1.4,0.5c-0.4,0.3-0.8,0.7-1.1,1.3l-1,4.9c0.2,0.5,0.4,0.9,0.8,1.2c0.4,0.3,0.8,0.4,1.4,0.4c0.8,0,1.5-0.3,2-0.9
				s0.9-1.5,1.1-2.5L393.7,237.2z"/>
			<path class="st8" d="M397.6,236.7c0.3-1.7,0.9-3.1,1.9-4.1c1-1,2.2-1.5,3.6-1.5c1.4,0,2.4,0.5,3.1,1.6s0.9,2.4,0.6,4l0,0.2
				c-0.3,1.7-0.9,3.1-1.9,4.1c-1,1-2.2,1.5-3.6,1.5c-1.4,0-2.4-0.5-3.1-1.6c-0.7-1.1-0.9-2.4-0.6-4L397.6,236.7z M399.6,236.9
				c-0.2,1.2-0.1,2.2,0.2,2.9c0.3,0.7,0.9,1.1,1.8,1.1c0.8,0,1.5-0.4,2.1-1.2c0.6-0.8,1-1.7,1.1-2.9l0-0.2c0.2-1.2,0.1-2.2-0.2-2.9
				c-0.3-0.7-0.9-1.1-1.8-1.1c-0.8,0-1.5,0.4-2.1,1.2c-0.6,0.8-1,1.7-1.1,2.9L399.6,236.9z"/>
			<path class="st8" d="M414.7,242.3l0.2-1.5c-0.4,0.6-0.9,1-1.5,1.3c-0.6,0.3-1.2,0.4-1.8,0.4c-1.1,0-1.8-0.4-2.3-1.2
				c-0.5-0.8-0.6-2-0.3-3.6l1.3-6.5h2l-1.3,6.5c-0.3,1.2-0.3,2.1,0,2.5c0.2,0.4,0.7,0.6,1.4,0.6c0.6,0,1.2-0.1,1.6-0.4
				c0.5-0.3,0.9-0.7,1.2-1.2l1.6-7.9h2l-2.2,11H414.7z"/>
			<path class="st8" d="M424.6,228.7l-0.5,2.7h1.9l-0.3,1.5h-1.9l-1.3,6.7c-0.1,0.5-0.1,0.9,0.1,1.1c0.1,0.2,0.4,0.3,0.7,0.3
				c0.2,0,0.3,0,0.6,0s0.4-0.1,0.5-0.1l0,1.4c-0.2,0.1-0.5,0.2-0.8,0.3c-0.4,0.1-0.7,0.1-1.1,0.1c-0.7,0-1.3-0.3-1.6-0.8
				c-0.4-0.5-0.5-1.3-0.3-2.3l1.3-6.7h-1.6l0.3-1.5h1.6l0.5-2.7H424.6z"/>
			<path class="st8" d="M437.8,242.3l0.2-1.5c-0.4,0.6-0.9,1-1.5,1.3c-0.6,0.3-1.2,0.4-1.8,0.4c-1.1,0-1.8-0.4-2.3-1.2
				c-0.5-0.8-0.6-2-0.3-3.6l1.3-6.5h2l-1.3,6.5c-0.3,1.2-0.3,2.1,0,2.5c0.2,0.4,0.7,0.6,1.4,0.6c0.6,0,1.2-0.1,1.6-0.4
				c0.5-0.3,0.9-0.7,1.2-1.2l1.6-7.9h2l-2.2,11H437.8z"/>
			<path class="st8" d="M448.8,239.4c0.1-0.5,0-0.8-0.3-1.1c-0.3-0.3-0.8-0.5-1.6-0.7c-1.2-0.3-2.1-0.7-2.6-1.2
				c-0.6-0.5-0.8-1.2-0.6-2c0.1-0.9,0.6-1.7,1.4-2.3s1.8-0.9,2.9-0.9s2,0.3,2.7,1c0.6,0.7,0.8,1.5,0.7,2.4l0,0.1h-1.9
				c0.1-0.5,0-0.9-0.3-1.3c-0.3-0.4-0.7-0.6-1.3-0.6c-0.6,0-1.1,0.2-1.5,0.5c-0.4,0.3-0.6,0.7-0.7,1.1c-0.1,0.5,0,0.8,0.2,1
				c0.2,0.2,0.8,0.5,1.6,0.7c1.3,0.3,2.2,0.7,2.7,1.2s0.8,1.2,0.6,2.1c-0.2,1-0.7,1.8-1.5,2.4c-0.8,0.6-1.8,0.9-3,0.9
				c-1.3,0-2.2-0.4-2.9-1.1c-0.7-0.7-0.9-1.5-0.7-2.5l0-0.1h1.9c-0.1,0.7,0.1,1.2,0.5,1.6c0.4,0.3,0.9,0.5,1.5,0.5
				c0.6,0,1.1-0.1,1.6-0.4C448.5,240.2,448.8,239.9,448.8,239.4z"/>
			<path class="st8" d="M457,242.5c-1.4,0-2.4-0.5-3.1-1.5c-0.7-1-0.9-2.3-0.7-4l0.1-0.4c0.3-1.6,0.9-2.9,1.9-4c1-1,2.1-1.5,3.3-1.5
				c1.3,0,2.3,0.5,2.9,1.4c0.6,0.9,0.8,2.1,0.5,3.6l-0.2,1.3h-6.6c-0.1,1.1,0,2,0.3,2.7c0.4,0.7,1,1,1.8,1c0.6,0,1.2-0.1,1.7-0.3
				c0.5-0.2,1-0.5,1.4-0.8l0.6,1.3c-0.4,0.4-0.9,0.7-1.6,1C458.6,242.4,457.8,242.5,457,242.5z M458.3,232.7c-0.6,0-1.1,0.3-1.7,0.9
				s-0.9,1.3-1.1,2.1l0,0.1h4.5l0-0.3c0.1-0.8,0.1-1.5-0.2-2C459.5,232.9,459,232.7,458.3,232.7z"/>
			<path class="st8" d="M469.8,233.1l-1.1-0.1c-0.4,0-0.9,0.1-1.2,0.4s-0.7,0.6-1,1.1l-1.6,7.8h-2l2.2-11h1.8l-0.1,1.5
				c0.4-0.5,0.8-0.9,1.3-1.2c0.5-0.3,1-0.4,1.5-0.4c0.1,0,0.3,0,0.4,0c0.2,0,0.3,0,0.4,0.1L469.8,233.1z"/>
			<path class="st8" d="M478.7,232.6c0.5-0.5,1-0.9,1.5-1.1c0.6-0.3,1.1-0.4,1.8-0.4c1,0,1.8,0.4,2.3,1.1c0.5,0.7,0.6,1.8,0.3,3.2
				l-1.4,6.9h-2l1.4-6.9c0.2-1,0.2-1.6-0.1-2.1c-0.3-0.4-0.8-0.6-1.5-0.6c-0.5,0-0.9,0.1-1.4,0.4c-0.5,0.3-0.9,0.6-1.3,1.1l-1.6,8.1
				h-2l3.2-15.9h2L478.7,232.6z"/>
			<path class="st8" d="M488,242.3h-2l2.2-11h2L488,242.3z M490.8,228.5h-2l0.4-2h2L490.8,228.5z"/>
			<path class="st8" d="M494.8,232.6c0.4-0.5,0.9-0.9,1.5-1.1c0.6-0.3,1.2-0.4,1.9-0.4c0.6,0,1.1,0.2,1.6,0.5s0.7,0.8,0.8,1.5
				c0.4-0.6,0.9-1.1,1.5-1.5c0.6-0.3,1.3-0.5,2-0.5c1,0,1.7,0.4,2.2,1.2s0.6,1.9,0.3,3.5l-1.3,6.6h-2l1.3-6.6c0.2-1.2,0.2-2,0-2.4
				s-0.7-0.6-1.4-0.6c-0.6,0-1.1,0.2-1.6,0.7s-0.9,1.1-1.1,1.8c0,0,0,0,0,0s0,0,0,0l-1.4,7h-2l1.3-6.6c0.2-1.1,0.2-1.9,0-2.3
				s-0.7-0.7-1.4-0.7c-0.5,0-1,0.1-1.4,0.4c-0.4,0.3-0.8,0.6-1,1.1l-1.6,8.1h-2l2.2-11h1.7L494.8,232.6z"/>
			<path class="st8" d="M514.5,239.4c0.1-0.5,0-0.8-0.3-1.1c-0.3-0.3-0.8-0.5-1.6-0.7c-1.2-0.3-2.1-0.7-2.6-1.2
				c-0.6-0.5-0.8-1.2-0.6-2c0.1-0.9,0.6-1.7,1.4-2.3s1.8-0.9,2.9-0.9s2,0.3,2.7,1c0.6,0.7,0.8,1.5,0.7,2.4l0,0.1h-1.9
				c0.1-0.5,0-0.9-0.3-1.3c-0.3-0.4-0.7-0.6-1.3-0.6c-0.6,0-1.1,0.2-1.5,0.5c-0.4,0.3-0.6,0.7-0.7,1.1c-0.1,0.5,0,0.8,0.2,1
				c0.2,0.2,0.8,0.5,1.6,0.7c1.3,0.3,2.2,0.7,2.7,1.2s0.8,1.2,0.6,2.1c-0.2,1-0.7,1.8-1.5,2.4c-0.8,0.6-1.8,0.9-3,0.9
				c-1.3,0-2.2-0.4-2.9-1.1c-0.7-0.7-0.9-1.5-0.7-2.5l0-0.1h1.9c-0.1,0.7,0.1,1.2,0.5,1.6c0.4,0.3,0.9,0.5,1.5,0.5
				c0.6,0,1.1-0.1,1.6-0.4C514.2,240.2,514.4,239.9,514.5,239.4z"/>
			<path class="st8" d="M522.6,242.5c-1.4,0-2.4-0.5-3.1-1.5c-0.7-1-0.9-2.3-0.7-4l0.1-0.4c0.3-1.6,0.9-2.9,1.9-4
				c1-1,2.1-1.5,3.3-1.5c1.3,0,2.3,0.5,2.9,1.4c0.6,0.9,0.8,2.1,0.5,3.6l-0.2,1.3h-6.6c-0.1,1.1,0,2,0.3,2.7c0.4,0.7,1,1,1.8,1
				c0.6,0,1.2-0.1,1.7-0.3c0.5-0.2,1-0.5,1.4-0.8l0.6,1.3c-0.4,0.4-0.9,0.7-1.6,1C524.3,242.4,523.5,242.5,522.6,242.5z
				 M523.9,232.7c-0.6,0-1.1,0.3-1.7,0.9s-0.9,1.3-1.1,2.1l0,0.1h4.5l0-0.3c0.1-0.8,0.1-1.5-0.2-2
				C525.2,232.9,524.7,232.7,523.9,232.7z"/>
			<path class="st8" d="M530.7,242.3h-2l3.2-15.9h2L530.7,242.3z"/>
			<path class="st8" d="M534.5,242.3l1.9-9.5h-1.6l0.3-1.5h1.6l0.3-1.4c0.2-1.2,0.7-2.2,1.4-2.8c0.7-0.6,1.6-0.9,2.6-0.9
				c0.2,0,0.4,0,0.6,0.1c0.2,0,0.5,0.1,0.7,0.2l-0.5,1.5c-0.1,0-0.2-0.1-0.4-0.1c-0.2,0-0.3,0-0.5,0c-0.5,0-0.9,0.2-1.3,0.5
				c-0.3,0.4-0.6,0.9-0.7,1.5l-0.3,1.4h2.1l-0.3,1.5h-2.1l-1.9,9.5H534.5z"/>
			<path class="st8" d="M545.2,228.4l-2.3,3.5h-1l1.3-3.5l0.4-2h2L545.2,228.4z M548.5,228.4l-2.3,3.5h-1l1.3-3.5l0.4-2h2
				L548.5,228.4z"/>
			<path class="st8" d="M550,242.3H548l0.4-2.1h1.9L550,242.3z"/>
		</g>
		<g class="st7">
			<path class="st8" d="M336,230.1l2.3-3.6h1l-1.3,3.7l-0.4,1.8h-2L336,230.1z M339.1,230.1l2.3-3.6h1l-1.3,3.7l-0.4,1.8h-2
				L339.1,230.1z"/>
			<path class="st8" d="M341.8,242.3l3-14.8h4.6c1.3,0,2.4,0.3,3.1,1c0.7,0.7,1,1.7,0.7,3c-0.1,0.7-0.5,1.3-0.9,1.8
				s-1.1,0.9-1.8,1.1c0.8,0.2,1.4,0.6,1.7,1.3c0.3,0.7,0.4,1.5,0.2,2.4c-0.3,1.4-0.9,2.5-1.8,3.2c-0.9,0.7-2.1,1-3.6,1H341.8z
				 M345.1,235.4l-1.1,5.4h3.2c0.8,0,1.4-0.2,2-0.7c0.6-0.5,0.9-1.1,1.1-1.9c0.2-0.9,0.1-1.6-0.1-2.1s-0.8-0.7-1.6-0.7H345.1z
				 M345.4,233.8h3c0.6,0,1.2-0.2,1.7-0.6s0.9-1,1-1.7c0.2-0.8,0.1-1.5-0.3-1.8c-0.4-0.4-1-0.6-1.9-0.6h-2.6L345.4,233.8z"/>
			<path class="st8" d="M356.1,242.3h-2l2.2-11h2L356.1,242.3z M358.8,228.5h-2l0.4-2h2L358.8,228.5z"/>
			<path class="st8" d="M359.6,236.7c0.3-1.7,0.9-3.1,1.9-4.1c1-1,2.2-1.5,3.6-1.5c1.4,0,2.4,0.5,3.1,1.6s0.9,2.4,0.6,4l0,0.2
				c-0.3,1.7-0.9,3.1-1.9,4.1c-1,1-2.2,1.5-3.6,1.5c-1.4,0-2.4-0.5-3.1-1.6c-0.7-1.1-0.9-2.4-0.6-4L359.6,236.7z M361.6,236.9
				c-0.2,1.2-0.1,2.2,0.2,2.9c0.3,0.7,0.9,1.1,1.8,1.1c0.8,0,1.5-0.4,2.1-1.2c0.6-0.8,1-1.7,1.1-2.9l0-0.2c0.2-1.2,0.1-2.2-0.2-2.9
				c-0.3-0.7-0.9-1.1-1.8-1.1c-0.8,0-1.5,0.4-2.1,1.2c-0.6,0.8-1,1.7-1.1,2.9L361.6,236.9z"/>
			<path class="st8" d="M381.3,242.3c0-0.3,0-0.6,0-0.8s0-0.4,0.1-0.7c-0.5,0.5-1,0.9-1.6,1.2c-0.6,0.3-1.2,0.5-1.8,0.5
				c-1,0-1.7-0.3-2.2-0.9c-0.5-0.6-0.6-1.4-0.4-2.4c0.2-1.1,0.8-2,1.7-2.5c0.9-0.6,2-0.8,3.4-0.8h1.9l0.2-1.1
				c0.1-0.7,0.1-1.2-0.2-1.6c-0.3-0.4-0.8-0.5-1.4-0.5c-0.6,0-1.1,0.2-1.5,0.5c-0.5,0.3-0.7,0.7-0.8,1.2h-1.9l0-0.1
				c0.1-0.8,0.6-1.6,1.5-2.2c0.9-0.6,1.9-1,3.2-1c1.1,0,2,0.3,2.6,1c0.6,0.6,0.8,1.6,0.6,2.7l-1.1,5.3c-0.1,0.4-0.1,0.8-0.2,1.1
				c0,0.4,0,0.7,0,1.1H381.3z M378.7,240.9c0.5,0,1.1-0.2,1.7-0.5c0.6-0.3,1-0.7,1.3-1.1l0.4-2h-1.9c-0.7,0-1.3,0.2-1.8,0.6
				c-0.5,0.4-0.9,0.9-1,1.4c-0.1,0.5-0.1,0.9,0.2,1.2C377.8,240.7,378.2,240.9,378.7,240.9z"/>
			<path class="st8" d="M395.6,237.4c-0.3,1.7-0.9,3-1.7,3.8c-0.8,0.9-1.8,1.3-3.1,1.3c-0.6,0-1.1-0.2-1.6-0.5
				c-0.5-0.3-0.9-0.8-1.1-1.3l-0.5,1.6h-1.7l3.2-15.9h2l-1.2,5.9c0.4-0.4,0.8-0.7,1.3-0.9c0.5-0.2,1-0.3,1.6-0.3
				c1.2,0,2.1,0.6,2.6,1.8c0.6,1.2,0.7,2.6,0.4,4.4L395.6,237.4z M393.7,237.2c0.3-1.3,0.2-2.4-0.1-3.2c-0.3-0.8-0.9-1.2-1.8-1.2
				c-0.5,0-0.9,0.2-1.4,0.5c-0.4,0.3-0.8,0.7-1.1,1.3l-1,4.9c0.2,0.5,0.4,0.9,0.8,1.2c0.4,0.3,0.8,0.4,1.4,0.4c0.8,0,1.5-0.3,2-0.9
				s0.9-1.5,1.1-2.5L393.7,237.2z"/>
			<path class="st8" d="M397.6,236.7c0.3-1.7,0.9-3.1,1.9-4.1c1-1,2.2-1.5,3.6-1.5c1.4,0,2.4,0.5,3.1,1.6s0.9,2.4,0.6,4l0,0.2
				c-0.3,1.7-0.9,3.1-1.9,4.1c-1,1-2.2,1.5-3.6,1.5c-1.4,0-2.4-0.5-3.1-1.6c-0.7-1.1-0.9-2.4-0.6-4L397.6,236.7z M399.6,236.9
				c-0.2,1.2-0.1,2.2,0.2,2.9c0.3,0.7,0.9,1.1,1.8,1.1c0.8,0,1.5-0.4,2.1-1.2c0.6-0.8,1-1.7,1.1-2.9l0-0.2c0.2-1.2,0.1-2.2-0.2-2.9
				c-0.3-0.7-0.9-1.1-1.8-1.1c-0.8,0-1.5,0.4-2.1,1.2c-0.6,0.8-1,1.7-1.1,2.9L399.6,236.9z"/>
			<path class="st8" d="M414.7,242.3l0.2-1.5c-0.4,0.6-0.9,1-1.5,1.3c-0.6,0.3-1.2,0.4-1.8,0.4c-1.1,0-1.8-0.4-2.3-1.2
				c-0.5-0.8-0.6-2-0.3-3.6l1.3-6.5h2l-1.3,6.5c-0.3,1.2-0.3,2.1,0,2.5c0.2,0.4,0.7,0.6,1.4,0.6c0.6,0,1.2-0.1,1.6-0.4
				c0.5-0.3,0.9-0.7,1.2-1.2l1.6-7.9h2l-2.2,11H414.7z"/>
			<path class="st8" d="M424.6,228.7l-0.5,2.7h1.9l-0.3,1.5h-1.9l-1.3,6.7c-0.1,0.5-0.1,0.9,0.1,1.1c0.1,0.2,0.4,0.3,0.7,0.3
				c0.2,0,0.3,0,0.6,0s0.4-0.1,0.5-0.1l0,1.4c-0.2,0.1-0.5,0.2-0.8,0.3c-0.4,0.1-0.7,0.1-1.1,0.1c-0.7,0-1.3-0.3-1.6-0.8
				c-0.4-0.5-0.5-1.3-0.3-2.3l1.3-6.7h-1.6l0.3-1.5h1.6l0.5-2.7H424.6z"/>
			<path class="st8" d="M437.8,242.3l0.2-1.5c-0.4,0.6-0.9,1-1.5,1.3c-0.6,0.3-1.2,0.4-1.8,0.4c-1.1,0-1.8-0.4-2.3-1.2
				c-0.5-0.8-0.6-2-0.3-3.6l1.3-6.5h2l-1.3,6.5c-0.3,1.2-0.3,2.1,0,2.5c0.2,0.4,0.7,0.6,1.4,0.6c0.6,0,1.2-0.1,1.6-0.4
				c0.5-0.3,0.9-0.7,1.2-1.2l1.6-7.9h2l-2.2,11H437.8z"/>
			<path class="st8" d="M448.8,239.4c0.1-0.5,0-0.8-0.3-1.1c-0.3-0.3-0.8-0.5-1.6-0.7c-1.2-0.3-2.1-0.7-2.6-1.2
				c-0.6-0.5-0.8-1.2-0.6-2c0.1-0.9,0.6-1.7,1.4-2.3s1.8-0.9,2.9-0.9s2,0.3,2.7,1c0.6,0.7,0.8,1.5,0.7,2.4l0,0.1h-1.9
				c0.1-0.5,0-0.9-0.3-1.3c-0.3-0.4-0.7-0.6-1.3-0.6c-0.6,0-1.1,0.2-1.5,0.5c-0.4,0.3-0.6,0.7-0.7,1.1c-0.1,0.5,0,0.8,0.2,1
				c0.2,0.2,0.8,0.5,1.6,0.7c1.3,0.3,2.2,0.7,2.7,1.2s0.8,1.2,0.6,2.1c-0.2,1-0.7,1.8-1.5,2.4c-0.8,0.6-1.8,0.9-3,0.9
				c-1.3,0-2.2-0.4-2.9-1.1c-0.7-0.7-0.9-1.5-0.7-2.5l0-0.1h1.9c-0.1,0.7,0.1,1.2,0.5,1.6c0.4,0.3,0.9,0.5,1.5,0.5
				c0.6,0,1.1-0.1,1.6-0.4C448.5,240.2,448.8,239.9,448.8,239.4z"/>
			<path class="st8" d="M457,242.5c-1.4,0-2.4-0.5-3.1-1.5c-0.7-1-0.9-2.3-0.7-4l0.1-0.4c0.3-1.6,0.9-2.9,1.9-4c1-1,2.1-1.5,3.3-1.5
				c1.3,0,2.3,0.5,2.9,1.4c0.6,0.9,0.8,2.1,0.5,3.6l-0.2,1.3h-6.6c-0.1,1.1,0,2,0.3,2.7c0.4,0.7,1,1,1.8,1c0.6,0,1.2-0.1,1.7-0.3
				c0.5-0.2,1-0.5,1.4-0.8l0.6,1.3c-0.4,0.4-0.9,0.7-1.6,1C458.6,242.4,457.8,242.5,457,242.5z M458.3,232.7c-0.6,0-1.1,0.3-1.7,0.9
				s-0.9,1.3-1.1,2.1l0,0.1h4.5l0-0.3c0.1-0.8,0.1-1.5-0.2-2C459.5,232.9,459,232.7,458.3,232.7z"/>
			<path class="st8" d="M469.8,233.1l-1.1-0.1c-0.4,0-0.9,0.1-1.2,0.4s-0.7,0.6-1,1.1l-1.6,7.8h-2l2.2-11h1.8l-0.1,1.5
				c0.4-0.5,0.8-0.9,1.3-1.2c0.5-0.3,1-0.4,1.5-0.4c0.1,0,0.3,0,0.4,0c0.2,0,0.3,0,0.4,0.1L469.8,233.1z"/>
			<path class="st8" d="M478.7,232.6c0.5-0.5,1-0.9,1.5-1.1c0.6-0.3,1.1-0.4,1.8-0.4c1,0,1.8,0.4,2.3,1.1c0.5,0.7,0.6,1.8,0.3,3.2
				l-1.4,6.9h-2l1.4-6.9c0.2-1,0.2-1.6-0.1-2.1c-0.3-0.4-0.8-0.6-1.5-0.6c-0.5,0-0.9,0.1-1.4,0.4c-0.5,0.3-0.9,0.6-1.3,1.1l-1.6,8.1
				h-2l3.2-15.9h2L478.7,232.6z"/>
			<path class="st8" d="M488,242.3h-2l2.2-11h2L488,242.3z M490.8,228.5h-2l0.4-2h2L490.8,228.5z"/>
			<path class="st8" d="M494.8,232.6c0.4-0.5,0.9-0.9,1.5-1.1c0.6-0.3,1.2-0.4,1.9-0.4c0.6,0,1.1,0.2,1.6,0.5s0.7,0.8,0.8,1.5
				c0.4-0.6,0.9-1.1,1.5-1.5c0.6-0.3,1.3-0.5,2-0.5c1,0,1.7,0.4,2.2,1.2s0.6,1.9,0.3,3.5l-1.3,6.6h-2l1.3-6.6c0.2-1.2,0.2-2,0-2.4
				s-0.7-0.6-1.4-0.6c-0.6,0-1.1,0.2-1.6,0.7s-0.9,1.1-1.1,1.8c0,0,0,0,0,0s0,0,0,0l-1.4,7h-2l1.3-6.6c0.2-1.1,0.2-1.9,0-2.3
				s-0.7-0.7-1.4-0.7c-0.5,0-1,0.1-1.4,0.4c-0.4,0.3-0.8,0.6-1,1.1l-1.6,8.1h-2l2.2-11h1.7L494.8,232.6z"/>
			<path class="st8" d="M514.5,239.4c0.1-0.5,0-0.8-0.3-1.1c-0.3-0.3-0.8-0.5-1.6-0.7c-1.2-0.3-2.1-0.7-2.6-1.2
				c-0.6-0.5-0.8-1.2-0.6-2c0.1-0.9,0.6-1.7,1.4-2.3s1.8-0.9,2.9-0.9s2,0.3,2.7,1c0.6,0.7,0.8,1.5,0.7,2.4l0,0.1h-1.9
				c0.1-0.5,0-0.9-0.3-1.3c-0.3-0.4-0.7-0.6-1.3-0.6c-0.6,0-1.1,0.2-1.5,0.5c-0.4,0.3-0.6,0.7-0.7,1.1c-0.1,0.5,0,0.8,0.2,1
				c0.2,0.2,0.8,0.5,1.6,0.7c1.3,0.3,2.2,0.7,2.7,1.2s0.8,1.2,0.6,2.1c-0.2,1-0.7,1.8-1.5,2.4c-0.8,0.6-1.8,0.9-3,0.9
				c-1.3,0-2.2-0.4-2.9-1.1c-0.7-0.7-0.9-1.5-0.7-2.5l0-0.1h1.9c-0.1,0.7,0.1,1.2,0.5,1.6c0.4,0.3,0.9,0.5,1.5,0.5
				c0.6,0,1.1-0.1,1.6-0.4C514.2,240.2,514.4,239.9,514.5,239.4z"/>
			<path class="st8" d="M522.6,242.5c-1.4,0-2.4-0.5-3.1-1.5c-0.7-1-0.9-2.3-0.7-4l0.1-0.4c0.3-1.6,0.9-2.9,1.9-4
				c1-1,2.1-1.5,3.3-1.5c1.3,0,2.3,0.5,2.9,1.4c0.6,0.9,0.8,2.1,0.5,3.6l-0.2,1.3h-6.6c-0.1,1.1,0,2,0.3,2.7c0.4,0.7,1,1,1.8,1
				c0.6,0,1.2-0.1,1.7-0.3c0.5-0.2,1-0.5,1.4-0.8l0.6,1.3c-0.4,0.4-0.9,0.7-1.6,1C524.3,242.4,523.5,242.5,522.6,242.5z
				 M523.9,232.7c-0.6,0-1.1,0.3-1.7,0.9s-0.9,1.3-1.1,2.1l0,0.1h4.5l0-0.3c0.1-0.8,0.1-1.5-0.2-2
				C525.2,232.9,524.7,232.7,523.9,232.7z"/>
			<path class="st8" d="M530.7,242.3h-2l3.2-15.9h2L530.7,242.3z"/>
			<path class="st8" d="M534.5,242.3l1.9-9.5h-1.6l0.3-1.5h1.6l0.3-1.4c0.2-1.2,0.7-2.2,1.4-2.8c0.7-0.6,1.6-0.9,2.6-0.9
				c0.2,0,0.4,0,0.6,0.1c0.2,0,0.5,0.1,0.7,0.2l-0.5,1.5c-0.1,0-0.2-0.1-0.4-0.1c-0.2,0-0.3,0-0.5,0c-0.5,0-0.9,0.2-1.3,0.5
				c-0.3,0.4-0.6,0.9-0.7,1.5l-0.3,1.4h2.1l-0.3,1.5h-2.1l-1.9,9.5H534.5z"/>
			<path class="st8" d="M545.2,228.4l-2.3,3.5h-1l1.3-3.5l0.4-2h2L545.2,228.4z M548.5,228.4l-2.3,3.5h-1l1.3-3.5l0.4-2h2
				L548.5,228.4z"/>
			<path class="st8" d="M550,242.3H548l0.4-2.1h1.9L550,242.3z"/>
		</g>
		<g id="XMLID_1263_" class="st7">
			<path class="st8" d="M336,230.1l2.3-3.6h1l-1.3,3.7l-0.4,1.8h-2L336,230.1z M339.1,230.1l2.3-3.6h1l-1.3,3.7l-0.4,1.8h-2
				L339.1,230.1z"/>
			<path class="st8" d="M341.8,242.3l3-14.8h4.6c1.3,0,2.4,0.3,3.1,1c0.7,0.7,1,1.7,0.7,3c-0.1,0.7-0.5,1.3-0.9,1.8
				s-1.1,0.9-1.8,1.1c0.8,0.2,1.4,0.6,1.7,1.3c0.3,0.7,0.4,1.5,0.2,2.4c-0.3,1.4-0.9,2.5-1.8,3.2c-0.9,0.7-2.1,1-3.6,1H341.8z
				 M345.1,235.4l-1.1,5.4h3.2c0.8,0,1.4-0.2,2-0.7c0.6-0.5,0.9-1.1,1.1-1.9c0.2-0.9,0.1-1.6-0.1-2.1s-0.8-0.7-1.6-0.7H345.1z
				 M345.4,233.8h3c0.6,0,1.2-0.2,1.7-0.6s0.9-1,1-1.7c0.2-0.8,0.1-1.5-0.3-1.8c-0.4-0.4-1-0.6-1.9-0.6h-2.6L345.4,233.8z"/>
			<path class="st8" d="M356.1,242.3h-2l2.2-11h2L356.1,242.3z M358.8,228.5h-2l0.4-2h2L358.8,228.5z"/>
			<path class="st8" d="M359.6,236.7c0.3-1.7,0.9-3.1,1.9-4.1c1-1,2.2-1.5,3.6-1.5c1.4,0,2.4,0.5,3.1,1.6s0.9,2.4,0.6,4l0,0.2
				c-0.3,1.7-0.9,3.1-1.9,4.1c-1,1-2.2,1.5-3.6,1.5c-1.4,0-2.4-0.5-3.1-1.6c-0.7-1.1-0.9-2.4-0.6-4L359.6,236.7z M361.6,236.9
				c-0.2,1.2-0.1,2.2,0.2,2.9c0.3,0.7,0.9,1.1,1.8,1.1c0.8,0,1.5-0.4,2.1-1.2c0.6-0.8,1-1.7,1.1-2.9l0-0.2c0.2-1.2,0.1-2.2-0.2-2.9
				c-0.3-0.7-0.9-1.1-1.8-1.1c-0.8,0-1.5,0.4-2.1,1.2c-0.6,0.8-1,1.7-1.1,2.9L361.6,236.9z"/>
			<path class="st8" d="M381.3,242.3c0-0.3,0-0.6,0-0.8s0-0.4,0.1-0.7c-0.5,0.5-1,0.9-1.6,1.2c-0.6,0.3-1.2,0.5-1.8,0.5
				c-1,0-1.7-0.3-2.2-0.9c-0.5-0.6-0.6-1.4-0.4-2.4c0.2-1.1,0.8-2,1.7-2.5c0.9-0.6,2-0.8,3.4-0.8h1.9l0.2-1.1
				c0.1-0.7,0.1-1.2-0.2-1.6c-0.3-0.4-0.8-0.5-1.4-0.5c-0.6,0-1.1,0.2-1.5,0.5c-0.5,0.3-0.7,0.7-0.8,1.2h-1.9l0-0.1
				c0.1-0.8,0.6-1.6,1.5-2.2c0.9-0.6,1.9-1,3.2-1c1.1,0,2,0.3,2.6,1c0.6,0.6,0.8,1.6,0.6,2.7l-1.1,5.3c-0.1,0.4-0.1,0.8-0.2,1.1
				c0,0.4,0,0.7,0,1.1H381.3z M378.7,240.9c0.5,0,1.1-0.2,1.7-0.5c0.6-0.3,1-0.7,1.3-1.1l0.4-2h-1.9c-0.7,0-1.3,0.2-1.8,0.6
				c-0.5,0.4-0.9,0.9-1,1.4c-0.1,0.5-0.1,0.9,0.2,1.2C377.8,240.7,378.2,240.9,378.7,240.9z"/>
			<path class="st8" d="M395.6,237.4c-0.3,1.7-0.9,3-1.7,3.8c-0.8,0.9-1.8,1.3-3.1,1.3c-0.6,0-1.1-0.2-1.6-0.5
				c-0.5-0.3-0.9-0.8-1.1-1.3l-0.5,1.6h-1.7l3.2-15.9h2l-1.2,5.9c0.4-0.4,0.8-0.7,1.3-0.9c0.5-0.2,1-0.3,1.6-0.3
				c1.2,0,2.1,0.6,2.6,1.8c0.6,1.2,0.7,2.6,0.4,4.4L395.6,237.4z M393.7,237.2c0.3-1.3,0.2-2.4-0.1-3.2c-0.3-0.8-0.9-1.2-1.8-1.2
				c-0.5,0-0.9,0.2-1.4,0.5c-0.4,0.3-0.8,0.7-1.1,1.3l-1,4.9c0.2,0.5,0.4,0.9,0.8,1.2c0.4,0.3,0.8,0.4,1.4,0.4c0.8,0,1.5-0.3,2-0.9
				s0.9-1.5,1.1-2.5L393.7,237.2z"/>
			<path class="st8" d="M397.6,236.7c0.3-1.7,0.9-3.1,1.9-4.1c1-1,2.2-1.5,3.6-1.5c1.4,0,2.4,0.5,3.1,1.6s0.9,2.4,0.6,4l0,0.2
				c-0.3,1.7-0.9,3.1-1.9,4.1c-1,1-2.2,1.5-3.6,1.5c-1.4,0-2.4-0.5-3.1-1.6c-0.7-1.1-0.9-2.4-0.6-4L397.6,236.7z M399.6,236.9
				c-0.2,1.2-0.1,2.2,0.2,2.9c0.3,0.7,0.9,1.1,1.8,1.1c0.8,0,1.5-0.4,2.1-1.2c0.6-0.8,1-1.7,1.1-2.9l0-0.2c0.2-1.2,0.1-2.2-0.2-2.9
				c-0.3-0.7-0.9-1.1-1.8-1.1c-0.8,0-1.5,0.4-2.1,1.2c-0.6,0.8-1,1.7-1.1,2.9L399.6,236.9z"/>
			<path class="st8" d="M414.7,242.3l0.2-1.5c-0.4,0.6-0.9,1-1.5,1.3c-0.6,0.3-1.2,0.4-1.8,0.4c-1.1,0-1.8-0.4-2.3-1.2
				c-0.5-0.8-0.6-2-0.3-3.6l1.3-6.5h2l-1.3,6.5c-0.3,1.2-0.3,2.1,0,2.5c0.2,0.4,0.7,0.6,1.4,0.6c0.6,0,1.2-0.1,1.6-0.4
				c0.5-0.3,0.9-0.7,1.2-1.2l1.6-7.9h2l-2.2,11H414.7z"/>
			<path class="st8" d="M424.6,228.7l-0.5,2.7h1.9l-0.3,1.5h-1.9l-1.3,6.7c-0.1,0.5-0.1,0.9,0.1,1.1c0.1,0.2,0.4,0.3,0.7,0.3
				c0.2,0,0.3,0,0.6,0s0.4-0.1,0.5-0.1l0,1.4c-0.2,0.1-0.5,0.2-0.8,0.3c-0.4,0.1-0.7,0.1-1.1,0.1c-0.7,0-1.3-0.3-1.6-0.8
				c-0.4-0.5-0.5-1.3-0.3-2.3l1.3-6.7h-1.6l0.3-1.5h1.6l0.5-2.7H424.6z"/>
			<path class="st8" d="M437.8,242.3l0.2-1.5c-0.4,0.6-0.9,1-1.5,1.3c-0.6,0.3-1.2,0.4-1.8,0.4c-1.1,0-1.8-0.4-2.3-1.2
				c-0.5-0.8-0.6-2-0.3-3.6l1.3-6.5h2l-1.3,6.5c-0.3,1.2-0.3,2.1,0,2.5c0.2,0.4,0.7,0.6,1.4,0.6c0.6,0,1.2-0.1,1.6-0.4
				c0.5-0.3,0.9-0.7,1.2-1.2l1.6-7.9h2l-2.2,11H437.8z"/>
			<path class="st8" d="M448.8,239.4c0.1-0.5,0-0.8-0.3-1.1c-0.3-0.3-0.8-0.5-1.6-0.7c-1.2-0.3-2.1-0.7-2.6-1.2
				c-0.6-0.5-0.8-1.2-0.6-2c0.1-0.9,0.6-1.7,1.4-2.3s1.8-0.9,2.9-0.9s2,0.3,2.7,1c0.6,0.7,0.8,1.5,0.7,2.4l0,0.1h-1.9
				c0.1-0.5,0-0.9-0.3-1.3c-0.3-0.4-0.7-0.6-1.3-0.6c-0.6,0-1.1,0.2-1.5,0.5c-0.4,0.3-0.6,0.7-0.7,1.1c-0.1,0.5,0,0.8,0.2,1
				c0.2,0.2,0.8,0.5,1.6,0.7c1.3,0.3,2.2,0.7,2.7,1.2s0.8,1.2,0.6,2.1c-0.2,1-0.7,1.8-1.5,2.4c-0.8,0.6-1.8,0.9-3,0.9
				c-1.3,0-2.2-0.4-2.9-1.1c-0.7-0.7-0.9-1.5-0.7-2.5l0-0.1h1.9c-0.1,0.7,0.1,1.2,0.5,1.6c0.4,0.3,0.9,0.5,1.5,0.5
				c0.6,0,1.1-0.1,1.6-0.4C448.5,240.2,448.8,239.9,448.8,239.4z"/>
			<path class="st8" d="M457,242.5c-1.4,0-2.4-0.5-3.1-1.5c-0.7-1-0.9-2.3-0.7-4l0.1-0.4c0.3-1.6,0.9-2.9,1.9-4c1-1,2.1-1.5,3.3-1.5
				c1.3,0,2.3,0.5,2.9,1.4c0.6,0.9,0.8,2.1,0.5,3.6l-0.2,1.3h-6.6c-0.1,1.1,0,2,0.3,2.7c0.4,0.7,1,1,1.8,1c0.6,0,1.2-0.1,1.7-0.3
				c0.5-0.2,1-0.5,1.4-0.8l0.6,1.3c-0.4,0.4-0.9,0.7-1.6,1C458.6,242.4,457.8,242.5,457,242.5z M458.3,232.7c-0.6,0-1.1,0.3-1.7,0.9
				s-0.9,1.3-1.1,2.1l0,0.1h4.5l0-0.3c0.1-0.8,0.1-1.5-0.2-2C459.5,232.9,459,232.7,458.3,232.7z"/>
			<path class="st8" d="M469.8,233.1l-1.1-0.1c-0.4,0-0.9,0.1-1.2,0.4s-0.7,0.6-1,1.1l-1.6,7.8h-2l2.2-11h1.8l-0.1,1.5
				c0.4-0.5,0.8-0.9,1.3-1.2c0.5-0.3,1-0.4,1.5-0.4c0.1,0,0.3,0,0.4,0c0.2,0,0.3,0,0.4,0.1L469.8,233.1z"/>
			<path class="st8" d="M478.7,232.6c0.5-0.5,1-0.9,1.5-1.1c0.6-0.3,1.1-0.4,1.8-0.4c1,0,1.8,0.4,2.3,1.1c0.5,0.7,0.6,1.8,0.3,3.2
				l-1.4,6.9h-2l1.4-6.9c0.2-1,0.2-1.6-0.1-2.1c-0.3-0.4-0.8-0.6-1.5-0.6c-0.5,0-0.9,0.1-1.4,0.4c-0.5,0.3-0.9,0.6-1.3,1.1l-1.6,8.1
				h-2l3.2-15.9h2L478.7,232.6z"/>
			<path class="st8" d="M488,242.3h-2l2.2-11h2L488,242.3z M490.8,228.5h-2l0.4-2h2L490.8,228.5z"/>
			<path class="st8" d="M494.8,232.6c0.4-0.5,0.9-0.9,1.5-1.1c0.6-0.3,1.2-0.4,1.9-0.4c0.6,0,1.1,0.2,1.6,0.5s0.7,0.8,0.8,1.5
				c0.4-0.6,0.9-1.1,1.5-1.5c0.6-0.3,1.3-0.5,2-0.5c1,0,1.7,0.4,2.2,1.2s0.6,1.9,0.3,3.5l-1.3,6.6h-2l1.3-6.6c0.2-1.2,0.2-2,0-2.4
				s-0.7-0.6-1.4-0.6c-0.6,0-1.1,0.2-1.6,0.7s-0.9,1.1-1.1,1.8c0,0,0,0,0,0s0,0,0,0l-1.4,7h-2l1.3-6.6c0.2-1.1,0.2-1.9,0-2.3
				s-0.7-0.7-1.4-0.7c-0.5,0-1,0.1-1.4,0.4c-0.4,0.3-0.8,0.6-1,1.1l-1.6,8.1h-2l2.2-11h1.7L494.8,232.6z"/>
			<path class="st8" d="M514.5,239.4c0.1-0.5,0-0.8-0.3-1.1c-0.3-0.3-0.8-0.5-1.6-0.7c-1.2-0.3-2.1-0.7-2.6-1.2
				c-0.6-0.5-0.8-1.2-0.6-2c0.1-0.9,0.6-1.7,1.4-2.3s1.8-0.9,2.9-0.9s2,0.3,2.7,1c0.6,0.7,0.8,1.5,0.7,2.4l0,0.1h-1.9
				c0.1-0.5,0-0.9-0.3-1.3c-0.3-0.4-0.7-0.6-1.3-0.6c-0.6,0-1.1,0.2-1.5,0.5c-0.4,0.3-0.6,0.7-0.7,1.1c-0.1,0.5,0,0.8,0.2,1
				c0.2,0.2,0.8,0.5,1.6,0.7c1.3,0.3,2.2,0.7,2.7,1.2s0.8,1.2,0.6,2.1c-0.2,1-0.7,1.8-1.5,2.4c-0.8,0.6-1.8,0.9-3,0.9
				c-1.3,0-2.2-0.4-2.9-1.1c-0.7-0.7-0.9-1.5-0.7-2.5l0-0.1h1.9c-0.1,0.7,0.1,1.2,0.5,1.6c0.4,0.3,0.9,0.5,1.5,0.5
				c0.6,0,1.1-0.1,1.6-0.4C514.2,240.2,514.4,239.9,514.5,239.4z"/>
			<path class="st8" d="M522.6,242.5c-1.4,0-2.4-0.5-3.1-1.5c-0.7-1-0.9-2.3-0.7-4l0.1-0.4c0.3-1.6,0.9-2.9,1.9-4
				c1-1,2.1-1.5,3.3-1.5c1.3,0,2.3,0.5,2.9,1.4c0.6,0.9,0.8,2.1,0.5,3.6l-0.2,1.3h-6.6c-0.1,1.1,0,2,0.3,2.7c0.4,0.7,1,1,1.8,1
				c0.6,0,1.2-0.1,1.7-0.3c0.5-0.2,1-0.5,1.4-0.8l0.6,1.3c-0.4,0.4-0.9,0.7-1.6,1C524.3,242.4,523.5,242.5,522.6,242.5z
				 M523.9,232.7c-0.6,0-1.1,0.3-1.7,0.9s-0.9,1.3-1.1,2.1l0,0.1h4.5l0-0.3c0.1-0.8,0.1-1.5-0.2-2
				C525.2,232.9,524.7,232.7,523.9,232.7z"/>
			<path class="st8" d="M530.7,242.3h-2l3.2-15.9h2L530.7,242.3z"/>
			<path class="st8" d="M534.5,242.3l1.9-9.5h-1.6l0.3-1.5h1.6l0.3-1.4c0.2-1.2,0.7-2.2,1.4-2.8c0.7-0.6,1.6-0.9,2.6-0.9
				c0.2,0,0.4,0,0.6,0.1c0.2,0,0.5,0.1,0.7,0.2l-0.5,1.5c-0.1,0-0.2-0.1-0.4-0.1c-0.2,0-0.3,0-0.5,0c-0.5,0-0.9,0.2-1.3,0.5
				c-0.3,0.4-0.6,0.9-0.7,1.5l-0.3,1.4h2.1l-0.3,1.5h-2.1l-1.9,9.5H534.5z"/>
			<path class="st8" d="M545.2,228.4l-2.3,3.5h-1l1.3-3.5l0.4-2h2L545.2,228.4z M548.5,228.4l-2.3,3.5h-1l1.3-3.5l0.4-2h2
				L548.5,228.4z"/>
			<path class="st8" d="M550,242.3H548l0.4-2.1h1.9L550,242.3z"/>
		</g>
		<g id="XMLID_1250_">
			<g id="XMLID_1330_">
				<polygon id="XMLID_1335_" class="st9" points="564.6,406.9 554.7,412.8 557.3,401.7 548.7,394.2 560.1,393.2 564.6,382.6 
					569,393.2 580.4,394.2 571.8,401.7 574.4,412.8 				"/>
				<polygon id="XMLID_1334_" class="st9" points="607.9,406.9 598.1,412.8 600.7,401.7 592,394.2 603.4,393.2 607.9,382.6 
					612.4,393.2 623.8,394.2 615.1,401.7 617.7,412.8 				"/>
				<polygon id="XMLID_1333_" class="st9" points="651.3,406.9 641.4,412.8 644,401.7 635.4,394.2 646.8,393.2 651.3,382.6 
					655.7,393.2 667.1,394.2 658.5,401.7 661.1,412.8 				"/>
				<polygon id="XMLID_1332_" class="st5" points="694.6,406.9 684.8,412.8 687.4,401.7 678.7,394.2 690.1,393.2 694.6,382.6 
					699.1,393.2 710.5,394.2 701.8,401.7 704.4,412.8 				"/>
				<polygon id="XMLID_1331_" class="st5" points="738,406.9 728.1,412.8 730.7,401.7 722.1,394.2 733.5,393.2 738,382.6 
					742.4,393.2 753.8,394.2 745.2,401.7 747.8,412.8 				"/>
			</g>
		</g>
		<g class="st7">
			<path class="st9" d="M165,404.7v-13.4c0-0.7,0.3-1,1-1h0.3c0.7,0,1,0.3,1,1v13.4c0,4,2.4,6.3,6.4,6.3c4,0,6.3-2.4,6.3-6.3v-13.4
				c0-0.7,0.3-1,1-1h0.3c0.7,0,1,0.3,1,1v13.4c0,5.4-3.2,8.7-8.6,8.7C168.3,413.3,165,410.1,165,404.7z"/>
			<path class="st9" d="M193.4,401.6c-0.5-0.6-1.4-0.9-2.5-0.9c-1.7,0-2.8,0.8-2.8,1.8s0.9,1.6,3.2,2.1c3.6,0.7,5,2,5,4.3
				c0,2.4-1.9,4.2-5.3,4.2c-2.7,0-4.5-1.2-5.1-3.1c-0.2-0.7,0.2-1.1,0.9-1.1c0.6,0,0.8,0.3,1.1,0.8c0.5,0.8,1.7,1.4,3.1,1.4
				c2.1,0,3.4-0.9,3.4-2.2c0-1.3-0.9-1.8-3.4-2.3c-3.3-0.7-4.8-1.9-4.8-4.1c0-2.1,1.6-3.8,4.8-3.8c2.2,0,3.9,1,4.5,2.5
				c0.3,0.7-0.1,1.1-0.8,1.1C194,402.3,193.7,402,193.4,401.6z"/>
			<path class="st9" d="M213,406.4c0,0.3-0.3,0.5-1,0.5h-11.1c0.4,2.3,2.4,4.2,4.9,4.2c1.3,0,2.5-0.5,3.3-1.4
				c0.4-0.4,0.7-0.6,1.3-0.6h0.4c0.8,0,1.2,0.6,0.7,1.2c-1.3,1.7-3.4,2.8-5.7,2.8c-3.9,0-7.2-3.4-7.2-7.3c0-3.9,3.3-7.2,7.2-7.2
				s7.2,3.3,7.2,7.2V406.4z M200.9,404.8h9.8c-0.5-2.3-2.4-4.1-4.9-4.1C203.3,400.8,201.3,402.5,200.9,404.8z"/>
			<path class="st9" d="M218.4,400.8c0.9-1,2.2-1.8,3.7-2c0.7-0.1,1,0.3,1,0.9v0.1c0,0.7-0.3,0.9-1,1.1c-2.1,0.3-3.7,1.8-3.7,4.3
				v6.7c0,0.7-0.3,1-1,1h-0.1c-0.7,0-1-0.3-1-1v-11.9c0-0.7,0.3-1,1-1h0.1c0.7,0,1,0.3,1,1V400.8z"/>
			<path class="st9" d="M227,412.8c-0.7,0-1-0.3-1-1v-11.9c0-0.7,0.3-1,1-1h0.1c0.7,0,1,0.3,1,1v0.7c1.1-1.2,2.7-1.9,4.5-1.9
				c4,0,5.7,1.8,5.7,6.2v6.9c0,0.7-0.3,1-1,1h-0.1c-0.7,0-1-0.3-1-1v-6.9c0-2.7-1.3-4.1-3.6-4.1c-2.8-0.1-4.5,1.5-4.5,4.6v6.4
				C228.1,412.5,227.7,412.8,227,412.8L227,412.8z"/>
			<path class="st9" d="M241.3,405.9c0-3.9,3.3-7.2,7.2-7.2c2.1,0,4,1,5.2,2.5v-1.3c0-0.7,0.3-1,1-1h0.1c0.7,0,1,0.3,1,1v11.9
				c0,0.7-0.3,1-1,1h-0.1c-0.7,0-1-0.3-1-1v-1.3c-1.3,1.5-3.1,2.6-5.2,2.6C244.6,413.2,241.3,409.8,241.3,405.9z M253.6,405.9
				c0-2.8-2.4-5.1-5.2-5.1c-2.8,0-4.9,2.3-4.9,5.1c0,2.7,2.1,5.2,4.9,5.2C251.2,411.1,253.6,408.6,253.6,405.9z"/>
			<path class="st9" d="M281,404.9v6.9c0,0.7-0.3,1-1,1h-0.1c-0.7,0-1-0.3-1-1v-6.9c0-2.7-1-4.1-3.1-4.1c-2.6,0-4.2,1.4-4.2,4.8v6.2
				c0,0.7-0.3,1-1,1h-0.1c-0.7,0-1-0.3-1-1v-6.9c0-2.7-1-4.1-3.1-4.1c-2.6,0-4.2,1.4-4.2,4.8v6.2c0,0.7-0.3,1-1,1h-0.1
				c-0.7,0-1-0.3-1-1v-11.9c0-0.7,0.3-1,1-1h0.1c0.7,0,1,0.3,1,1v0.7c1-1.2,2.4-1.9,4.2-1.9c2.4,0,3.9,0.8,4.7,2.7
				c1-1.7,2.6-2.7,4.7-2.7C279.4,398.7,281,400.5,281,404.9z"/>
			<path class="st9" d="M298.6,406.4c0,0.3-0.3,0.5-1,0.5h-11.1c0.4,2.3,2.4,4.2,4.9,4.2c1.3,0,2.5-0.5,3.3-1.4
				c0.4-0.4,0.7-0.6,1.3-0.6h0.4c0.8,0,1.2,0.6,0.7,1.2c-1.3,1.7-3.4,2.8-5.7,2.8c-3.9,0-7.2-3.4-7.2-7.3c0-3.9,3.3-7.2,7.2-7.2
				s7.2,3.3,7.2,7.2V406.4z M286.5,404.8h9.8c-0.5-2.3-2.4-4.1-4.9-4.1C288.9,400.8,286.9,402.5,286.5,404.8z"/>
		</g>
		<g class="st7">
			<path class="st9" d="M165,404.7v-13.4c0-0.7,0.3-1,1-1h0.3c0.7,0,1,0.3,1,1v13.4c0,4,2.4,6.3,6.4,6.3c4,0,6.3-2.4,6.3-6.3v-13.4
				c0-0.7,0.3-1,1-1h0.3c0.7,0,1,0.3,1,1v13.4c0,5.4-3.2,8.7-8.6,8.7C168.3,413.3,165,410.1,165,404.7z"/>
			<path class="st9" d="M193.4,401.6c-0.5-0.6-1.4-0.9-2.5-0.9c-1.7,0-2.8,0.8-2.8,1.8s0.9,1.6,3.2,2.1c3.6,0.7,5,2,5,4.3
				c0,2.4-1.9,4.2-5.3,4.2c-2.7,0-4.5-1.2-5.1-3.1c-0.2-0.7,0.2-1.1,0.9-1.1c0.6,0,0.8,0.3,1.1,0.8c0.5,0.8,1.7,1.4,3.1,1.4
				c2.1,0,3.4-0.9,3.4-2.2c0-1.3-0.9-1.8-3.4-2.3c-3.3-0.7-4.8-1.9-4.8-4.1c0-2.1,1.6-3.8,4.8-3.8c2.2,0,3.9,1,4.5,2.5
				c0.3,0.7-0.1,1.1-0.8,1.1C194,402.3,193.7,402,193.4,401.6z"/>
			<path class="st9" d="M213,406.4c0,0.3-0.3,0.5-1,0.5h-11.1c0.4,2.3,2.4,4.2,4.9,4.2c1.3,0,2.5-0.5,3.3-1.4
				c0.4-0.4,0.7-0.6,1.3-0.6h0.4c0.8,0,1.2,0.6,0.7,1.2c-1.3,1.7-3.4,2.8-5.7,2.8c-3.9,0-7.2-3.4-7.2-7.3c0-3.9,3.3-7.2,7.2-7.2
				s7.2,3.3,7.2,7.2V406.4z M200.9,404.8h9.8c-0.5-2.3-2.4-4.1-4.9-4.1C203.3,400.8,201.3,402.5,200.9,404.8z"/>
			<path class="st9" d="M218.4,400.8c0.9-1,2.2-1.8,3.7-2c0.7-0.1,1,0.3,1,0.9v0.1c0,0.7-0.3,0.9-1,1.1c-2.1,0.3-3.7,1.8-3.7,4.3
				v6.7c0,0.7-0.3,1-1,1h-0.1c-0.7,0-1-0.3-1-1v-11.9c0-0.7,0.3-1,1-1h0.1c0.7,0,1,0.3,1,1V400.8z"/>
			<path class="st9" d="M227,412.8c-0.7,0-1-0.3-1-1v-11.9c0-0.7,0.3-1,1-1h0.1c0.7,0,1,0.3,1,1v0.7c1.1-1.2,2.7-1.9,4.5-1.9
				c4,0,5.7,1.8,5.7,6.2v6.9c0,0.7-0.3,1-1,1h-0.1c-0.7,0-1-0.3-1-1v-6.9c0-2.7-1.3-4.1-3.6-4.1c-2.8-0.1-4.5,1.5-4.5,4.6v6.4
				C228.1,412.5,227.7,412.8,227,412.8L227,412.8z"/>
			<path class="st9" d="M241.3,405.9c0-3.9,3.3-7.2,7.2-7.2c2.1,0,4,1,5.2,2.5v-1.3c0-0.7,0.3-1,1-1h0.1c0.7,0,1,0.3,1,1v11.9
				c0,0.7-0.3,1-1,1h-0.1c-0.7,0-1-0.3-1-1v-1.3c-1.3,1.5-3.1,2.6-5.2,2.6C244.6,413.2,241.3,409.8,241.3,405.9z M253.6,405.9
				c0-2.8-2.4-5.1-5.2-5.1c-2.8,0-4.9,2.3-4.9,5.1c0,2.7,2.1,5.2,4.9,5.2C251.2,411.1,253.6,408.6,253.6,405.9z"/>
			<path class="st9" d="M281,404.9v6.9c0,0.7-0.3,1-1,1h-0.1c-0.7,0-1-0.3-1-1v-6.9c0-2.7-1-4.1-3.1-4.1c-2.6,0-4.2,1.4-4.2,4.8v6.2
				c0,0.7-0.3,1-1,1h-0.1c-0.7,0-1-0.3-1-1v-6.9c0-2.7-1-4.1-3.1-4.1c-2.6,0-4.2,1.4-4.2,4.8v6.2c0,0.7-0.3,1-1,1h-0.1
				c-0.7,0-1-0.3-1-1v-11.9c0-0.7,0.3-1,1-1h0.1c0.7,0,1,0.3,1,1v0.7c1-1.2,2.4-1.9,4.2-1.9c2.4,0,3.9,0.8,4.7,2.7
				c1-1.7,2.6-2.7,4.7-2.7C279.4,398.7,281,400.5,281,404.9z"/>
			<path class="st9" d="M298.6,406.4c0,0.3-0.3,0.5-1,0.5h-11.1c0.4,2.3,2.4,4.2,4.9,4.2c1.3,0,2.5-0.5,3.3-1.4
				c0.4-0.4,0.7-0.6,1.3-0.6h0.4c0.8,0,1.2,0.6,0.7,1.2c-1.3,1.7-3.4,2.8-5.7,2.8c-3.9,0-7.2-3.4-7.2-7.3c0-3.9,3.3-7.2,7.2-7.2
				s7.2,3.3,7.2,7.2V406.4z M286.5,404.8h9.8c-0.5-2.3-2.4-4.1-4.9-4.1C288.9,400.8,286.9,402.5,286.5,404.8z"/>
		</g>
		<g id="XMLID_1249_" class="st7">
			<path class="st9" d="M165,404.7v-13.4c0-0.7,0.3-1,1-1h0.3c0.7,0,1,0.3,1,1v13.4c0,4,2.4,6.3,6.4,6.3c4,0,6.3-2.4,6.3-6.3v-13.4
				c0-0.7,0.3-1,1-1h0.3c0.7,0,1,0.3,1,1v13.4c0,5.4-3.2,8.7-8.6,8.7C168.3,413.3,165,410.1,165,404.7z"/>
			<path class="st9" d="M193.4,401.6c-0.5-0.6-1.4-0.9-2.5-0.9c-1.7,0-2.8,0.8-2.8,1.8s0.9,1.6,3.2,2.1c3.6,0.7,5,2,5,4.3
				c0,2.4-1.9,4.2-5.3,4.2c-2.7,0-4.5-1.2-5.1-3.1c-0.2-0.7,0.2-1.1,0.9-1.1c0.6,0,0.8,0.3,1.1,0.8c0.5,0.8,1.7,1.4,3.1,1.4
				c2.1,0,3.4-0.9,3.4-2.2c0-1.3-0.9-1.8-3.4-2.3c-3.3-0.7-4.8-1.9-4.8-4.1c0-2.1,1.6-3.8,4.8-3.8c2.2,0,3.9,1,4.5,2.5
				c0.3,0.7-0.1,1.1-0.8,1.1C194,402.3,193.7,402,193.4,401.6z"/>
			<path class="st9" d="M213,406.4c0,0.3-0.3,0.5-1,0.5h-11.1c0.4,2.3,2.4,4.2,4.9,4.2c1.3,0,2.5-0.5,3.3-1.4
				c0.4-0.4,0.7-0.6,1.3-0.6h0.4c0.8,0,1.2,0.6,0.7,1.2c-1.3,1.7-3.4,2.8-5.7,2.8c-3.9,0-7.2-3.4-7.2-7.3c0-3.9,3.3-7.2,7.2-7.2
				s7.2,3.3,7.2,7.2V406.4z M200.9,404.8h9.8c-0.5-2.3-2.4-4.1-4.9-4.1C203.3,400.8,201.3,402.5,200.9,404.8z"/>
			<path class="st9" d="M218.4,400.8c0.9-1,2.2-1.8,3.7-2c0.7-0.1,1,0.3,1,0.9v0.1c0,0.7-0.3,0.9-1,1.1c-2.1,0.3-3.7,1.8-3.7,4.3
				v6.7c0,0.7-0.3,1-1,1h-0.1c-0.7,0-1-0.3-1-1v-11.9c0-0.7,0.3-1,1-1h0.1c0.7,0,1,0.3,1,1V400.8z"/>
			<path class="st9" d="M227,412.8c-0.7,0-1-0.3-1-1v-11.9c0-0.7,0.3-1,1-1h0.1c0.7,0,1,0.3,1,1v0.7c1.1-1.2,2.7-1.9,4.5-1.9
				c4,0,5.7,1.8,5.7,6.2v6.9c0,0.7-0.3,1-1,1h-0.1c-0.7,0-1-0.3-1-1v-6.9c0-2.7-1.3-4.1-3.6-4.1c-2.8-0.1-4.5,1.5-4.5,4.6v6.4
				C228.1,412.5,227.7,412.8,227,412.8L227,412.8z"/>
			<path class="st9" d="M241.3,405.9c0-3.9,3.3-7.2,7.2-7.2c2.1,0,4,1,5.2,2.5v-1.3c0-0.7,0.3-1,1-1h0.1c0.7,0,1,0.3,1,1v11.9
				c0,0.7-0.3,1-1,1h-0.1c-0.7,0-1-0.3-1-1v-1.3c-1.3,1.5-3.1,2.6-5.2,2.6C244.6,413.2,241.3,409.8,241.3,405.9z M253.6,405.9
				c0-2.8-2.4-5.1-5.2-5.1c-2.8,0-4.9,2.3-4.9,5.1c0,2.7,2.1,5.2,4.9,5.2C251.2,411.1,253.6,408.6,253.6,405.9z"/>
			<path class="st9" d="M281,404.9v6.9c0,0.7-0.3,1-1,1h-0.1c-0.7,0-1-0.3-1-1v-6.9c0-2.7-1-4.1-3.1-4.1c-2.6,0-4.2,1.4-4.2,4.8v6.2
				c0,0.7-0.3,1-1,1h-0.1c-0.7,0-1-0.3-1-1v-6.9c0-2.7-1-4.1-3.1-4.1c-2.6,0-4.2,1.4-4.2,4.8v6.2c0,0.7-0.3,1-1,1h-0.1
				c-0.7,0-1-0.3-1-1v-11.9c0-0.7,0.3-1,1-1h0.1c0.7,0,1,0.3,1,1v0.7c1-1.2,2.4-1.9,4.2-1.9c2.4,0,3.9,0.8,4.7,2.7
				c1-1.7,2.6-2.7,4.7-2.7C279.4,398.7,281,400.5,281,404.9z"/>
			<path class="st9" d="M298.6,406.4c0,0.3-0.3,0.5-1,0.5h-11.1c0.4,2.3,2.4,4.2,4.9,4.2c1.3,0,2.5-0.5,3.3-1.4
				c0.4-0.4,0.7-0.6,1.3-0.6h0.4c0.8,0,1.2,0.6,0.7,1.2c-1.3,1.7-3.4,2.8-5.7,2.8c-3.9,0-7.2-3.4-7.2-7.3c0-3.9,3.3-7.2,7.2-7.2
				s7.2,3.3,7.2,7.2V406.4z M286.5,404.8h9.8c-0.5-2.3-2.4-4.1-4.9-4.1C288.9,400.8,286.9,402.5,286.5,404.8z"/>
		</g>
	</g>
</g>
</svg>
