<?xml version="1.0" encoding="utf-8"?>
<!-- Generator: Adobe Illustrator 19.0.0, SVG Export Plug-In . SVG Version: 6.00 Build 0)  -->
<svg version="1.1" id="Layer_1" xmlns="http://www.w3.org/2000/svg" xmlns:xlink="http://www.w3.org/1999/xlink" x="0px" y="0px"
	 viewBox="-456 259.5 46.8 43.5" style="enable-background:new -456 259.5 46.8 43.5;" xml:space="preserve">
<style type="text/css">
	.st0{clip-path:url(#SVGID_2_);}
	.st1{fill:#44281F;stroke:#000000;stroke-width:0.25;stroke-miterlimit:10;}
	.st2{fill:#CC925D;}
</style>
<g id="XMLID_830_">
	<g id="XMLID_866_">
		<g>
			<defs>
				<rect id="SVGID_1_" x="-456" y="259.5" width="46.8" height="44"/>
			</defs>
			<clipPath id="SVGID_2_">
				<use xlink:href="#SVGID_1_"  style="overflow:visible;"/>
			</clipPath>
			<g id="XMLID_872_" class="st0">
				<g id="XMLID_2702_">
					<g id="XMLID_2774_">
						<path id="XMLID_2880_" class="st1" d="M-432.6,300.3L-432.6,300.3c-10.6,0-19.2-6.2-19.2-19.2v-24.7h38.5v24.7
							C-413.4,295.1-422,300.3-432.6,300.3z"/>
						<g id="XMLID_2775_">
							<g id="XMLID_2878_">
								<path id="XMLID_2879_" class="st1" d="M-448.1,257c0-0.8-0.6-1.5-1.4-1.5s-1.4,0.7-1.4,1.5c0,0.1,0,0.2,0,0.3h2.8
									C-448.1,257.3-448.1,257.2-448.1,257z"/>
							</g>
							<g id="XMLID_2876_">
								<path id="XMLID_2877_" class="st1" d="M-445.3,257c0-0.8-0.6-1.5-1.4-1.5c-0.8,0-1.4,0.7-1.4,1.5c0,0.1,0,0.2,0,0.3h2.8
									C-445.3,257.3-445.3,257.2-445.3,257z"/>
							</g>
							<g id="XMLID_2874_">
								<path id="XMLID_2875_" class="st1" d="M-442.5,257c0-0.8-0.6-1.5-1.4-1.5c-0.8,0-1.4,0.7-1.4,1.5c0,0.1,0,0.2,0,0.3h2.8
									C-442.5,257.3-442.5,257.2-442.5,257z"/>
							</g>
							<g id="XMLID_2872_">
								<path id="XMLID_2873_" class="st1" d="M-439.6,257c0-0.8-0.6-1.5-1.4-1.5s-1.4,0.7-1.4,1.5c0,0.1,0,0.2,0,0.3h2.8
									C-439.7,257.3-439.6,257.2-439.6,257z"/>
							</g>
							<g id="XMLID_2870_">
								<path id="XMLID_2871_" class="st1" d="M-436.8,257c0-0.8-0.6-1.5-1.4-1.5c-0.8,0-1.4,0.7-1.4,1.5c0,0.1,0,0.2,0,0.3h2.8
									C-436.8,257.3-436.8,257.2-436.8,257z"/>
							</g>
							<g id="XMLID_2868_">
								<path id="XMLID_2869_" class="st1" d="M-434,257c0-0.8-0.6-1.5-1.4-1.5c-0.8,0-1.4,0.7-1.4,1.5c0,0.1,0,0.2,0,0.3h2.8
									C-434,257.3-434,257.2-434,257z"/>
							</g>
							<g id="XMLID_2866_">
								<path id="XMLID_2867_" class="st1" d="M-431.2,257c0-0.8-0.6-1.5-1.4-1.5c-0.8,0-1.4,0.7-1.4,1.5c0,0.1,0,0.2,0,0.3h2.8
									C-431.2,257.3-431.2,257.2-431.2,257z"/>
							</g>
							<g id="XMLID_2864_">
								<path id="XMLID_2865_" class="st1" d="M-428.4,257c0-0.8-0.6-1.5-1.4-1.5c-0.8,0-1.4,0.7-1.4,1.5c0,0.1,0,0.2,0,0.3h2.8
									C-428.4,257.3-428.4,257.2-428.4,257z"/>
							</g>
							<g id="XMLID_2862_">
								<path id="XMLID_2863_" class="st1" d="M-425.6,257c0-0.8-0.6-1.5-1.4-1.5s-1.4,0.7-1.4,1.5c0,0.1,0,0.2,0,0.3h2.8
									C-425.6,257.3-425.6,257.2-425.6,257z"/>
							</g>
							<g id="XMLID_2860_">
								<path id="XMLID_2861_" class="st1" d="M-422.7,257c0-0.8-0.6-1.5-1.4-1.5c-0.8,0-1.4,0.7-1.4,1.5c0,0.1,0,0.2,0,0.3h2.8
									C-422.8,257.3-422.7,257.2-422.7,257z"/>
							</g>
							<g id="XMLID_2858_">
								<path id="XMLID_2859_" class="st1" d="M-419.9,257c0-0.8-0.6-1.5-1.4-1.5c-0.8,0-1.4,0.7-1.4,1.5c0,0.1,0,0.2,0,0.3h2.7
									C-419.9,257.3-419.9,257.2-419.9,257z"/>
							</g>
							<g id="XMLID_2856_">
								<path id="XMLID_2857_" class="st1" d="M-417.1,257c0-0.8-0.6-1.5-1.4-1.5s-1.4,0.7-1.4,1.5c0,0.1,0,0.2,0,0.3h2.8
									C-417.1,257.3-417.1,257.2-417.1,257z"/>
							</g>
							<g id="XMLID_2854_">
								<path id="XMLID_2855_" class="st1" d="M-414.3,257c0-0.8-0.6-1.5-1.4-1.5c-0.8,0-1.4,0.7-1.4,1.5c0,0.1,0,0.2,0,0.3h2.8
									C-414.3,257.3-414.3,257.2-414.3,257z"/>
							</g>
							<g id="XMLID_2852_">
								<path id="XMLID_2853_" class="st1" d="M-414,260.2c0.8,0,1.5-0.6,1.5-1.4c0-0.8-0.7-1.4-1.5-1.4c-0.1,0-0.2,0-0.3,0v2.7
									C-414.2,260.1-414.1,260.2-414,260.2z"/>
							</g>
							<g id="XMLID_2850_">
								<path id="XMLID_2851_" class="st1" d="M-414,263c0.8,0,1.5-0.6,1.5-1.4c0-0.8-0.7-1.4-1.5-1.4c-0.1,0-0.2,0-0.3,0v2.7
									C-414.2,262.9-414.1,263-414,263z"/>
							</g>
							<g id="XMLID_2848_">
								<path id="XMLID_2849_" class="st1" d="M-414,265.8c0.8,0,1.5-0.6,1.5-1.4c0-0.8-0.7-1.4-1.5-1.4c-0.1,0-0.2,0-0.3,0v2.7
									C-414.2,265.7-414.1,265.8-414,265.8z"/>
							</g>
							<g id="XMLID_2846_">
								<path id="XMLID_2847_" class="st1" d="M-414,268.6c0.8,0,1.5-0.6,1.5-1.4c0-0.8-0.7-1.4-1.5-1.4c-0.1,0-0.2,0-0.3,0v2.7
									C-414.2,268.5-414.1,268.6-414,268.6z"/>
							</g>
							<g id="XMLID_2844_">
								<path id="XMLID_2845_" class="st1" d="M-414,271.4c0.8,0,1.5-0.6,1.5-1.4s-0.7-1.4-1.5-1.4c-0.1,0-0.2,0-0.3,0v2.7
									C-414.2,271.4-414.1,271.4-414,271.4z"/>
							</g>
							<g id="XMLID_2842_">
								<path id="XMLID_2843_" class="st1" d="M-414,274.2c0.8,0,1.5-0.6,1.5-1.4c0-0.8-0.7-1.4-1.5-1.4c-0.1,0-0.2,0-0.3,0v2.7
									C-414.2,274.2-414.1,274.2-414,274.2z"/>
							</g>
							<g id="XMLID_2840_">
								<path id="XMLID_2841_" class="st1" d="M-414,277c0.8,0,1.5-0.6,1.5-1.4c0-0.8-0.7-1.4-1.5-1.4c-0.1,0-0.2,0-0.3,0v2.7
									C-414.2,277-414.1,277-414,277z"/>
							</g>
							<g id="XMLID_2838_">
								<path id="XMLID_2839_" class="st1" d="M-414,279.8c0.8,0,1.5-0.6,1.5-1.4c0-0.8-0.7-1.4-1.5-1.4c-0.1,0-0.2,0-0.3,0v2.7
									C-414.2,279.8-414.1,279.8-414,279.8z"/>
							</g>
							<g id="XMLID_2836_">
								<path id="XMLID_2837_" class="st1" d="M-414,282.5c0.9,0,1.5-0.6,1.6-1.4c0-0.8-0.7-1.4-1.5-1.4c-0.1,0-0.2,0-0.3,0v1.4
									c0,0.4,0,0.9,0,1.3C-414.2,282.5-414.1,282.5-414,282.5z"/>
							</g>
							<g id="XMLID_2834_">
								<path id="XMLID_2835_" class="st1" d="M-414.3,285.3c0.4,0.1,0.8,0,1.1-0.3c0.3-0.2,0.5-0.6,0.6-1c0-0.4-0.1-0.8-0.4-1
									c-0.3-0.3-0.6-0.4-1.1-0.5c-0.1,0-0.2,0-0.3,0c0,0.9-0.1,1.8-0.3,2.6C-414.5,285.2-414.4,285.3-414.3,285.3z"/>
							</g>
							<g id="XMLID_2832_">
								<path id="XMLID_2833_" class="st1" d="M-414.8,287.9c0.4,0.1,0.8,0.1,1.1-0.1c0.3-0.2,0.6-0.5,0.7-0.9
									c0.2-0.8-0.4-1.5-1.3-1.7c-0.1,0-0.2,0-0.3,0c-0.1,0.9-0.3,1.7-0.5,2.6C-415,287.9-414.9,287.9-414.8,287.9z"/>
							</g>
							<g id="XMLID_2830_">
								<path id="XMLID_2831_" class="st1" d="M-415.8,290.5c0.4,0.2,0.8,0.2,1.2,0.1s0.7-0.4,0.8-0.8c0.1-0.4,0.1-0.8-0.1-1.1
									c-0.2-0.3-0.5-0.6-0.9-0.7c-0.1,0-0.2,0-0.3-0.1c-0.2,0.8-0.5,1.7-0.9,2.5C-415.9,290.4-415.8,290.4-415.8,290.5z"/>
							</g>
							<g id="XMLID_2828_">
								<path id="XMLID_2829_" class="st1" d="M-417.1,292.8c0.3,0.2,0.7,0.3,1.1,0.3c0.4-0.1,0.7-0.3,0.9-0.7
									c0.2-0.4,0.2-0.8,0.1-1.1c-0.1-0.4-0.4-0.7-0.8-0.8c-0.1,0-0.2-0.1-0.3-0.1c-0.4,0.8-0.8,1.6-1.3,2.3
									C-417.2,292.7-417.1,292.8-417.1,292.8z"/>
							</g>
							<g id="XMLID_2826_">
								<path id="XMLID_2827_" class="st1" d="M-418.8,294.9c0.3,0.3,0.7,0.5,1.1,0.5c0.2,0,0.4,0,0.6-0.1c0.2-0.1,0.3-0.2,0.5-0.4
									c0.3-0.3,0.3-0.7,0.3-1.1c-0.1-0.4-0.3-0.7-0.7-1c-0.1-0.1-0.2-0.1-0.3-0.1c-0.5,0.7-1,1.4-1.6,2
									C-418.9,294.8-418.8,294.8-418.8,294.9z"/>
							</g>
							<g id="XMLID_2824_">
								<path id="XMLID_2825_" class="st1" d="M-420.8,296.6c0.2,0.3,0.6,0.6,1,0.6c0.4,0.1,0.8,0,1.1-0.3c0.2-0.1,0.3-0.3,0.4-0.5
									c0.1-0.2,0.1-0.4,0.1-0.6c0-0.4-0.2-0.8-0.5-1.1c-0.1-0.1-0.2-0.1-0.2-0.2c-0.6,0.6-1.3,1.1-2,1.6
									C-420.9,296.4-420.9,296.5-420.8,296.6z"/>
							</g>
							<g id="XMLID_2822_">
								<path id="XMLID_2823_" class="st1" d="M-423.2,297.9c0.2,0.4,0.5,0.7,0.8,0.8c0.3,0.1,0.8,0.1,1.1-0.1
									c0.4-0.2,0.6-0.5,0.7-0.9c0.1-0.4,0-0.8-0.3-1.1c0-0.1-0.1-0.2-0.1-0.2c-0.7,0.5-1.5,0.9-2.3,1.3
									C-423.3,297.7-423.2,297.8-423.2,297.9z"/>
							</g>
							<g id="XMLID_2820_">
								<path id="XMLID_2821_" class="st1" d="M-425.7,298.8c0.1,0.4,0.4,0.7,0.7,0.9c0.3,0.2,0.7,0.2,1.1,0.1
									c0.4-0.1,0.7-0.4,0.8-0.8s0.1-0.8-0.1-1.2c0-0.1-0.1-0.2-0.2-0.3c-0.8,0.4-1.6,0.7-2.5,0.9
									C-425.8,298.6-425.8,298.7-425.7,298.8z"/>
							</g>
							<g id="XMLID_2818_">
								<path id="XMLID_2819_" class="st1" d="M-428.4,299.4c0.1,0.4,0.3,0.8,0.6,1c0.3,0.2,0.7,0.3,1.1,0.2
									c0.4-0.1,0.7-0.3,0.9-0.7c0.2-0.3,0.2-0.7,0.1-1.2c0-0.1-0.1-0.2-0.1-0.3c-0.8,0.2-1.7,0.4-2.6,0.6
									C-428.4,299.2-428.4,299.3-428.4,299.4z"/>
							</g>
							<g id="XMLID_2816_">
								<path id="XMLID_2817_" class="st1" d="M-431.1,299.7c0,0.4,0.2,0.8,0.5,1.1c0.3,0.3,0.6,0.4,1,0.4s0.7-0.3,1-0.6
									c0.2-0.3,0.3-0.7,0.2-1.1c0-0.1,0-0.2-0.1-0.3c-0.4,0.1-0.9,0.1-1.3,0.2c-0.4,0-0.9,0.1-1.3,0.1
									C-431.1,299.5-431.1,299.6-431.1,299.7z"/>
							</g>
							<g id="XMLID_2814_">
								<path id="XMLID_2815_" class="st1" d="M-433.9,299.7c0,0.4,0.1,0.8,0.4,1.1c0.2,0.3,0.6,0.5,1,0.5s0.8-0.2,1-0.5
									c0.2-0.3,0.4-0.7,0.4-1.1c0-0.1,0-0.2,0-0.3c-0.9,0-1.8,0-2.7,0C-433.8,299.5-433.9,299.6-433.9,299.7z"/>
							</g>
							<g id="XMLID_2812_">
								<path id="XMLID_2813_" class="st1" d="M-436.6,299.4c-0.1,0.8,0.4,1.6,1.2,1.7c0.8,0.1,1.5-0.6,1.5-1.4c0-0.1,0-0.2,0-0.3
									c-0.9,0-1.8-0.1-2.6-0.3C-436.5,299.2-436.6,299.3-436.6,299.4z"/>
							</g>
							<g id="XMLID_2810_">
								<path id="XMLID_2811_" class="st1" d="M-439.2,298.8c-0.3,0.8,0.2,1.7,1,1.8c0.8,0.2,1.6-0.4,1.7-1.2c0-0.1,0-0.2,0-0.3
									c-0.9-0.1-1.7-0.3-2.6-0.6C-439.2,298.6-439.2,298.7-439.2,298.8z"/>
							</g>
							<g id="XMLID_2808_">
								<path id="XMLID_2809_" class="st1" d="M-441.8,297.8c-0.2,0.4-0.2,0.8-0.1,1.2c0.1,0.3,0.4,0.7,0.8,0.8
									c0.8,0.3,1.6-0.2,1.8-1c0-0.1,0.1-0.2,0.1-0.3c-0.8-0.2-1.7-0.6-2.4-0.9C-441.7,297.7-441.7,297.7-441.8,297.8z"/>
							</g>
							<g id="XMLID_2806_">
								<path id="XMLID_2807_" class="st1" d="M-444.1,296.5c-0.2,0.3-0.3,0.7-0.3,1.1c0.1,0.4,0.3,0.7,0.6,0.9
									c0.4,0.2,0.8,0.2,1.1,0.1c0.4-0.1,0.7-0.4,0.8-0.8c0-0.1,0.1-0.2,0.1-0.3c-0.8-0.4-1.5-0.8-2.3-1.3
									C-444,296.3-444,296.4-444.1,296.5z"/>
							</g>
							<g id="XMLID_2804_">
								<path id="XMLID_2805_" class="st1" d="M-446.2,294.8c-0.3,0.3-0.5,0.7-0.5,1.1s0.2,0.7,0.5,1c0.3,0.3,0.7,0.3,1.1,0.3
									c0.4-0.1,0.7-0.3,1-0.7c0.1-0.1,0.1-0.2,0.2-0.3c-0.7-0.5-1.4-1-2-1.6C-446,294.7-446.1,294.7-446.2,294.8z"/>
							</g>
							<g id="XMLID_2802_">
								<path id="XMLID_2803_" class="st1" d="M-447.9,292.7c-0.3,0.2-0.6,0.6-0.6,1c-0.1,0.4,0,0.8,0.3,1.1c0.3,0.3,0.7,0.5,1,0.5
									c0.4,0,0.8-0.2,1.1-0.5c0.1-0.1,0.1-0.2,0.2-0.2c-0.6-0.6-1.2-1.3-1.7-2C-447.8,292.6-447.8,292.7-447.9,292.7z"/>
							</g>
							<g id="XMLID_2800_">
								<path id="XMLID_2801_" class="st1" d="M-449.3,290.4c-0.4,0.2-0.7,0.5-0.8,0.8c-0.1,0.4-0.1,0.8,0.1,1.1
									c0.2,0.4,0.6,0.6,0.9,0.6c0.4,0.1,0.8,0,1.1-0.3c0.1-0.1,0.2-0.1,0.2-0.2c-0.5-0.7-0.9-1.4-1.3-2.2
									C-449.1,290.3-449.2,290.4-449.3,290.4z"/>
							</g>
							<g id="XMLID_2798_">
								<path id="XMLID_2799_" class="st1" d="M-450.3,287.9c-0.8,0.2-1.3,1.1-1,1.8c0.1,0.4,0.5,0.6,0.8,0.8
									c0.4,0.1,0.8,0.1,1.2-0.1c0.1,0,0.2-0.1,0.3-0.2c-0.4-0.7-0.7-1.5-1-2.4C-450.1,287.9-450.2,287.9-450.3,287.9z"/>
							</g>
							<g id="XMLID_2796_">
								<path id="XMLID_2797_" class="st1" d="M-450.9,285.3c-0.4,0.1-1.1,0.1-1.3,0.4c-0.2,0.3-0.3,1.1-0.3,1.5
									c0.1,0.4,0.7,0.5,1.1,0.7c0.3,0.2,0.8,0.2,1.2,0.1c0.1,0,0.2-0.1,0.3-0.1c-0.1-0.2-0.1-0.4-0.2-0.6l-0.2-0.8
									c-0.1-0.4-0.2-0.9-0.3-1.3C-450.7,285.2-450.8,285.2-450.9,285.3z"/>
							</g>
							<g id="XMLID_2794_">
								<path id="XMLID_2795_" class="st1" d="M-451.2,282.5c-0.4,0-0.8,0.2-1.1,0.5c-0.3,0.3-0.4,0.7-0.4,1.1s0.3,0.7,0.6,1
									c0.3,0.2,0.7,0.3,1.1,0.2c0.1,0,0.2,0,0.3-0.1v-0.7l-0.1-0.7c-0.1-0.4-0.1-0.9-0.1-1.3C-451,282.5-451.1,282.5-451.2,282.5z
									"/>
							</g>
							<g id="XMLID_2792_">
								<path id="XMLID_2793_" class="st1" d="M-451.2,279.8c-0.8,0-1.5,0.6-1.5,1.4c0,0.8,0.7,1.4,1.6,1.4c0.1,0,0.2,0,0.3,0
									c0-0.4,0-0.9,0-1.3v-1.4C-451,279.8-451.1,279.8-451.2,279.8z"/>
							</g>
							<g id="XMLID_2790_">
								<path id="XMLID_2791_" class="st1" d="M-451.2,277c-0.8,0-1.5,0.6-1.5,1.4c0,0.8,0.7,1.4,1.5,1.4c0.1,0,0.2,0,0.3,0v-2.7
									C-451,277-451.1,277-451.2,277z"/>
							</g>
							<g id="XMLID_2788_">
								<path id="XMLID_2789_" class="st1" d="M-451.2,274.2c-0.8,0-1.5,0.6-1.5,1.4c0,0.8,0.7,1.4,1.5,1.4c0.1,0,0.2,0,0.3,0v-2.7
									C-451,274.2-451.1,274.2-451.2,274.2z"/>
							</g>
							<g id="XMLID_2786_">
								<path id="XMLID_2787_" class="st1" d="M-451.2,271.4c-0.8,0-1.5,0.6-1.5,1.4c0,0.8,0.7,1.4,1.5,1.4c0.1,0,0.2,0,0.3,0v-2.7
									C-451,271.4-451.1,271.4-451.2,271.4z"/>
							</g>
							<g id="XMLID_2784_">
								<path id="XMLID_2785_" class="st1" d="M-451.2,268.6c-0.8,0-1.5,0.6-1.5,1.4s0.7,1.4,1.5,1.4c0.1,0,0.2,0,0.3,0v-2.8
									C-451,268.6-451.1,268.6-451.2,268.6z"/>
							</g>
							<g id="XMLID_2782_">
								<path id="XMLID_2783_" class="st1" d="M-451.2,265.8c-0.8,0-1.5,0.6-1.5,1.4c0,0.8,0.7,1.4,1.5,1.4c0.1,0,0.2,0,0.3,0v-2.8
									C-451,265.8-451.1,265.8-451.2,265.8z"/>
							</g>
							<g id="XMLID_2780_">
								<path id="XMLID_2781_" class="st1" d="M-451.2,263c-0.8,0-1.5,0.6-1.5,1.4c0,0.8,0.7,1.4,1.5,1.4c0.1,0,0.2,0,0.3,0V263
									C-451,263-451.1,263-451.2,263z"/>
							</g>
							<g id="XMLID_2778_">
								<path id="XMLID_2779_" class="st1" d="M-451.2,260.2c-0.8,0-1.5,0.6-1.5,1.4c0,0.8,0.7,1.4,1.5,1.4c0.1,0,0.2,0,0.3,0v-2.8
									C-451,260.2-451.1,260.2-451.2,260.2z"/>
							</g>
							<g id="XMLID_2776_">
								<path id="XMLID_2777_" class="st1" d="M-451.2,257.4c-0.8,0-1.5,0.6-1.5,1.4c0,0.8,0.7,1.4,1.5,1.4c0.1,0,0.2,0,0.3,0v-2.7
									C-451,257.4-451.1,257.4-451.2,257.4z"/>
							</g>
						</g>
					</g>
					<g id="XMLID_2703_">
						<g id="XMLID_2767_">
							<path id="XMLID_2773_" class="st1" d="M-434.9,257.4c0.4,0.2,1.4-0.2,1.8,0C-432.7,256.7-434.8,256.9-434.9,257.4z"/>
							<path id="XMLID_2772_" class="st1" d="M-437.6,257.3c0.4,0.4,1.5,0,2.1,0.2C-435.3,256.8-437.2,257-437.6,257.3z"/>
							<path id="XMLID_2771_" class="st1" d="M-440.6,257.1c0.3,0.5,1.3,0.2,2.1,0.3C-438.5,256.7-440,257.1-440.6,257.1z"/>
							<path id="XMLID_2770_" class="st1" d="M-443.5,257.3c0.8,0.2,1.5,0,2.1,0C-441.4,256.6-443.3,257-443.5,257.3z"/>
							<path id="XMLID_2769_" class="st1" d="M-446,257.2c0.2,0.4,1,0,1.6,0.2C-444.2,256.8-445.9,256.9-446,257.2z"/>
							<path id="XMLID_2768_" class="st1" d="M-449,257.4c0.8,0.1,1.2-0.1,2.1,0C-446.9,256.7-449.1,257-449,257.4z"/>
						</g>
						<g id="XMLID_2760_">
							<path id="XMLID_2766_" class="st1" d="M-418.1,257.4c0.4,0.2,1.4-0.2,1.8,0C-415.9,256.7-418,256.9-418.1,257.4z"/>
							<path id="XMLID_2765_" class="st1" d="M-420.8,257.3c0.4,0.4,1.5,0,2.1,0.2C-418.5,256.8-420.4,257-420.8,257.3z"/>
							<path id="XMLID_2764_" class="st1" d="M-423.8,257.1c0.3,0.5,1.3,0.2,2.1,0.3C-421.7,256.7-423.2,257.1-423.8,257.1z"/>
							<path id="XMLID_2763_" class="st1" d="M-426.7,257.3c0.8,0.2,1.5,0,2.1,0C-424.6,256.6-426.4,257-426.7,257.3z"/>
							<path id="XMLID_2762_" class="st1" d="M-429.1,257.2c0.2,0.4,1,0,1.6,0.2C-427.3,256.8-429.1,256.9-429.1,257.2z"/>
							<path id="XMLID_2761_" class="st1" d="M-432.2,257.4c0.8,0.1,1.2-0.1,2.1,0C-430.1,256.7-432.3,257-432.2,257.4z"/>
						</g>
						<g id="XMLID_2753_">
							<path id="XMLID_2759_" class="st1" d="M-415.3,268.9c-0.2,0.3,0.2,1.1,0,1.4C-414.7,270.6-414.8,269-415.3,268.9z"/>
							<path id="XMLID_2758_" class="st1" d="M-415.2,266.8c-0.4,0.3,0,1.2-0.2,1.6C-414.7,268.6-414.9,267.1-415.2,266.8z"/>
							<path id="XMLID_2757_" class="st1" d="M-415,264.5c-0.5,0.2-0.2,1-0.3,1.6C-414.6,266.2-415,265-415,264.5z"/>
							<path id="XMLID_2756_" class="st1" d="M-415.2,262.3c-0.2,0.6,0,1.2,0,1.6C-414.6,263.9-414.9,262.5-415.2,262.3z"/>
							<path id="XMLID_2755_" class="st1" d="M-415.1,260.4c-0.4,0.1,0,0.8-0.2,1.2C-414.7,261.8-414.8,260.5-415.1,260.4z"/>
							<path id="XMLID_2754_" class="st1" d="M-415.3,258.1c-0.1,0.6,0.1,0.9,0,1.6C-414.6,259.7-414.9,258-415.3,258.1z"/>
						</g>
						<g id="XMLID_2746_">
							<path id="XMLID_2752_" class="st1" d="M-415.3,281.8c-0.3,0.3,0.1,1.1-0.1,1.4C-414.8,283.5-414.8,281.9-415.3,281.8z"/>
							<path id="XMLID_2751_" class="st1" d="M-415.2,279.7c-0.4,0.3,0,1.2-0.2,1.6c0.3,0.1,0.5-0.2,0.5-0.6
								C-414.9,280.3-415.1,279.8-415.2,279.7z"/>
							<path id="XMLID_2750_" class="st1" d="M-415,277.4c-0.5,0.2-0.2,1-0.3,1.6C-414.6,279-415,277.9-415,277.4z"/>
							<path id="XMLID_2749_" class="st1" d="M-415.2,275.2c-0.2,0.6,0,1.2,0,1.6C-414.6,276.8-414.9,275.4-415.2,275.2z"/>
							<path id="XMLID_2748_" class="st1" d="M-415.1,273.3c-0.4,0.1,0,0.8-0.2,1.2C-414.7,274.7-414.8,273.4-415.1,273.3z"/>
							<path id="XMLID_2747_" class="st1" d="M-415.3,271c-0.1,0.6,0.1,0.9,0,1.6C-414.6,272.6-414.9,270.9-415.3,271z"/>
						</g>
						<g id="XMLID_2739_">
							<path id="XMLID_2745_" class="st1" d="M-419.4,293.6c-0.2,0-0.3,0.3-0.5,0.5c-0.2,0.2-0.3,0.4-0.5,0.5
								c0.1,0.3,0.5,0.2,0.7-0.1C-419.4,294.2-419.3,293.8-419.4,293.6z"/>
							<path id="XMLID_2744_" class="st1" d="M-418.1,292c-0.2,0-0.4,0.3-0.6,0.5c-0.2,0.3-0.3,0.5-0.5,0.6c0.2,0.3,0.5,0.1,0.7-0.2
								C-418.2,292.6-418,292.2-418.1,292z"/>
							<path id="XMLID_2743_" class="st1" d="M-416.8,290.1c-0.3,0-0.4,0.2-0.6,0.5c-0.1,0.3-0.3,0.6-0.5,0.8
								C-417.2,291.8-417,290.5-416.8,290.1z"/>
							<path id="XMLID_2742_" class="st1" d="M-416.2,287.9c-0.3,0.5-0.4,1.1-0.6,1.5c0.3,0.1,0.6-0.2,0.7-0.6
								C-416.1,288.5-416.1,288.1-416.2,287.9z"/>
							<path id="XMLID_2741_" class="st1" d="M-415.7,286.2c-0.4,0.1-0.2,0.7-0.4,1.2C-415.6,287.6-415.3,286.3-415.7,286.2z"/>
							<path id="XMLID_2740_" class="st1" d="M-415.5,283.8c-0.1,0.3-0.1,0.5-0.1,0.8c0,0.2,0,0.5-0.1,0.9
								C-415,285.5-415.1,283.8-415.5,283.8z"/>
						</g>
						<g id="XMLID_2732_">
							<path id="XMLID_2738_" class="st1" d="M-430.8,298.4c-0.3-0.2-1,0.2-1.4,0c-0.1,0.3,0.2,0.5,0.6,0.5
								C-431.3,298.9-430.9,298.7-430.8,298.4z"/>
							<path id="XMLID_2737_" class="st1" d="M-428.8,298.3c-0.2-0.2-0.5-0.1-0.8-0.1c-0.3,0.1-0.6,0.1-0.8,0.1
								c-0.1,0.3,0.3,0.4,0.7,0.4C-429.3,298.7-428.9,298.5-428.8,298.3z"/>
							<path id="XMLID_2736_" class="st1" d="M-426.5,298c-0.2-0.2-0.4-0.2-0.7-0.1c-0.3,0.1-0.6,0.2-0.9,0.1
								c0.1,0.4,0.4,0.4,0.7,0.3C-427.1,298.3-426.7,298.1-426.5,298z"/>
							<path id="XMLID_2735_" class="st1" d="M-424.4,297.1c-0.3,0-0.6,0.1-0.8,0.2c-0.3,0.1-0.5,0.2-0.7,0.3
								C-425.7,298.3-424.5,297.5-424.4,297.1z"/>
							<path id="XMLID_2734_" class="st1" d="M-422.7,296.4c-0.3-0.3-0.7,0.3-1.2,0.4c0,0.3,0.4,0.3,0.7,0.2
								C-422.9,296.9-422.6,296.6-422.7,296.4z"/>
							<path id="XMLID_2733_" class="st1" d="M-420.9,295c-0.3,0.2-0.4,0.3-0.6,0.5c-0.2,0.1-0.4,0.3-0.7,0.5
								c0.2,0.3,0.6,0.1,0.9-0.1C-420.9,295.5-420.7,295.1-420.9,295z"/>
						</g>
						<g id="XMLID_2725_">
							<path id="XMLID_2731_" class="st1" d="M-443.1,295.8c-0.1-0.2-0.3-0.3-0.5-0.4c-0.2-0.1-0.5-0.2-0.6-0.4
								c-0.3,0.2-0.1,0.5,0.2,0.7C-443.7,295.9-443.3,296-443.1,295.8z"/>
							<path id="XMLID_2730_" class="st1" d="M-441.3,296.9c-0.1-0.4-1-0.5-1.3-0.9C-443.1,296.5-441.7,297-441.3,296.9z"/>
							<path id="XMLID_2729_" class="st1" d="M-439.3,297.8c0-0.3-0.3-0.4-0.5-0.5c-0.1,0-0.3-0.1-0.5-0.1c-0.2-0.1-0.3-0.1-0.4-0.2
								c-0.1,0.3,0.1,0.5,0.4,0.7C-439.9,297.8-439.5,297.8-439.3,297.8z"/>
							<path id="XMLID_2728_" class="st1" d="M-437.1,298.2c-0.3-0.1-0.6-0.2-0.8-0.2c-0.3-0.1-0.5-0.1-0.7-0.2
								c-0.1,0.4,0.3,0.5,0.6,0.6C-437.6,298.4-437.2,298.3-437.1,298.2z"/>
							<path id="XMLID_2727_" class="st1" d="M-435.2,298.5c-0.1-0.4-0.8-0.1-1.2-0.3C-436.7,298.8-435.3,298.9-435.2,298.5z"/>
							<path id="XMLID_2726_" class="st1" d="M-432.9,298.5c-0.6-0.1-0.9,0.1-1.6,0c0,0.3,0.4,0.5,0.8,0.4
								C-433.2,298.8-432.8,298.7-432.9,298.5z"/>
						</g>
						<g id="XMLID_2718_">
							<path id="XMLID_2724_" class="st1" d="M-449.5,285.2c0.1-0.2,0-0.4-0.1-0.7s-0.2-0.5-0.1-0.7
								C-450.4,283.7-450,285.3-449.5,285.2z"/>
							<path id="XMLID_2723_" class="st1" d="M-449.2,287.3c0.1-0.2,0.1-0.5,0-0.8c0-0.1-0.1-0.3-0.1-0.4s-0.1-0.3,0-0.4
								C-450.1,285.7-449.5,287.1-449.2,287.3z"/>
							<path id="XMLID_2722_" class="st1" d="M-448.6,289.5c0.2-0.2,0.1-0.4,0-0.7c-0.1-0.3-0.3-0.6-0.3-0.9
								C-449.5,288.1-448.8,289.1-448.6,289.5z"/>
							<path id="XMLID_2721_" class="st1" d="M-447.4,291.4c-0.2-0.6-0.6-1-0.7-1.5c-0.3,0.2-0.2,0.6,0,0.9
								C-448,291.1-447.6,291.4-447.4,291.4z"/>
							<path id="XMLID_2720_" class="st1" d="M-446.4,293c0.1-0.2,0-0.3-0.2-0.5c-0.2-0.2-0.4-0.4-0.4-0.6c-0.3,0.1-0.2,0.4,0,0.7
								C-446.9,292.9-446.6,293.1-446.4,293z"/>
							<path id="XMLID_2719_" class="st1" d="M-444.7,294.5c-0.2-0.2-0.4-0.4-0.6-0.5c-0.1-0.1-0.2-0.2-0.3-0.2
								c-0.1-0.1-0.2-0.2-0.3-0.4c-0.2,0.2,0,0.6,0.3,0.9C-445.2,294.6-444.8,294.7-444.7,294.5z"/>
						</g>
						<g id="XMLID_2711_">
							<path id="XMLID_2717_" class="st1" d="M-449.9,272.4c0.2-0.3-0.2-1.1,0-1.4C-450.6,270.8-450.4,272.3-449.9,272.4z"/>
							<path id="XMLID_2716_" class="st1" d="M-450,274.5c0.4-0.3,0-1.2,0.2-1.6C-450.5,272.8-450.3,274.2-450,274.5z"/>
							<path id="XMLID_2715_" class="st1" d="M-450.2,276.8c0.5-0.2,0.2-1,0.3-1.6C-450.6,275.2-450.2,276.3-450.2,276.8z"/>
							<path id="XMLID_2714_" class="st1" d="M-450,279c0.2-0.6,0-1.2,0-1.6C-450.7,277.4-450.3,278.8-450,279z"/>
							<path id="XMLID_2713_" class="st1" d="M-450.1,280.9c0.3-0.1,0-0.8,0.1-1.2C-450.5,279.5-450.5,280.9-450.1,280.9z"/>
							<path id="XMLID_2712_" class="st1" d="M-449.8,283.2c0-0.3,0-0.5-0.1-0.8c0-0.2-0.1-0.5-0.1-0.9c-0.2,0-0.3,0.1-0.3,0.3
								c-0.1,0.2-0.1,0.4,0,0.6c0,0.2,0.1,0.4,0.2,0.6S-449.9,283.2-449.8,283.2z"/>
						</g>
						<g id="XMLID_2704_">
							<path id="XMLID_2710_" class="st1" d="M-449.9,259.5c0.2-0.3-0.2-1.1,0-1.4C-450.6,257.9-450.4,259.5-449.9,259.5z"/>
							<path id="XMLID_2709_" class="st1" d="M-450,261.6c0.4-0.3,0-1.2,0.2-1.6C-450.5,259.9-450.3,261.3-450,261.6z"/>
							<path id="XMLID_2708_" class="st1" d="M-450.2,263.9c0.5-0.2,0.2-1,0.3-1.6C-450.6,262.3-450.2,263.5-450.2,263.9z"/>
							<path id="XMLID_2707_" class="st1" d="M-450,266.1c0.2-0.6,0-1.1,0.1-1.6C-450.7,264.6-450.3,266-450,266.1z"/>
							<path id="XMLID_2706_" class="st1" d="M-450.1,268c0.4-0.1,0-0.8,0.2-1.2C-450.5,266.6-450.4,268-450.1,268z"/>
							<path id="XMLID_2705_" class="st1" d="M-449.9,270.4c0.1-0.6-0.1-0.9,0-1.6C-450.6,268.7-450.3,270.4-449.9,270.4z"/>
						</g>
					</g>
				</g>
			</g>
		</g>
	</g>
	<g id="XMLID_831_">
		<path id="XMLID_863_" class="st2" d="M-417.1,262h-31.2c0-0.3-0.3-0.6-0.6-0.6l0,0c0.3,0,0.6-0.3,0.6-0.6h31.2
			c0,0.3,0.3,0.6,0.6,0.6l0,0C-416.8,261.4-417.1,261.7-417.1,262z"/>
		<path id="XMLID_860_" class="st2" d="M-417.1,265.4h-31.2c0-0.3-0.3-0.6-0.6-0.6l0,0c0.3,0,0.6-0.3,0.6-0.6h31.2
			c0,0.3,0.3,0.6,0.6,0.6l0,0C-416.8,264.8-417.1,265.1-417.1,265.4z"/>
		<path id="XMLID_857_" class="st2" d="M-417.1,268.8h-31.2c0-0.3-0.3-0.6-0.6-0.6l0,0c0.3,0,0.6-0.3,0.6-0.6h31.2
			c0,0.3,0.3,0.6,0.6,0.6l0,0C-416.8,268.2-417.1,268.4-417.1,268.8z"/>
		<path id="XMLID_854_" class="st2" d="M-417.1,272.1h-31.2c0-0.3-0.3-0.6-0.6-0.6l0,0c0.3,0,0.6-0.3,0.6-0.6h31.2
			c0,0.3,0.3,0.6,0.6,0.6l0,0C-416.8,271.5-417.1,271.8-417.1,272.1z"/>
		<path id="XMLID_851_" class="st2" d="M-417.1,275.5h-31.2c0-0.3-0.3-0.6-0.6-0.6l0,0c0.3,0,0.6-0.3,0.6-0.6h31.2
			c0,0.3,0.3,0.6,0.6,0.6l0,0C-416.8,274.9-417.1,275.2-417.1,275.5z"/>
		<path id="XMLID_847_" class="st2" d="M-417.1,278.9h-31.2c0-0.3-0.3-0.6-0.6-0.6l0,0c0.3,0,0.6-0.3,0.6-0.6h31.2
			c0,0.3,0.3,0.6,0.6,0.6l0,0C-416.8,278.3-417.1,278.6-417.1,278.9z"/>
		<path id="XMLID_844_" class="st2" d="M-417.1,282.3h-31.2c0-0.3-0.3-0.6-0.6-0.6l0,0c0.3,0,0.6-0.3,0.6-0.6h31.2
			c0,0.3,0.3,0.6,0.6,0.6l0,0C-416.8,281.7-417.1,281.9-417.1,282.3z"/>
		<path id="XMLID_841_" class="st2" d="M-417.7,285.6h-30c0-0.3-0.3-0.6-0.6-0.6l0,0c0.3,0,0.6-0.3,0.6-0.6h30
			c0,0.3,0.3,0.6,0.6,0.6l0,0C-417.4,285-417.7,285.3-417.7,285.6z"/>
		<path id="XMLID_838_" class="st2" d="M-418.3,289h-28.8c0-0.3-0.3-0.6-0.6-0.6l0,0c0.3,0,0.6-0.3,0.6-0.6h28.8
			c0,0.3,0.3,0.6,0.6,0.6l0,0C-418,288.4-418.3,288.7-418.3,289z"/>
		<path id="XMLID_835_" class="st2" d="M-420,292.4h-25.5c0-0.3-0.3-0.6-0.6-0.6l0,0c0.3,0,0.6-0.3,0.6-0.6h25.5
			c0,0.3,0.3,0.6,0.6,0.6l0,0C-419.7,291.8-420,292.1-420,292.4z"/>
		<path id="XMLID_832_" class="st2" d="M-423.9,295.8h-17.6c0-0.3-0.3-0.6-0.6-0.6l0,0c0.3,0,0.6-0.3,0.6-0.6h17.6
			c0,0.3,0.3,0.6,0.6,0.6l0,0C-423.6,295.2-423.9,295.4-423.9,295.8z"/>
	</g>
</g>
</svg>
