<?xml version="1.0" encoding="utf-8"?>
<!-- Generator: Adobe Illustrator 19.0.0, SVG Export Plug-In . SVG Version: 6.00 Build 0)  -->
<svg version="1.1" id="Layer_1" xmlns="http://www.w3.org/2000/svg" xmlns:xlink="http://www.w3.org/1999/xlink" x="0px" y="0px"
	 viewBox="0 0 607.1 373.5" style="enable-background:new 0 0 607.1 373.5;" xml:space="preserve">
<style type="text/css">
	.st0{fill:#FFF3D3;}
	.st1{fill:#774125;}
	.st2{fill:#371809;stroke:#000000;stroke-width:0.25;stroke-miterlimit:10;}
	.st3{fill:#E28343;}
	.st4{font-family:'Milkshake';}
	.st5{font-size:143.8287px;}
	.st6{fill:#371809;}
</style>
<g id="XMLID_891_">
	<path id="XMLID_997_" class="st0" d="M24.3,240.4c0,0-1.3,126.6,256.9,120.9s294.7-25.9,302.3-112.7
		C591.2,161.8,24.3,240.4,24.3,240.4z"/>
	<path id="XMLID_994_" class="st0" d="M380.1,248.7c0,0,3.2,75.5,102.1,75.5c0,0,99.8,10.7,101.4-75.5
		c1.6-86.2-91.1-147.7-91.1-147.7S390.7,121.4,380.1,248.7z"/>
	<path id="XMLID_991_" class="st1" d="M380.1,248.7c39.7-79.3,126.2-7,202.7,0C553.8,352.6,432.2,217.2,380.1,248.7z"/>
	<path id="XMLID_987_" class="st2" d="M380.1,248.7c2.2-66,21.1-128.6,101.8-178.9c81.9,61.7,107.2,122,101.8,178.9
		C538.8,363.8,476,171.2,380.1,248.7z"/>
	<g id="XMLID_983_">
		<text id="XMLID_96_" transform="matrix(1 0 0 1 439.7155 215.9074)" class="st3 st4 st5">0</text>
	</g>
	<path id="XMLID_979_" class="st0" d="M209.6,237c0,0,3.7,87.1,117.8,87.1c0,0,115.1,12.3,117-87.1S339.3,66.5,339.3,66.5
		S221.9,90.2,209.6,237z"/>
	<path id="XMLID_938_" class="st1" d="M209.6,237c45.8-91.5,145.6-8.1,233.9,0C410,356.9,269.7,200.6,209.6,237z"/>
	<path id="XMLID_931_" class="st2" d="M209.6,237c2.5-76.2,24.3-148.5,117.4-206.5c94.5,71.2,123.7,140.8,117.4,206.5
		C392.8,369.9,320.3,147.5,209.6,237z"/>
	<path id="XMLID_878_" class="st1" d="M444.9,231.9c-0.1,1.7-0.2,3.4-0.4,5.1c-1.4,3.5-2.8,6.8-4.2,9.8c-0.8,2.2-1.7,4.2-2.6,6.2
		c53.9,21,118.8,66.2,142.3,4.2C546.7,329.5,503.6,246.6,444.9,231.9z"/>
	<g id="XMLID_894_">
		<text id="XMLID_98_" transform="matrix(1 0 0 1 303.987 199.0519)" class="st3 st4 st5">1</text>
	</g>
	<g id="XMLID_874_">
		<path id="XMLID_889_" class="st0" d="M24.3,240.4c0,0,4,95,128.5,95c0,0,125.5,13.4,127.6-95S165.7,54.6,165.7,54.6
			S37.7,80.4,24.3,240.4z"/>
		<path id="XMLID_886_" class="st1" d="M24.3,240.4c50-99.7,158.8-8.8,255,0C242.8,371.2,89.8,200.8,24.3,240.4z"/>
		<path id="XMLID_879_" class="st2" d="M24.3,240.4c2.7-83,26.5-161.8,128-225.1c103,77.7,134.9,153.5,128,225.1
			C224,385.3,145,142.9,24.3,240.4z"/>
		<g id="XMLID_875_">
			<text id="XMLID_99_" transform="matrix(1 0 0 1 115.1979 199.0519)" class="st3 st4 st5">1</text>
		</g>
	</g>
	<g id="XMLID_871_">
		<g>
			<path id="XMLID_146_" class="st6" d="M199.8,337.7c-1.9,0-3.7-0.3-5.6-0.9c-1.8-0.6-3.5-1.5-4.9-2.6c-1.5-1.2-2.6-2.7-3.6-4.5
				c-0.9-1.8-1.4-4-1.4-6.5c0-1.1,0.1-2.2,0.2-3.4c0.2-1.1,0.4-2.2,0.7-3.4c-1.8-0.4-3.4-1-4.8-1.7c-1.4-0.7-2.6-1.5-3.6-2.3
				c-1-0.9-1.8-1.8-2.3-2.7c-0.5-1-0.8-1.9-0.8-2.9c0-1.7,0.5-3.2,1.5-4.7c1-1.4,2.2-2.7,3.6-3.7s2.8-1.9,4.2-2.5s2.6-0.9,3.4-0.9
				c0.7,0,1,0.2,1,0.7c0,0.3-0.1,0.5-0.3,0.7c-0.2,0.2-0.5,0.4-0.8,0.7c-0.4,0.3-0.9,0.7-1.5,1.2c-0.5,0.5-1,1-1.5,1.7
				c-0.5,0.7-0.9,1.4-1.2,2.3c-0.3,0.9-0.5,2-0.5,3.2c0,1.3,0.3,2.6,1,3.9c0.7,1.3,1.9,2.3,3.8,3.1c1.1-2.7,2.6-5.3,4.3-7.7
				c1.8-2.4,3.7-4.5,5.7-6.3c2.1-1.8,4.2-3.3,6.3-4.3c2.2-1.1,4.2-1.6,6.1-1.6c1.2,0,2.3,0.3,3.4,0.8c1.1,0.6,2,1.3,2.7,2.1
				s1.4,1.7,1.8,2.7c0.4,1,0.7,1.9,0.7,2.7c0,1.6-0.6,3.3-1.7,5.1c-1.1,1.9-2.8,3.6-4.8,5.3c-2.1,1.6-4.6,3-7.6,4.1
				c-3,1.1-6.3,1.7-10,1.8c-0.5,2-0.7,4.1-0.7,6c0,3.8,0.8,6.6,2.3,8.2c1.5,1.7,3.7,2.5,6.6,2.5c1.1,0,2.2-0.2,3.2-0.5
				c1.1-0.4,2.1-0.8,3.1-1.4s2-1.3,2.8-2.1c0.9-0.8,1.7-1.7,2.3-2.6c0-0.1,0.1-0.3,0.3-0.4c0.1-0.1,0.2-0.2,0.4-0.3
				c0.2-0.1,0.3-0.1,0.5-0.1c0.4,0,0.7,0.1,0.9,0.4c0.2,0.2,0.4,0.5,0.4,0.8c0,0.2,0,0.3-0.1,0.4c-0.1,0.1-0.1,0.3-0.2,0.4
				c-0.1,0.2-0.2,0.3-0.2,0.5c-0.7,1-1.5,2.1-2.5,3.1c-1,1-2.2,1.9-3.5,2.7c-1.3,0.8-2.8,1.5-4.3,2
				C203.4,337.4,201.7,337.7,199.8,337.7z M209.9,296.7c-1.3,0-2.7,0.5-4.1,1.4s-2.8,2.2-4.2,3.7c-1.4,1.6-2.7,3.4-3.9,5.4
				c-1.2,2.1-2.2,4.2-3,6.5c2.7-0.1,5.2-0.6,7.3-1.6c2.2-1,4-2.3,5.5-3.7c1.5-1.5,2.7-3.1,3.5-4.7c0.8-1.7,1.2-3.2,1.2-4.7
				c0-0.7-0.2-1.2-0.6-1.6C211.2,296.9,210.7,296.7,209.9,296.7z"/>
			<path id="XMLID_149_" class="st6" d="M234.2,336.5c-2.3,0-4.1-0.6-5.5-1.8c-1.4-1.2-2.1-2.8-2.1-4.8c0-1.1,0.2-2.1,0.5-3.2
				c0.3-1.1,0.7-2.1,1.1-3c0.4-1,0.8-1.8,1.1-2.6c0.3-0.8,0.5-1.5,0.5-2c0-1.2-0.4-1.7-1.3-1.7c-1,0-2.1,0.4-3.2,1.3
				c-1.1,0.9-2,2.1-2.9,3.7c-0.9,1.6-1.6,3.5-2.1,5.7s-0.8,4.7-0.8,7.4c0,0.4-0.1,0.6-0.2,0.9c-0.1,0.2-0.4,0.3-0.9,0.3
				c-0.6,0-1.2-0.1-1.9-0.2c-0.7-0.1-1.3-0.3-1.9-0.6c-0.6-0.3-1.1-0.6-1.5-1c-0.4-0.4-0.6-0.9-0.6-1.5c0-1.7,0.2-3.8,0.7-6.4
				s1.1-5.3,1.9-8.2c0.8-2.9,1.8-5.8,3-8.7c1.2-2.9,2.5-5.5,3.9-7.9c1.4-2.3,3-4.2,4.7-5.7c1.7-1.5,3.5-2.2,5.3-2.2
				c0.7,0,1.3,0.2,2,0.5c0.6,0.3,1.2,0.8,1.7,1.3c0.5,0.5,0.9,1.1,1.2,1.7c0.3,0.6,0.4,1.2,0.4,1.7c0,1.2-0.4,2.7-1.2,4.3
				c-0.8,1.6-1.7,3.2-2.7,4.6c-1,1.5-1.9,2.7-2.7,3.8c-0.8,1.1-1.3,1.6-1.4,1.8c0,0,0.2-0.1,0.5-0.3c0.3-0.2,0.7-0.3,1.1-0.5
				c0.4-0.2,0.9-0.3,1.5-0.5c0.6-0.1,1.2-0.2,1.8-0.2c0.4,0,0.9,0.1,1.3,0.4c0.5,0.2,0.9,0.6,1.2,1c0.4,0.4,0.7,0.8,0.9,1.3
				s0.4,1,0.4,1.5c0,0.9-0.2,1.9-0.6,3c-0.4,1.1-0.8,2.2-1.3,3.4c-0.5,1.2-0.9,2.4-1.3,3.6c-0.4,1.2-0.6,2.4-0.6,3.6
				c0,0.7,0.2,1.2,0.5,1.6c0.3,0.4,0.8,0.6,1.4,0.6c0.8,0,1.6-0.3,2.4-0.8s1.5-1.1,2.1-1.8c0.7-0.7,1.4-1.6,2-2.6
				c0-0.1,0.1-0.3,0.3-0.4c0.1-0.1,0.2-0.2,0.4-0.3c0.2-0.1,0.3-0.1,0.5-0.1c0.3,0,0.6,0.1,0.9,0.4c0.3,0.2,0.4,0.5,0.4,0.8
				c0,0.2,0,0.3-0.1,0.4c-0.1,0.1-0.1,0.3-0.2,0.4c-0.1,0.2-0.2,0.3-0.2,0.5c-0.9,1.4-1.9,2.6-2.9,3.7c-0.9,0.9-2,1.8-3.3,2.5
				C237,336.2,235.7,336.5,234.2,336.5z M234.4,299.5c0-0.8-0.4-1.2-1.1-1.2c-0.6,0-1.2,0.5-2,1.4c-0.8,0.9-1.6,2.2-2.5,3.9
				c-0.9,1.7-1.8,3.6-2.8,5.9c-1,2.3-1.9,4.8-2.9,7.4c0.7-0.6,1.4-1.3,2.3-2.2s1.7-1.9,2.5-3c0.8-1.1,1.7-2.2,2.5-3.4
				c0.8-1.2,1.5-2.3,2.1-3.4c0.6-1.1,1.1-2.1,1.5-3.1C234.2,300.8,234.4,300.1,234.4,299.5z"/>
			<path id="XMLID_152_" class="st6" d="M271.1,329.2c-0.7,1-1.5,1.9-2.6,2.6c-0.9,0.7-2,1.3-3.3,1.8c-1.3,0.5-2.8,0.8-4.6,0.8
				c-0.7,0-1.5-0.1-2.3-0.2c-1,0.8-2,1.3-3.2,1.8c-1.2,0.4-2.4,0.6-3.7,0.6c-1.2,0-2.4-0.2-3.6-0.7c-1.1-0.4-2.1-1-3-1.8
				c-0.9-0.8-1.5-1.7-2-2.7c-0.5-1-0.7-2.1-0.7-3.3c0-2.5,0.4-4.7,1.3-6.7c0.9-1.9,2-3.6,3.3-4.9s2.9-2.3,4.5-3c1.6-0.7,3.2-1,4.8-1
				c1.2,0,2.4,0.2,3.5,0.6c1.1,0.4,2,1,2.8,1.8c0.8,0.8,1.4,1.7,1.9,2.8c0.5,1.1,0.7,2.3,0.7,3.7c0,1.6-0.3,3.3-1,5
				c-0.7,1.8-1.6,3.4-2.7,4.9c0.2,0,0.3,0.1,0.4,0.1c0.1,0,0.3,0,0.5,0c1,0,2-0.2,2.8-0.6s1.6-0.9,2.2-1.4c0.7-0.6,1.4-1.3,2-2
				c0-0.1,0.1-0.3,0.3-0.4c0.1-0.1,0.2-0.2,0.4-0.3c0.2-0.1,0.3-0.1,0.5-0.1c0.3,0,0.6,0.1,0.9,0.4c0.3,0.2,0.4,0.5,0.4,0.8
				c0,0.2,0,0.3-0.1,0.4c-0.1,0.1-0.1,0.3-0.2,0.4C271.3,328.8,271.2,329,271.1,329.2z M249.3,329.6c0,1.2,0.2,2.2,0.7,2.9
				c0.5,0.8,1.2,1.1,2.1,1.1c0.6,0,1.3-0.2,1.9-0.7c-0.7-0.4-1-0.9-1-1.4c0-0.3,0.1-0.7,0.3-1c0.2-0.4,0.5-0.7,0.8-1s0.6-0.5,1-0.7
				c0.3-0.2,0.6-0.3,0.9-0.3c0.2,0,0.4,0,0.7,0.1c0.6-1.5,1.1-3.1,1.4-4.8c0.3-1.7,0.5-3.2,0.5-4.5c0-1.4-0.2-2.3-0.7-2.9
				c-0.4-0.6-1-0.9-1.7-0.9c-0.7,0-1.4,0.3-2.2,1s-1.5,1.7-2.2,2.9c-0.7,1.3-1.3,2.7-1.7,4.4C249.5,325.7,249.3,327.6,249.3,329.6z"
				/>
			<path id="XMLID_155_" class="st6" d="M293.3,329.2c-1,1.4-2.2,2.6-3.5,3.7c-1.2,0.9-2.6,1.8-4.2,2.5c-1.7,0.8-3.6,1.1-5.7,1.1
				c-1.3,0-2.6-0.2-3.9-0.5c-1.3-0.3-2.5-0.8-3.5-1.6c-1-0.7-1.9-1.7-2.5-2.8c-0.6-1.2-1-2.6-1-4.3c0-2,0.4-3.9,1.2-5.7
				s1.9-3.4,3.2-4.8c1.3-1.4,2.7-2.4,4.3-3.2c1.6-0.8,3.2-1.2,4.7-1.2c1.1,0,2,0.2,2.9,0.5s1.5,0.8,2.1,1.3c0.6,0.6,1,1.2,1.3,1.9
				c0.3,0.7,0.5,1.4,0.5,2.1c0,0.5-0.1,1-0.3,1.6c-0.2,0.5-0.5,1-0.9,1.5c-0.4,0.4-0.7,0.8-1.2,1.1c-0.4,0.3-0.8,0.4-1.2,0.4
				c-0.8,0-1.5-0.2-2.1-0.7c-0.6-0.5-0.9-1.1-0.9-1.8c0-0.5,0.1-0.9,0.4-1.3c0.2-0.3,0.5-0.6,0.8-0.9c0.3-0.3,0.6-0.5,0.8-0.7
				c0.3-0.2,0.4-0.5,0.4-0.8s-0.2-0.6-0.5-0.9c-0.3-0.3-0.7-0.4-1.2-0.4c-0.9,0-1.7,0.3-2.5,1s-1.5,1.5-2.2,2.6
				c-0.6,1.1-1.2,2.3-1.6,3.6c-0.4,1.3-0.6,2.7-0.6,4c0,2.1,0.6,3.6,1.7,4.6c1.1,1,2.5,1.5,4.2,1.5c1.4,0,2.6-0.3,3.7-0.8
				c1.1-0.6,2.1-1.2,2.9-1.9c1-0.8,1.8-1.7,2.5-2.8c0.1-0.1,0.2-0.3,0.4-0.4c0.1-0.1,0.3-0.2,0.4-0.3c0.2-0.1,0.3-0.1,0.5-0.1
				c0.4,0,0.7,0.1,0.9,0.4c0.2,0.2,0.4,0.5,0.4,0.8c0,0.2,0,0.3-0.1,0.4c-0.1,0.1-0.2,0.3-0.2,0.4
				C293.5,328.8,293.4,329,293.3,329.2z"/>
			<path id="XMLID_157_" class="st6" d="M319.9,329.2c-0.7,1-1.5,1.9-2.6,2.6c-0.9,0.7-2,1.3-3.3,1.8c-1.3,0.5-2.8,0.8-4.6,0.8
				c-0.7,0-1.5-0.1-2.3-0.2c-1,0.8-2,1.3-3.2,1.8c-1.2,0.4-2.4,0.6-3.7,0.6c-1.2,0-2.4-0.2-3.6-0.7c-1.1-0.4-2.1-1-3-1.8
				c-0.9-0.8-1.5-1.7-2-2.7c-0.5-1-0.7-2.1-0.7-3.3c0-2.5,0.4-4.7,1.3-6.7c0.9-1.9,2-3.6,3.3-4.9s2.9-2.3,4.5-3c1.6-0.7,3.2-1,4.8-1
				c1.2,0,2.4,0.2,3.5,0.6c1.1,0.4,2,1,2.8,1.8c0.8,0.8,1.4,1.7,1.9,2.8c0.5,1.1,0.7,2.3,0.7,3.7c0,1.6-0.3,3.3-1,5
				c-0.7,1.8-1.6,3.4-2.7,4.9c0.2,0,0.3,0.1,0.4,0.1c0.1,0,0.3,0,0.5,0c1,0,2-0.2,2.8-0.6s1.6-0.9,2.2-1.4c0.7-0.6,1.4-1.3,2-2
				c0-0.1,0.1-0.3,0.3-0.4c0.1-0.1,0.2-0.2,0.4-0.3c0.2-0.1,0.3-0.1,0.5-0.1c0.3,0,0.6,0.1,0.9,0.4c0.3,0.2,0.4,0.5,0.4,0.8
				c0,0.2,0,0.3-0.1,0.4c-0.1,0.1-0.1,0.3-0.2,0.4C320.1,328.8,320,329,319.9,329.2z M298.1,329.6c0,1.2,0.2,2.2,0.7,2.9
				c0.5,0.8,1.2,1.1,2.1,1.1c0.6,0,1.3-0.2,1.9-0.7c-0.7-0.4-1-0.9-1-1.4c0-0.3,0.1-0.7,0.3-1c0.2-0.4,0.5-0.7,0.8-1s0.6-0.5,1-0.7
				c0.3-0.2,0.6-0.3,0.9-0.3c0.2,0,0.4,0,0.7,0.1c0.6-1.5,1.1-3.1,1.4-4.8c0.3-1.7,0.5-3.2,0.5-4.5c0-1.4-0.2-2.3-0.7-2.9
				c-0.4-0.6-1-0.9-1.7-0.9c-0.7,0-1.4,0.3-2.2,1s-1.5,1.7-2.2,2.9c-0.7,1.3-1.3,2.7-1.7,4.4C298.3,325.7,298.1,327.6,298.1,329.6z"
				/>
			<path id="XMLID_160_" class="st6" d="M355.2,313.3c1-0.6,2-1.3,2.8-2.2c0.7-0.8,1.3-1.7,1.9-2.8c0.6-1.1,0.9-2.4,0.9-3.9
				c0-1.4-0.3-2.6-0.9-3.6c-0.6-1-1.4-1.9-2.4-2.6c-1-0.7-2.1-1.3-3.4-1.6c-1.3-0.4-2.6-0.5-4-0.5c-2.8,0-5.2,0.4-7.4,1.1
				c-2.2,0.7-4,1.7-5.5,2.9c-1.5,1.2-2.6,2.6-3.4,4.3c-0.8,1.6-1.2,3.4-1.2,5.1c0,0.9,0.2,1.7,0.4,2.3c0.3,0.6,0.6,1.1,1,1.6
				c0.4,0.4,0.7,0.8,1,1c0.3,0.3,0.4,0.5,0.4,0.7c0,0.8-0.4,1.1-1.3,1.1c-0.8,0-1.7-0.2-2.8-0.5s-2.1-0.9-3.1-1.5
				c-1-0.7-1.8-1.5-2.5-2.4c-0.7-0.9-1-2-1-3.2c0-2.2,0.7-4.3,2.2-6.3c1.5-1.9,3.4-3.6,5.7-5c2.4-1.4,5.1-2.5,8.1-3.4
				c3.1-0.8,6.2-1.2,9.4-1.2c2.3,0,4.5,0.2,6.6,0.7c2.1,0.5,4,1.2,5.6,2.2c1.6,1,2.9,2.2,3.9,3.7c1,1.5,1.5,3.1,1.5,5.1
				c0,1.2-0.2,2.2-0.6,3.2c-0.4,1-0.9,1.9-1.6,2.7c-0.6,0.8-1.3,1.5-2,2.2c-0.7,0.6-1.4,1.1-2,1.6c-0.6,0.4-1.2,0.8-1.6,1
				s-0.7,0.4-0.8,0.4c0,0,0.4,0.2,1.1,0.6c0.7,0.4,1.5,1,2.3,1.7c0.8,0.8,1.6,1.8,2.3,3c0.7,1.2,1,2.8,1,4.5c0,2-0.4,3.7-1.3,5.1
				c-0.8,1.4-1.9,2.6-3.2,3.5c-1.3,0.9-2.8,1.6-4.4,2c-1.6,0.4-3.2,0.7-4.8,0.7c-2.7,0-5.3-0.5-7.7-1.4s-4.8-2-6.9-3.2
				c-1.4,1.5-2.8,2.7-4.4,3.4c-1.6,0.8-3.5,1.2-5.6,1.2c-1.2,0-2.4-0.2-3.6-0.5c-1.1-0.3-2.2-0.8-3.1-1.4c-0.9-0.6-1.6-1.3-2.2-2.2
				c-0.5-0.8-0.8-1.8-0.8-2.8c0-1.1,0.2-2.1,0.7-3c0.5-0.9,1.1-1.6,1.8-2.2s1.6-1.1,2.5-1.4c0.9-0.3,1.8-0.5,2.7-0.5
				c1.6,0,3.1,0.3,4.6,0.8c1.5,0.5,3,1.2,4.5,1.9l0.7-1.1c0.6-1,1.1-2.2,1.7-3.7c0.6-1.5,1.2-3,1.8-4.6c0.6-1.6,1.2-3.3,1.8-4.9
				c0.6-1.7,1.2-3.2,1.7-4.5c0.6-1.4,1.1-2.6,1.6-3.5c0.5-1,1-1.6,1.4-1.8c1.4-1,2.8-1.6,4.2-1.9s2.4-0.5,3.1-0.5
				c0.4,0,0.7,0.1,0.8,0.2c0.1,0.2,0.2,0.4,0.2,0.6s-0.4,0.8-1.2,1.7c-0.8,0.9-1.6,2.2-2.3,3.8c-0.2,0.4-0.6,1.4-1.1,3
				c-0.5,1.6-1.2,3.4-2,5.5c-0.8,2.1-1.7,4.2-2.6,6.5s-1.9,4.3-2.9,6c-0.2,0.4-0.5,0.9-0.7,1.3c-0.2,0.4-0.5,0.8-0.7,1.2
				c1.7,0.9,3.3,1.7,4.9,2.4c1.6,0.7,3.2,1,4.9,1c1.1,0,2.2-0.2,3.2-0.6c1-0.4,1.9-0.9,2.7-1.6c0.8-0.7,1.4-1.6,1.9-2.6
				c0.5-1,0.7-2.2,0.7-3.4c0-2-0.4-3.5-1.2-4.6c-0.8-1.1-1.6-1.7-2.5-1.8c-0.3,0.1-0.7,0.2-1,0.4c-0.3,0.1-0.7,0.2-1,0.2
				c-0.4,0.1-0.7,0.1-1,0.1c-0.9,0-1.6-0.2-2.2-0.7c-0.6-0.5-0.9-1.1-0.9-1.9c0-0.9,0.3-1.5,0.9-2c0.6-0.5,1.3-0.7,2.1-0.7
				c0.4,0,0.9,0,1.3,0.1c0.4,0.1,0.8,0.2,1.2,0.2C354.4,313.1,354.8,313.2,355.2,313.3z M326.1,327.2c-0.9,0-1.7,0.3-2.3,0.9
				s-0.9,1.3-0.9,2.1c0,0.8,0.3,1.4,1,1.9c0.7,0.5,1.5,0.7,2.5,0.7c1.2,0,2.3-0.3,3.2-0.9c0.9-0.6,1.8-1.6,2.7-2.8
				c-1.2-0.6-2.3-1-3.3-1.4C328,327.4,327,327.2,326.1,327.2z"/>
			<path id="XMLID_163_" class="st6" d="M388.8,334.4c1.9-1.1,3.5-2.3,4.7-3.4c1.2-1.2,2.3-2.4,3.2-3.6c0.1-0.1,0.2-0.3,0.4-0.4
				c0.1-0.1,0.3-0.2,0.4-0.3c0.2-0.1,0.3-0.1,0.5-0.1c0.4,0,0.7,0.1,0.9,0.4c0.2,0.2,0.4,0.5,0.4,0.8c0,0.2,0,0.3-0.1,0.4
				c-0.1,0.1-0.2,0.3-0.2,0.4c-0.1,0.2-0.2,0.3-0.3,0.5c-1,1.4-2.4,2.8-4.1,4.3c-1.7,1.5-3.9,2.9-6.6,4.3c-0.5,1.8-1.1,3.6-1.8,5.4
				c-0.7,1.8-1.5,3.4-2.4,4.9c-1,1.4-2.1,2.6-3.4,3.5s-2.9,1.4-4.7,1.4c-0.9,0-1.8-0.1-2.6-0.4c-0.8-0.3-1.5-0.7-2.2-1.2
				c-0.6-0.5-1.1-1.1-1.5-1.8s-0.5-1.4-0.5-2.2c0-1,0.3-1.9,0.9-2.8c0.6-0.9,1.5-1.7,2.6-2.4c1.1-0.8,2.4-1.5,4-2.2
				c1.5-0.7,3.2-1.4,5-2.1c0.3-1.1,0.6-2.2,0.8-3.2c0.2-1,0.4-1.9,0.5-2.6c-0.5,0.6-1,1.1-1.6,1.6c-0.6,0.5-1.3,1-2,1.4
				c-0.7,0.4-1.5,0.8-2.2,1c-0.8,0.3-1.5,0.4-2.3,0.4c-0.7,0-1.4-0.1-2.1-0.4c-0.7-0.3-1.4-0.7-2-1.2s-1.1-1.1-1.5-1.9
				c-0.4-0.7-0.6-1.5-0.6-2.3c0-1.1,0.2-2.4,0.5-4c0.4-1.6,0.8-3.2,1.3-4.9c0.5-1.7,1-3.2,1.5-4.7c0.5-1.5,1-2.6,1.3-3.5
				c0.2-0.3,0.4-0.6,0.7-0.8c0.3-0.2,0.6-0.3,1-0.3c0.4,0,0.9,0.1,1.5,0.4s1.1,0.6,1.6,1c0.5,0.4,0.9,0.7,1.2,1.1
				c0.3,0.4,0.5,0.7,0.5,0.9c0,0.8-0.2,1.8-0.6,2.9c-0.4,1.2-0.8,2.4-1.3,3.8c-0.5,1.4-0.9,2.8-1.3,4.2c-0.4,1.4-0.6,2.8-0.6,4.1
				c0,0.5,0.1,0.9,0.4,1.3s0.6,0.5,1,0.5c0.5,0,1-0.1,1.5-0.4c0.5-0.3,1-0.6,1.5-1s0.9-0.9,1.3-1.4c0.4-0.5,0.7-1,1-1.5
				c0.6-1,1.1-2.2,1.6-3.5c0.5-1.3,0.9-2.6,1.3-4c0.4-1.3,0.8-2.6,1.1-3.9c0.3-1.3,0.7-2.4,1-3.5c0.1-0.4,0.3-0.6,0.6-0.8
				c0.3-0.2,0.7-0.3,1.1-0.3c0.4,0,0.9,0.1,1.5,0.4c0.5,0.3,1,0.6,1.5,1c0.5,0.4,0.9,0.7,1.2,1.1c0.3,0.4,0.5,0.7,0.5,0.9
				c0,0.4-0.1,1.2-0.4,2.3s-0.5,2.4-0.9,3.9c-0.4,1.5-0.8,3.1-1.2,4.8c-0.5,1.7-0.9,3.3-1.3,4.7L388.8,334.4z M374,349.8
				c0.6,0,1.3-0.2,1.9-0.7s1.2-1.1,1.7-1.8s1-1.6,1.4-2.7c0.4-1,0.8-2.1,1.2-3.1c-1.1,0.6-2.1,1.2-2.9,1.9c-0.9,0.7-1.6,1.3-2.3,1.9
				s-1.1,1.2-1.5,1.8c-0.4,0.6-0.5,1.1-0.5,1.5C373,349.4,373.3,349.8,374,349.8z"/>
			<path id="XMLID_166_" class="st6" d="M406.5,332.5c0.8,0,1.6-0.3,2.4-0.8s1.5-1.1,2.1-1.8c0.7-0.7,1.4-1.6,2-2.6
				c0-0.1,0.1-0.3,0.3-0.4c0.1-0.1,0.2-0.2,0.4-0.3c0.2-0.1,0.3-0.1,0.5-0.1c0.3,0,0.6,0.1,0.9,0.4c0.3,0.2,0.4,0.5,0.4,0.8
				c0,0.2,0,0.3-0.1,0.4c-0.1,0.1-0.1,0.3-0.2,0.4c-0.1,0.2-0.2,0.3-0.2,0.5c-0.9,1.4-1.9,2.6-2.9,3.7c-0.9,0.9-2,1.8-3.3,2.5
				c-1.3,0.8-2.6,1.1-4.1,1.1c-1,0-1.9-0.2-2.9-0.5c-1-0.3-1.9-0.8-2.7-1.5c-0.8-0.6-1.5-1.4-2-2.3c-0.5-0.9-0.8-1.8-0.8-2.9
				c0-0.8,0.1-1.9,0.3-3.1c0.2-1.2,0.5-2.5,0.8-4c0.4-1.4,0.8-3,1.2-4.5c0.5-1.6,0.9-3.2,1.5-4.7h-1.6c-0.3,0-0.5-0.2-0.5-0.5
				c0-0.3,0.2-0.7,0.6-1.3c0.4-0.5,0.8-0.8,1.2-0.8h1.2c0.6-1.6,1.2-3.1,1.8-4.5c0.6-1.4,1.1-2.5,1.7-3.5c0.2-0.3,0.4-0.6,0.7-0.8
				c0.3-0.2,0.6-0.3,1-0.3c0.4,0,0.9,0.1,1.5,0.4c0.5,0.3,1,0.6,1.5,1c0.5,0.4,0.9,0.8,1.2,1.2c0.3,0.4,0.5,0.7,0.5,1
				c0,0.3-0.2,0.9-0.6,1.9c-0.4,1-0.8,2.2-1.4,3.7h4c0.3,0,0.5,0.2,0.5,0.5c0,0.2-0.1,0.4-0.2,0.6s-0.3,0.5-0.4,0.7
				c-0.2,0.2-0.4,0.4-0.6,0.6c-0.2,0.2-0.4,0.2-0.6,0.2h-3.7c-0.5,1.3-1,2.7-1.5,4.2s-0.9,2.9-1.3,4.4c-0.4,1.4-0.7,2.8-1,4.2
				c-0.3,1.3-0.4,2.5-0.4,3.6c0,0.9,0.3,1.7,0.9,2.2C404.9,332.2,405.7,332.5,406.5,332.5z"/>
			<path id="XMLID_168_" class="st6" d="M436.2,329.2c-0.9,1.4-2,2.6-3.3,3.7c-1.1,0.9-2.5,1.8-4.2,2.5c-1.7,0.8-3.6,1.1-5.9,1.1
				c-1.5,0-2.9-0.2-4.2-0.7c-1.3-0.4-2.4-1-3.3-1.8s-1.6-1.7-2.2-2.8c-0.5-1.1-0.8-2.3-0.8-3.5c0-2.3,0.4-4.3,1.3-6.2
				c0.8-1.9,1.9-3.5,3.2-4.8c1.3-1.3,2.7-2.4,4.2-3.1c1.5-0.7,2.9-1.1,4.2-1.1c0.9,0,1.8,0.2,2.6,0.5c0.8,0.4,1.5,0.8,2.1,1.4
				c0.6,0.6,1.1,1.2,1.4,2c0.3,0.8,0.5,1.5,0.5,2.3c0,0.7-0.2,1.6-0.5,2.6s-0.8,2-1.6,2.9c-0.7,0.9-1.7,1.7-3,2.4
				c-1.3,0.7-2.8,1-4.7,1c-0.4,0-0.9-0.1-1.4-0.2c-0.3,0-0.6-0.1-0.9-0.2c0,1.8,0.5,3.2,1.6,4.1c1,1,2.3,1.4,3.7,1.4
				c1.4,0,2.7-0.3,3.8-0.9c1.2-0.6,2.1-1.2,2.9-1.9c1-0.8,1.8-1.7,2.5-2.8c0-0.1,0.1-0.3,0.3-0.4c0.1-0.1,0.2-0.2,0.4-0.3
				s0.3-0.1,0.5-0.1c0.3,0,0.6,0.1,0.9,0.4c0.3,0.2,0.4,0.5,0.4,0.8c0,0.2,0,0.3-0.1,0.4c-0.1,0.1-0.1,0.3-0.2,0.4
				C436.4,328.8,436.3,329,436.2,329.2z M420.1,324.9c1.1,0,2.1-0.3,3.1-0.9c1-0.6,1.8-1.3,2.5-2.2c0.7-0.9,1.2-1.7,1.6-2.7
				c0.4-0.9,0.6-1.7,0.6-2.3c0-0.8-0.4-1.2-1.1-1.2c-0.8,0-1.7,0.3-2.5,1c-0.8,0.7-1.5,1.5-2.1,2.5c-0.6,1-1.1,2-1.5,3.1
				C420.3,323.2,420.1,324.1,420.1,324.9z"/>
			<path id="XMLID_171_" class="st6" d="M460.7,329.2c-1,1.5-2.3,2.8-3.9,3.9c-1.4,1-3.1,1.9-5.2,2.7c-2.1,0.8-4.7,1.2-7.8,1.2
				c-1.5,0-2.9-0.3-4.2-0.9c-1.3-0.6-2.5-1.3-3.4-2.2c-1-0.9-1.8-1.8-2.3-2.9c-0.6-1-0.9-2-0.9-2.9s0.3-1.6,0.9-2.2
				c0.6-0.6,1.3-1.1,2-1.5c0.8-0.4,1.8-0.8,2.9-1.1c0.2-0.4,0.6-0.9,1-1.5c0.3-0.5,0.7-1.2,1.3-1.9s1.1-1.7,1.8-2.8
				c1.4-2.1,2.6-3.6,3.6-4.4c1-0.8,1.9-1.2,2.6-1.2c0.3,0,0.6,0.1,1,0.3c0.3,0.2,0.7,0.4,1,0.6c0.3,0.2,0.5,0.5,0.7,0.7
				s0.3,0.4,0.3,0.6c0,0.2-0.1,0.4-0.2,0.7c-0.2,0.3-0.3,0.6-0.5,1c-0.2,0.3-0.3,0.7-0.5,1.1c-0.1,0.4-0.2,0.8-0.2,1.2
				c0,1.2,0.1,2.2,0.4,3.1c0.2,0.9,0.5,1.7,0.8,2.5c0.3,0.8,0.6,1.5,0.8,2.3c0.2,0.7,0.4,1.6,0.4,2.5c0,0.8-0.1,1.5-0.2,2
				c-0.1,0.5-0.3,1-0.5,1.4c-0.2,0.4-0.4,0.8-0.7,1.1c1.2-0.3,2.2-0.8,3.1-1.3c0.9-0.6,1.7-1.1,2.4-1.7c0.7-0.7,1.4-1.4,1.9-2.2
				c0-0.1,0.1-0.3,0.3-0.4c0.1-0.1,0.2-0.2,0.4-0.3c0.2-0.1,0.3-0.1,0.5-0.1c0.3,0,0.6,0.1,0.9,0.4c0.3,0.2,0.4,0.5,0.4,0.8
				c0,0.2,0,0.3-0.1,0.4c-0.1,0.1-0.1,0.3-0.2,0.4C460.9,328.8,460.8,329,460.7,329.2z M443.8,320c-0.8,1.3-1.6,2.4-2.2,3.5
				c-0.6,0.9-1.1,1.8-1.5,2.6c-0.5,0.8-0.7,1.3-0.7,1.5c0,0.9,0,1.7,0.1,2.5c0.1,0.8,0.3,1.5,0.5,2.2c0.2,0.6,0.5,1.1,0.9,1.5
				c0.4,0.4,0.8,0.6,1.4,0.6c0.9,0,1.7-0.5,2.4-1.5c0.7-1,1-2.2,1-3.5c0-0.8-0.1-1.6-0.3-2.4c-0.2-0.8-0.4-1.7-0.6-2.5
				c-0.2-0.8-0.4-1.6-0.6-2.4C443.9,321.2,443.8,320.6,443.8,320z"/>
		</g>
		<g>
			<path id="XMLID_118_" class="st6" d="M199.8,337.7c-1.9,0-3.7-0.3-5.6-0.9c-1.8-0.6-3.5-1.5-4.9-2.6c-1.5-1.2-2.6-2.7-3.6-4.5
				c-0.9-1.8-1.4-4-1.4-6.5c0-1.1,0.1-2.2,0.2-3.4c0.2-1.1,0.4-2.2,0.7-3.4c-1.8-0.4-3.4-1-4.8-1.7c-1.4-0.7-2.6-1.5-3.6-2.3
				c-1-0.9-1.8-1.8-2.3-2.7c-0.5-1-0.8-1.9-0.8-2.9c0-1.7,0.5-3.2,1.5-4.7c1-1.4,2.2-2.7,3.6-3.7s2.8-1.9,4.2-2.5s2.6-0.9,3.4-0.9
				c0.7,0,1,0.2,1,0.7c0,0.3-0.1,0.5-0.3,0.7c-0.2,0.2-0.5,0.4-0.8,0.7c-0.4,0.3-0.9,0.7-1.5,1.2c-0.5,0.5-1,1-1.5,1.7
				c-0.5,0.7-0.9,1.4-1.2,2.3c-0.3,0.9-0.5,2-0.5,3.2c0,1.3,0.3,2.6,1,3.9c0.7,1.3,1.9,2.3,3.8,3.1c1.1-2.7,2.6-5.3,4.3-7.7
				c1.8-2.4,3.7-4.5,5.7-6.3c2.1-1.8,4.2-3.3,6.3-4.3c2.2-1.1,4.2-1.6,6.1-1.6c1.2,0,2.3,0.3,3.4,0.8c1.1,0.6,2,1.3,2.7,2.1
				s1.4,1.7,1.8,2.7c0.4,1,0.7,1.9,0.7,2.7c0,1.6-0.6,3.3-1.7,5.1c-1.1,1.9-2.8,3.6-4.8,5.3c-2.1,1.6-4.6,3-7.6,4.1
				c-3,1.1-6.3,1.7-10,1.8c-0.5,2-0.7,4.1-0.7,6c0,3.8,0.8,6.6,2.3,8.2c1.5,1.7,3.7,2.5,6.6,2.5c1.1,0,2.2-0.2,3.2-0.5
				c1.1-0.4,2.1-0.8,3.1-1.4s2-1.3,2.8-2.1c0.9-0.8,1.7-1.7,2.3-2.6c0-0.1,0.1-0.3,0.3-0.4c0.1-0.1,0.2-0.2,0.4-0.3
				c0.2-0.1,0.3-0.1,0.5-0.1c0.4,0,0.7,0.1,0.9,0.4c0.2,0.2,0.4,0.5,0.4,0.8c0,0.2,0,0.3-0.1,0.4c-0.1,0.1-0.1,0.3-0.2,0.4
				c-0.1,0.2-0.2,0.3-0.2,0.5c-0.7,1-1.5,2.1-2.5,3.1c-1,1-2.2,1.9-3.5,2.7c-1.3,0.8-2.8,1.5-4.3,2
				C203.4,337.4,201.7,337.7,199.8,337.7z M209.9,296.7c-1.3,0-2.7,0.5-4.1,1.4s-2.8,2.2-4.2,3.7c-1.4,1.6-2.7,3.4-3.9,5.4
				c-1.2,2.1-2.2,4.2-3,6.5c2.7-0.1,5.2-0.6,7.3-1.6c2.2-1,4-2.3,5.5-3.7c1.5-1.5,2.7-3.1,3.5-4.7c0.8-1.7,1.2-3.2,1.2-4.7
				c0-0.7-0.2-1.2-0.6-1.6C211.2,296.9,210.7,296.7,209.9,296.7z"/>
			<path id="XMLID_121_" class="st6" d="M234.2,336.5c-2.3,0-4.1-0.6-5.5-1.8c-1.4-1.2-2.1-2.8-2.1-4.8c0-1.1,0.2-2.1,0.5-3.2
				c0.3-1.1,0.7-2.1,1.1-3c0.4-1,0.8-1.8,1.1-2.6c0.3-0.8,0.5-1.5,0.5-2c0-1.2-0.4-1.7-1.3-1.7c-1,0-2.1,0.4-3.2,1.3
				c-1.1,0.9-2,2.1-2.9,3.7c-0.9,1.6-1.6,3.5-2.1,5.7s-0.8,4.7-0.8,7.4c0,0.4-0.1,0.6-0.2,0.9c-0.1,0.2-0.4,0.3-0.9,0.3
				c-0.6,0-1.2-0.1-1.9-0.2c-0.7-0.1-1.3-0.3-1.9-0.6c-0.6-0.3-1.1-0.6-1.5-1c-0.4-0.4-0.6-0.9-0.6-1.5c0-1.7,0.2-3.8,0.7-6.4
				s1.1-5.3,1.9-8.2c0.8-2.9,1.8-5.8,3-8.7c1.2-2.9,2.5-5.5,3.9-7.9c1.4-2.3,3-4.2,4.7-5.7c1.7-1.5,3.5-2.2,5.3-2.2
				c0.7,0,1.3,0.2,2,0.5c0.6,0.3,1.2,0.8,1.7,1.3c0.5,0.5,0.9,1.1,1.2,1.7c0.3,0.6,0.4,1.2,0.4,1.7c0,1.2-0.4,2.7-1.2,4.3
				c-0.8,1.6-1.7,3.2-2.7,4.6c-1,1.5-1.9,2.7-2.7,3.8c-0.8,1.1-1.3,1.6-1.4,1.8c0,0,0.2-0.1,0.5-0.3c0.3-0.2,0.7-0.3,1.1-0.5
				c0.4-0.2,0.9-0.3,1.5-0.5c0.6-0.1,1.2-0.2,1.8-0.2c0.4,0,0.9,0.1,1.3,0.4c0.5,0.2,0.9,0.6,1.2,1c0.4,0.4,0.7,0.8,0.9,1.3
				s0.4,1,0.4,1.5c0,0.9-0.2,1.9-0.6,3c-0.4,1.1-0.8,2.2-1.3,3.4c-0.5,1.2-0.9,2.4-1.3,3.6c-0.4,1.2-0.6,2.4-0.6,3.6
				c0,0.7,0.2,1.2,0.5,1.6c0.3,0.4,0.8,0.6,1.4,0.6c0.8,0,1.6-0.3,2.4-0.8s1.5-1.1,2.1-1.8c0.7-0.7,1.4-1.6,2-2.6
				c0-0.1,0.1-0.3,0.3-0.4c0.1-0.1,0.2-0.2,0.4-0.3c0.2-0.1,0.3-0.1,0.5-0.1c0.3,0,0.6,0.1,0.9,0.4c0.3,0.2,0.4,0.5,0.4,0.8
				c0,0.2,0,0.3-0.1,0.4c-0.1,0.1-0.1,0.3-0.2,0.4c-0.1,0.2-0.2,0.3-0.2,0.5c-0.9,1.4-1.9,2.6-2.9,3.7c-0.9,0.9-2,1.8-3.3,2.5
				C237,336.2,235.7,336.5,234.2,336.5z M234.4,299.5c0-0.8-0.4-1.2-1.1-1.2c-0.6,0-1.2,0.5-2,1.4c-0.8,0.9-1.6,2.2-2.5,3.9
				c-0.9,1.7-1.8,3.6-2.8,5.9c-1,2.3-1.9,4.8-2.9,7.4c0.7-0.6,1.4-1.3,2.3-2.2s1.7-1.9,2.5-3c0.8-1.1,1.7-2.2,2.5-3.4
				c0.8-1.2,1.5-2.3,2.1-3.4c0.6-1.1,1.1-2.1,1.5-3.1C234.2,300.8,234.4,300.1,234.4,299.5z"/>
			<path id="XMLID_124_" class="st6" d="M271.1,329.2c-0.7,1-1.5,1.9-2.6,2.6c-0.9,0.7-2,1.3-3.3,1.8c-1.3,0.5-2.8,0.8-4.6,0.8
				c-0.7,0-1.5-0.1-2.3-0.2c-1,0.8-2,1.3-3.2,1.8c-1.2,0.4-2.4,0.6-3.7,0.6c-1.2,0-2.4-0.2-3.6-0.7c-1.1-0.4-2.1-1-3-1.8
				c-0.9-0.8-1.5-1.7-2-2.7c-0.5-1-0.7-2.1-0.7-3.3c0-2.5,0.4-4.7,1.3-6.7c0.9-1.9,2-3.6,3.3-4.9s2.9-2.3,4.5-3c1.6-0.7,3.2-1,4.8-1
				c1.2,0,2.4,0.2,3.5,0.6c1.1,0.4,2,1,2.8,1.8c0.8,0.8,1.4,1.7,1.9,2.8c0.5,1.1,0.7,2.3,0.7,3.7c0,1.6-0.3,3.3-1,5
				c-0.7,1.8-1.6,3.4-2.7,4.9c0.2,0,0.3,0.1,0.4,0.1c0.1,0,0.3,0,0.5,0c1,0,2-0.2,2.8-0.6s1.6-0.9,2.2-1.4c0.7-0.6,1.4-1.3,2-2
				c0-0.1,0.1-0.3,0.3-0.4c0.1-0.1,0.2-0.2,0.4-0.3c0.2-0.1,0.3-0.1,0.5-0.1c0.3,0,0.6,0.1,0.9,0.4c0.3,0.2,0.4,0.5,0.4,0.8
				c0,0.2,0,0.3-0.1,0.4c-0.1,0.1-0.1,0.3-0.2,0.4C271.3,328.8,271.2,329,271.1,329.2z M249.3,329.6c0,1.2,0.2,2.2,0.7,2.9
				c0.5,0.8,1.2,1.1,2.1,1.1c0.6,0,1.3-0.2,1.9-0.7c-0.7-0.4-1-0.9-1-1.4c0-0.3,0.1-0.7,0.3-1c0.2-0.4,0.5-0.7,0.8-1s0.6-0.5,1-0.7
				c0.3-0.2,0.6-0.3,0.9-0.3c0.2,0,0.4,0,0.7,0.1c0.6-1.5,1.1-3.1,1.4-4.8c0.3-1.7,0.5-3.2,0.5-4.5c0-1.4-0.2-2.3-0.7-2.9
				c-0.4-0.6-1-0.9-1.7-0.9c-0.7,0-1.4,0.3-2.2,1s-1.5,1.7-2.2,2.9c-0.7,1.3-1.3,2.7-1.7,4.4C249.5,325.7,249.3,327.6,249.3,329.6z"
				/>
			<path id="XMLID_127_" class="st6" d="M293.3,329.2c-1,1.4-2.2,2.6-3.5,3.7c-1.2,0.9-2.6,1.8-4.2,2.5c-1.7,0.8-3.6,1.1-5.7,1.1
				c-1.3,0-2.6-0.2-3.9-0.5c-1.3-0.3-2.5-0.8-3.5-1.6c-1-0.7-1.9-1.7-2.5-2.8c-0.6-1.2-1-2.6-1-4.3c0-2,0.4-3.9,1.2-5.7
				s1.9-3.4,3.2-4.8c1.3-1.4,2.7-2.4,4.3-3.2c1.6-0.8,3.2-1.2,4.7-1.2c1.1,0,2,0.2,2.9,0.5s1.5,0.8,2.1,1.3c0.6,0.6,1,1.2,1.3,1.9
				c0.3,0.7,0.5,1.4,0.5,2.1c0,0.5-0.1,1-0.3,1.6c-0.2,0.5-0.5,1-0.9,1.5c-0.4,0.4-0.7,0.8-1.2,1.1c-0.4,0.3-0.8,0.4-1.2,0.4
				c-0.8,0-1.5-0.2-2.1-0.7c-0.6-0.5-0.9-1.1-0.9-1.8c0-0.5,0.1-0.9,0.4-1.3c0.2-0.3,0.5-0.6,0.8-0.9c0.3-0.3,0.6-0.5,0.8-0.7
				c0.3-0.2,0.4-0.5,0.4-0.8s-0.2-0.6-0.5-0.9c-0.3-0.3-0.7-0.4-1.2-0.4c-0.9,0-1.7,0.3-2.5,1s-1.5,1.5-2.2,2.6
				c-0.6,1.1-1.2,2.3-1.6,3.6c-0.4,1.3-0.6,2.7-0.6,4c0,2.1,0.6,3.6,1.7,4.6c1.1,1,2.5,1.5,4.2,1.5c1.4,0,2.6-0.3,3.7-0.8
				c1.1-0.6,2.1-1.2,2.9-1.9c1-0.8,1.8-1.7,2.5-2.8c0.1-0.1,0.2-0.3,0.4-0.4c0.1-0.1,0.3-0.2,0.4-0.3c0.2-0.1,0.3-0.1,0.5-0.1
				c0.4,0,0.7,0.1,0.9,0.4c0.2,0.2,0.4,0.5,0.4,0.8c0,0.2,0,0.3-0.1,0.4c-0.1,0.1-0.2,0.3-0.2,0.4
				C293.5,328.8,293.4,329,293.3,329.2z"/>
			<path id="XMLID_129_" class="st6" d="M319.9,329.2c-0.7,1-1.5,1.9-2.6,2.6c-0.9,0.7-2,1.3-3.3,1.8c-1.3,0.5-2.8,0.8-4.6,0.8
				c-0.7,0-1.5-0.1-2.3-0.2c-1,0.8-2,1.3-3.2,1.8c-1.2,0.4-2.4,0.6-3.7,0.6c-1.2,0-2.4-0.2-3.6-0.7c-1.1-0.4-2.1-1-3-1.8
				c-0.9-0.8-1.5-1.7-2-2.7c-0.5-1-0.7-2.1-0.7-3.3c0-2.5,0.4-4.7,1.3-6.7c0.9-1.9,2-3.6,3.3-4.9s2.9-2.3,4.5-3c1.6-0.7,3.2-1,4.8-1
				c1.2,0,2.4,0.2,3.5,0.6c1.1,0.4,2,1,2.8,1.8c0.8,0.8,1.4,1.7,1.9,2.8c0.5,1.1,0.7,2.3,0.7,3.7c0,1.6-0.3,3.3-1,5
				c-0.7,1.8-1.6,3.4-2.7,4.9c0.2,0,0.3,0.1,0.4,0.1c0.1,0,0.3,0,0.5,0c1,0,2-0.2,2.8-0.6s1.6-0.9,2.2-1.4c0.7-0.6,1.4-1.3,2-2
				c0-0.1,0.1-0.3,0.3-0.4c0.1-0.1,0.2-0.2,0.4-0.3c0.2-0.1,0.3-0.1,0.5-0.1c0.3,0,0.6,0.1,0.9,0.4c0.3,0.2,0.4,0.5,0.4,0.8
				c0,0.2,0,0.3-0.1,0.4c-0.1,0.1-0.1,0.3-0.2,0.4C320.1,328.8,320,329,319.9,329.2z M298.1,329.6c0,1.2,0.2,2.2,0.7,2.9
				c0.5,0.8,1.2,1.1,2.1,1.1c0.6,0,1.3-0.2,1.9-0.7c-0.7-0.4-1-0.9-1-1.4c0-0.3,0.1-0.7,0.3-1c0.2-0.4,0.5-0.7,0.8-1s0.6-0.5,1-0.7
				c0.3-0.2,0.6-0.3,0.9-0.3c0.2,0,0.4,0,0.7,0.1c0.6-1.5,1.1-3.1,1.4-4.8c0.3-1.7,0.5-3.2,0.5-4.5c0-1.4-0.2-2.3-0.7-2.9
				c-0.4-0.6-1-0.9-1.7-0.9c-0.7,0-1.4,0.3-2.2,1s-1.5,1.7-2.2,2.9c-0.7,1.3-1.3,2.7-1.7,4.4C298.3,325.7,298.1,327.6,298.1,329.6z"
				/>
			<path id="XMLID_132_" class="st6" d="M355.2,313.3c1-0.6,2-1.3,2.8-2.2c0.7-0.8,1.3-1.7,1.9-2.8c0.6-1.1,0.9-2.4,0.9-3.9
				c0-1.4-0.3-2.6-0.9-3.6c-0.6-1-1.4-1.9-2.4-2.6c-1-0.7-2.1-1.3-3.4-1.6c-1.3-0.4-2.6-0.5-4-0.5c-2.8,0-5.2,0.4-7.4,1.1
				c-2.2,0.7-4,1.7-5.5,2.9c-1.5,1.2-2.6,2.6-3.4,4.3c-0.8,1.6-1.2,3.4-1.2,5.1c0,0.9,0.2,1.7,0.4,2.3c0.3,0.6,0.6,1.1,1,1.6
				c0.4,0.4,0.7,0.8,1,1c0.3,0.3,0.4,0.5,0.4,0.7c0,0.8-0.4,1.1-1.3,1.1c-0.8,0-1.7-0.2-2.8-0.5s-2.1-0.9-3.1-1.5
				c-1-0.7-1.8-1.5-2.5-2.4c-0.7-0.9-1-2-1-3.2c0-2.2,0.7-4.3,2.2-6.3c1.5-1.9,3.4-3.6,5.7-5c2.4-1.4,5.1-2.5,8.1-3.4
				c3.1-0.8,6.2-1.2,9.4-1.2c2.3,0,4.5,0.2,6.6,0.7c2.1,0.5,4,1.2,5.6,2.2c1.6,1,2.9,2.2,3.9,3.7c1,1.5,1.5,3.1,1.5,5.1
				c0,1.2-0.2,2.2-0.6,3.2c-0.4,1-0.9,1.9-1.6,2.7c-0.6,0.8-1.3,1.5-2,2.2c-0.7,0.6-1.4,1.1-2,1.6c-0.6,0.4-1.2,0.8-1.6,1
				s-0.7,0.4-0.8,0.4c0,0,0.4,0.2,1.1,0.6c0.7,0.4,1.5,1,2.3,1.7c0.8,0.8,1.6,1.8,2.3,3c0.7,1.2,1,2.8,1,4.5c0,2-0.4,3.7-1.3,5.1
				c-0.8,1.4-1.9,2.6-3.2,3.5c-1.3,0.9-2.8,1.6-4.4,2c-1.6,0.4-3.2,0.7-4.8,0.7c-2.7,0-5.3-0.5-7.7-1.4s-4.8-2-6.9-3.2
				c-1.4,1.5-2.8,2.7-4.4,3.4c-1.6,0.8-3.5,1.2-5.6,1.2c-1.2,0-2.4-0.2-3.6-0.5c-1.1-0.3-2.2-0.8-3.1-1.4c-0.9-0.6-1.6-1.3-2.2-2.2
				c-0.5-0.8-0.8-1.8-0.8-2.8c0-1.1,0.2-2.1,0.7-3c0.5-0.9,1.1-1.6,1.8-2.2s1.6-1.1,2.5-1.4c0.9-0.3,1.8-0.5,2.7-0.5
				c1.6,0,3.1,0.3,4.6,0.8c1.5,0.5,3,1.2,4.5,1.9l0.7-1.1c0.6-1,1.1-2.2,1.7-3.7c0.6-1.5,1.2-3,1.8-4.6c0.6-1.6,1.2-3.3,1.8-4.9
				c0.6-1.7,1.2-3.2,1.7-4.5c0.6-1.4,1.1-2.6,1.6-3.5c0.5-1,1-1.6,1.4-1.8c1.4-1,2.8-1.6,4.2-1.9s2.4-0.5,3.1-0.5
				c0.4,0,0.7,0.1,0.8,0.2c0.1,0.2,0.2,0.4,0.2,0.6s-0.4,0.8-1.2,1.7c-0.8,0.9-1.6,2.2-2.3,3.8c-0.2,0.4-0.6,1.4-1.1,3
				c-0.5,1.6-1.2,3.4-2,5.5c-0.8,2.1-1.7,4.2-2.6,6.5s-1.9,4.3-2.9,6c-0.2,0.4-0.5,0.9-0.7,1.3c-0.2,0.4-0.5,0.8-0.7,1.2
				c1.7,0.9,3.3,1.7,4.9,2.4c1.6,0.7,3.2,1,4.9,1c1.1,0,2.2-0.2,3.2-0.6c1-0.4,1.9-0.9,2.7-1.6c0.8-0.7,1.4-1.6,1.9-2.6
				c0.5-1,0.7-2.2,0.7-3.4c0-2-0.4-3.5-1.2-4.6c-0.8-1.1-1.6-1.7-2.5-1.8c-0.3,0.1-0.7,0.2-1,0.4c-0.3,0.1-0.7,0.2-1,0.2
				c-0.4,0.1-0.7,0.1-1,0.1c-0.9,0-1.6-0.2-2.2-0.7c-0.6-0.5-0.9-1.1-0.9-1.9c0-0.9,0.3-1.5,0.9-2c0.6-0.5,1.3-0.7,2.1-0.7
				c0.4,0,0.9,0,1.3,0.1c0.4,0.1,0.8,0.2,1.2,0.2C354.4,313.1,354.8,313.2,355.2,313.3z M326.1,327.2c-0.9,0-1.7,0.3-2.3,0.9
				s-0.9,1.3-0.9,2.1c0,0.8,0.3,1.4,1,1.9c0.7,0.5,1.5,0.7,2.5,0.7c1.2,0,2.3-0.3,3.2-0.9c0.9-0.6,1.8-1.6,2.7-2.8
				c-1.2-0.6-2.3-1-3.3-1.4C328,327.4,327,327.2,326.1,327.2z"/>
			<path id="XMLID_135_" class="st6" d="M388.8,334.4c1.9-1.1,3.5-2.3,4.7-3.4c1.2-1.2,2.3-2.4,3.2-3.6c0.1-0.1,0.2-0.3,0.4-0.4
				c0.1-0.1,0.3-0.2,0.4-0.3c0.2-0.1,0.3-0.1,0.5-0.1c0.4,0,0.7,0.1,0.9,0.4c0.2,0.2,0.4,0.5,0.4,0.8c0,0.2,0,0.3-0.1,0.4
				c-0.1,0.1-0.2,0.3-0.2,0.4c-0.1,0.2-0.2,0.3-0.3,0.5c-1,1.4-2.4,2.8-4.1,4.3c-1.7,1.5-3.9,2.9-6.6,4.3c-0.5,1.8-1.1,3.6-1.8,5.4
				c-0.7,1.8-1.5,3.4-2.4,4.9c-1,1.4-2.1,2.6-3.4,3.5s-2.9,1.4-4.7,1.4c-0.9,0-1.8-0.1-2.6-0.4c-0.8-0.3-1.5-0.7-2.2-1.2
				c-0.6-0.5-1.1-1.1-1.5-1.8s-0.5-1.4-0.5-2.2c0-1,0.3-1.9,0.9-2.8c0.6-0.9,1.5-1.7,2.6-2.4c1.1-0.8,2.4-1.5,4-2.2
				c1.5-0.7,3.2-1.4,5-2.1c0.3-1.1,0.6-2.2,0.8-3.2c0.2-1,0.4-1.9,0.5-2.6c-0.5,0.6-1,1.1-1.6,1.6c-0.6,0.5-1.3,1-2,1.4
				c-0.7,0.4-1.5,0.8-2.2,1c-0.8,0.3-1.5,0.4-2.3,0.4c-0.7,0-1.4-0.1-2.1-0.4c-0.7-0.3-1.4-0.7-2-1.2s-1.1-1.1-1.5-1.9
				c-0.4-0.7-0.6-1.5-0.6-2.3c0-1.1,0.2-2.4,0.5-4c0.4-1.6,0.8-3.2,1.3-4.9c0.5-1.7,1-3.2,1.5-4.7c0.5-1.5,1-2.6,1.3-3.5
				c0.2-0.3,0.4-0.6,0.7-0.8c0.3-0.2,0.6-0.3,1-0.3c0.4,0,0.9,0.1,1.5,0.4s1.1,0.6,1.6,1c0.5,0.4,0.9,0.7,1.2,1.1
				c0.3,0.4,0.5,0.7,0.5,0.9c0,0.8-0.2,1.8-0.6,2.9c-0.4,1.2-0.8,2.4-1.3,3.8c-0.5,1.4-0.9,2.8-1.3,4.2c-0.4,1.4-0.6,2.8-0.6,4.1
				c0,0.5,0.1,0.9,0.4,1.3s0.6,0.5,1,0.5c0.5,0,1-0.1,1.5-0.4c0.5-0.3,1-0.6,1.5-1s0.9-0.9,1.3-1.4c0.4-0.5,0.7-1,1-1.5
				c0.6-1,1.1-2.2,1.6-3.5c0.5-1.3,0.9-2.6,1.3-4c0.4-1.3,0.8-2.6,1.1-3.9c0.3-1.3,0.7-2.4,1-3.5c0.1-0.4,0.3-0.6,0.6-0.8
				c0.3-0.2,0.7-0.3,1.1-0.3c0.4,0,0.9,0.1,1.5,0.4c0.5,0.3,1,0.6,1.5,1c0.5,0.4,0.9,0.7,1.2,1.1c0.3,0.4,0.5,0.7,0.5,0.9
				c0,0.4-0.1,1.2-0.4,2.3s-0.5,2.4-0.9,3.9c-0.4,1.5-0.8,3.1-1.2,4.8c-0.5,1.7-0.9,3.3-1.3,4.7L388.8,334.4z M374,349.8
				c0.6,0,1.3-0.2,1.9-0.7s1.2-1.1,1.7-1.8s1-1.6,1.4-2.7c0.4-1,0.8-2.1,1.2-3.1c-1.1,0.6-2.1,1.2-2.9,1.9c-0.9,0.7-1.6,1.3-2.3,1.9
				s-1.1,1.2-1.5,1.8c-0.4,0.6-0.5,1.1-0.5,1.5C373,349.4,373.3,349.8,374,349.8z"/>
			<path id="XMLID_138_" class="st6" d="M406.5,332.5c0.8,0,1.6-0.3,2.4-0.8s1.5-1.1,2.1-1.8c0.7-0.7,1.4-1.6,2-2.6
				c0-0.1,0.1-0.3,0.3-0.4c0.1-0.1,0.2-0.2,0.4-0.3c0.2-0.1,0.3-0.1,0.5-0.1c0.3,0,0.6,0.1,0.9,0.4c0.3,0.2,0.4,0.5,0.4,0.8
				c0,0.2,0,0.3-0.1,0.4c-0.1,0.1-0.1,0.3-0.2,0.4c-0.1,0.2-0.2,0.3-0.2,0.5c-0.9,1.4-1.9,2.6-2.9,3.7c-0.9,0.9-2,1.8-3.3,2.5
				c-1.3,0.8-2.6,1.1-4.1,1.1c-1,0-1.9-0.2-2.9-0.5c-1-0.3-1.9-0.8-2.7-1.5c-0.8-0.6-1.5-1.4-2-2.3c-0.5-0.9-0.8-1.8-0.8-2.9
				c0-0.8,0.1-1.9,0.3-3.1c0.2-1.2,0.5-2.5,0.8-4c0.4-1.4,0.8-3,1.2-4.5c0.5-1.6,0.9-3.2,1.5-4.7h-1.6c-0.3,0-0.5-0.2-0.5-0.5
				c0-0.3,0.2-0.7,0.6-1.3c0.4-0.5,0.8-0.8,1.2-0.8h1.2c0.6-1.6,1.2-3.1,1.8-4.5c0.6-1.4,1.1-2.5,1.7-3.5c0.2-0.3,0.4-0.6,0.7-0.8
				c0.3-0.2,0.6-0.3,1-0.3c0.4,0,0.9,0.1,1.5,0.4c0.5,0.3,1,0.6,1.5,1c0.5,0.4,0.9,0.8,1.2,1.2c0.3,0.4,0.5,0.7,0.5,1
				c0,0.3-0.2,0.9-0.6,1.9c-0.4,1-0.8,2.2-1.4,3.7h4c0.3,0,0.5,0.2,0.5,0.5c0,0.2-0.1,0.4-0.2,0.6s-0.3,0.5-0.4,0.7
				c-0.2,0.2-0.4,0.4-0.6,0.6c-0.2,0.2-0.4,0.2-0.6,0.2h-3.7c-0.5,1.3-1,2.7-1.5,4.2s-0.9,2.9-1.3,4.4c-0.4,1.4-0.7,2.8-1,4.2
				c-0.3,1.3-0.4,2.5-0.4,3.6c0,0.9,0.3,1.7,0.9,2.2C404.9,332.2,405.7,332.5,406.5,332.5z"/>
			<path id="XMLID_140_" class="st6" d="M436.2,329.2c-0.9,1.4-2,2.6-3.3,3.7c-1.1,0.9-2.5,1.8-4.2,2.5c-1.7,0.8-3.6,1.1-5.9,1.1
				c-1.5,0-2.9-0.2-4.2-0.7c-1.3-0.4-2.4-1-3.3-1.8s-1.6-1.7-2.2-2.8c-0.5-1.1-0.8-2.3-0.8-3.5c0-2.3,0.4-4.3,1.3-6.2
				c0.8-1.9,1.9-3.5,3.2-4.8c1.3-1.3,2.7-2.4,4.2-3.1c1.5-0.7,2.9-1.1,4.2-1.1c0.9,0,1.8,0.2,2.6,0.5c0.8,0.4,1.5,0.8,2.1,1.4
				c0.6,0.6,1.1,1.2,1.4,2c0.3,0.8,0.5,1.5,0.5,2.3c0,0.7-0.2,1.6-0.5,2.6s-0.8,2-1.6,2.9c-0.7,0.9-1.7,1.7-3,2.4
				c-1.3,0.7-2.8,1-4.7,1c-0.4,0-0.9-0.1-1.4-0.2c-0.3,0-0.6-0.1-0.9-0.2c0,1.8,0.5,3.2,1.6,4.1c1,1,2.3,1.4,3.7,1.4
				c1.4,0,2.7-0.3,3.8-0.9c1.2-0.6,2.1-1.2,2.9-1.9c1-0.8,1.8-1.7,2.5-2.8c0-0.1,0.1-0.3,0.3-0.4c0.1-0.1,0.2-0.2,0.4-0.3
				s0.3-0.1,0.5-0.1c0.3,0,0.6,0.1,0.9,0.4c0.3,0.2,0.4,0.5,0.4,0.8c0,0.2,0,0.3-0.1,0.4c-0.1,0.1-0.1,0.3-0.2,0.4
				C436.4,328.8,436.3,329,436.2,329.2z M420.1,324.9c1.1,0,2.1-0.3,3.1-0.9c1-0.6,1.8-1.3,2.5-2.2c0.7-0.9,1.2-1.7,1.6-2.7
				c0.4-0.9,0.6-1.7,0.6-2.3c0-0.8-0.4-1.2-1.1-1.2c-0.8,0-1.7,0.3-2.5,1c-0.8,0.7-1.5,1.5-2.1,2.5c-0.6,1-1.1,2-1.5,3.1
				C420.3,323.2,420.1,324.1,420.1,324.9z"/>
			<path id="XMLID_143_" class="st6" d="M460.7,329.2c-1,1.5-2.3,2.8-3.9,3.9c-1.4,1-3.1,1.9-5.2,2.7c-2.1,0.8-4.7,1.2-7.8,1.2
				c-1.5,0-2.9-0.3-4.2-0.9c-1.3-0.6-2.5-1.3-3.4-2.2c-1-0.9-1.8-1.8-2.3-2.9c-0.6-1-0.9-2-0.9-2.9s0.3-1.6,0.9-2.2
				c0.6-0.6,1.3-1.1,2-1.5c0.8-0.4,1.8-0.8,2.9-1.1c0.2-0.4,0.6-0.9,1-1.5c0.3-0.5,0.7-1.2,1.3-1.9s1.1-1.7,1.8-2.8
				c1.4-2.1,2.6-3.6,3.6-4.4c1-0.8,1.9-1.2,2.6-1.2c0.3,0,0.6,0.1,1,0.3c0.3,0.2,0.7,0.4,1,0.6c0.3,0.2,0.5,0.5,0.7,0.7
				s0.3,0.4,0.3,0.6c0,0.2-0.1,0.4-0.2,0.7c-0.2,0.3-0.3,0.6-0.5,1c-0.2,0.3-0.3,0.7-0.5,1.1c-0.1,0.4-0.2,0.8-0.2,1.2
				c0,1.2,0.1,2.2,0.4,3.1c0.2,0.9,0.5,1.7,0.8,2.5c0.3,0.8,0.6,1.5,0.8,2.3c0.2,0.7,0.4,1.6,0.4,2.5c0,0.8-0.1,1.5-0.2,2
				c-0.1,0.5-0.3,1-0.5,1.4c-0.2,0.4-0.4,0.8-0.7,1.1c1.2-0.3,2.2-0.8,3.1-1.3c0.9-0.6,1.7-1.1,2.4-1.7c0.7-0.7,1.4-1.4,1.9-2.2
				c0-0.1,0.1-0.3,0.3-0.4c0.1-0.1,0.2-0.2,0.4-0.3c0.2-0.1,0.3-0.1,0.5-0.1c0.3,0,0.6,0.1,0.9,0.4c0.3,0.2,0.4,0.5,0.4,0.8
				c0,0.2,0,0.3-0.1,0.4c-0.1,0.1-0.1,0.3-0.2,0.4C460.9,328.8,460.8,329,460.7,329.2z M443.8,320c-0.8,1.3-1.6,2.4-2.2,3.5
				c-0.6,0.9-1.1,1.8-1.5,2.6c-0.5,0.8-0.7,1.3-0.7,1.5c0,0.9,0,1.7,0.1,2.5c0.1,0.8,0.3,1.5,0.5,2.2c0.2,0.6,0.5,1.1,0.9,1.5
				c0.4,0.4,0.8,0.6,1.4,0.6c0.9,0,1.7-0.5,2.4-1.5c0.7-1,1-2.2,1-3.5c0-0.8-0.1-1.6-0.3-2.4c-0.2-0.8-0.4-1.7-0.6-2.5
				c-0.2-0.8-0.4-1.6-0.6-2.4C443.9,321.2,443.8,320.6,443.8,320z"/>
		</g>
		<g id="XMLID_100_">
			<path id="XMLID_15_" class="st6" d="M199.8,337.7c-1.9,0-3.7-0.3-5.6-0.9c-1.8-0.6-3.5-1.5-4.9-2.6c-1.5-1.2-2.6-2.7-3.6-4.5
				c-0.9-1.8-1.4-4-1.4-6.5c0-1.1,0.1-2.2,0.2-3.4c0.2-1.1,0.4-2.2,0.7-3.4c-1.8-0.4-3.4-1-4.8-1.7c-1.4-0.7-2.6-1.5-3.6-2.3
				c-1-0.9-1.8-1.8-2.3-2.7c-0.5-1-0.8-1.9-0.8-2.9c0-1.7,0.5-3.2,1.5-4.7c1-1.4,2.2-2.7,3.6-3.7s2.8-1.9,4.2-2.5s2.6-0.9,3.4-0.9
				c0.7,0,1,0.2,1,0.7c0,0.3-0.1,0.5-0.3,0.7c-0.2,0.2-0.5,0.4-0.8,0.7c-0.4,0.3-0.9,0.7-1.5,1.2c-0.5,0.5-1,1-1.5,1.7
				c-0.5,0.7-0.9,1.4-1.2,2.3c-0.3,0.9-0.5,2-0.5,3.2c0,1.3,0.3,2.6,1,3.9c0.7,1.3,1.9,2.3,3.8,3.1c1.1-2.7,2.6-5.3,4.3-7.7
				c1.8-2.4,3.7-4.5,5.7-6.3c2.1-1.8,4.2-3.3,6.3-4.3c2.2-1.1,4.2-1.6,6.1-1.6c1.2,0,2.3,0.3,3.4,0.8c1.1,0.6,2,1.3,2.7,2.1
				s1.4,1.7,1.8,2.7c0.4,1,0.7,1.9,0.7,2.7c0,1.6-0.6,3.3-1.7,5.1c-1.1,1.9-2.8,3.6-4.8,5.3c-2.1,1.6-4.6,3-7.6,4.1
				c-3,1.1-6.3,1.7-10,1.8c-0.5,2-0.7,4.1-0.7,6c0,3.8,0.8,6.6,2.3,8.2c1.5,1.7,3.7,2.5,6.6,2.5c1.1,0,2.2-0.2,3.2-0.5
				c1.1-0.4,2.1-0.8,3.1-1.4s2-1.3,2.8-2.1c0.9-0.8,1.7-1.7,2.3-2.6c0-0.1,0.1-0.3,0.3-0.4c0.1-0.1,0.2-0.2,0.4-0.3
				c0.2-0.1,0.3-0.1,0.5-0.1c0.4,0,0.7,0.1,0.9,0.4c0.2,0.2,0.4,0.5,0.4,0.8c0,0.2,0,0.3-0.1,0.4c-0.1,0.1-0.1,0.3-0.2,0.4
				c-0.1,0.2-0.2,0.3-0.2,0.5c-0.7,1-1.5,2.1-2.5,3.1c-1,1-2.2,1.9-3.5,2.7c-1.3,0.8-2.8,1.5-4.3,2
				C203.4,337.4,201.7,337.7,199.8,337.7z M209.9,296.7c-1.3,0-2.7,0.5-4.1,1.4s-2.8,2.2-4.2,3.7c-1.4,1.6-2.7,3.4-3.9,5.4
				c-1.2,2.1-2.2,4.2-3,6.5c2.7-0.1,5.2-0.6,7.3-1.6c2.2-1,4-2.3,5.5-3.7c1.5-1.5,2.7-3.1,3.5-4.7c0.8-1.7,1.2-3.2,1.2-4.7
				c0-0.7-0.2-1.2-0.6-1.6C211.2,296.9,210.7,296.7,209.9,296.7z"/>
			<path id="XMLID_25_" class="st6" d="M234.2,336.5c-2.3,0-4.1-0.6-5.5-1.8c-1.4-1.2-2.1-2.8-2.1-4.8c0-1.1,0.2-2.1,0.5-3.2
				c0.3-1.1,0.7-2.1,1.1-3c0.4-1,0.8-1.8,1.1-2.6c0.3-0.8,0.5-1.5,0.5-2c0-1.2-0.4-1.7-1.3-1.7c-1,0-2.1,0.4-3.2,1.3
				c-1.1,0.9-2,2.1-2.9,3.7c-0.9,1.6-1.6,3.5-2.1,5.7s-0.8,4.7-0.8,7.4c0,0.4-0.1,0.6-0.2,0.9c-0.1,0.2-0.4,0.3-0.9,0.3
				c-0.6,0-1.2-0.1-1.9-0.2c-0.7-0.1-1.3-0.3-1.9-0.6c-0.6-0.3-1.1-0.6-1.5-1c-0.4-0.4-0.6-0.9-0.6-1.5c0-1.7,0.2-3.8,0.7-6.4
				s1.1-5.3,1.9-8.2c0.8-2.9,1.8-5.8,3-8.7c1.2-2.9,2.5-5.5,3.9-7.9c1.4-2.3,3-4.2,4.7-5.7c1.7-1.5,3.5-2.2,5.3-2.2
				c0.7,0,1.3,0.2,2,0.5c0.6,0.3,1.2,0.8,1.7,1.3c0.5,0.5,0.9,1.1,1.2,1.7c0.3,0.6,0.4,1.2,0.4,1.7c0,1.2-0.4,2.7-1.2,4.3
				c-0.8,1.6-1.7,3.2-2.7,4.6c-1,1.5-1.9,2.7-2.7,3.8c-0.8,1.1-1.3,1.6-1.4,1.8c0,0,0.2-0.1,0.5-0.3c0.3-0.2,0.7-0.3,1.1-0.5
				c0.4-0.2,0.9-0.3,1.5-0.5c0.6-0.1,1.2-0.2,1.8-0.2c0.4,0,0.9,0.1,1.3,0.4c0.5,0.2,0.9,0.6,1.2,1c0.4,0.4,0.7,0.8,0.9,1.3
				s0.4,1,0.4,1.5c0,0.9-0.2,1.9-0.6,3c-0.4,1.1-0.8,2.2-1.3,3.4c-0.5,1.2-0.9,2.4-1.3,3.6c-0.4,1.2-0.6,2.4-0.6,3.6
				c0,0.7,0.2,1.2,0.5,1.6c0.3,0.4,0.8,0.6,1.4,0.6c0.8,0,1.6-0.3,2.4-0.8s1.5-1.1,2.1-1.8c0.7-0.7,1.4-1.6,2-2.6
				c0-0.1,0.1-0.3,0.3-0.4c0.1-0.1,0.2-0.2,0.4-0.3c0.2-0.1,0.3-0.1,0.5-0.1c0.3,0,0.6,0.1,0.9,0.4c0.3,0.2,0.4,0.5,0.4,0.8
				c0,0.2,0,0.3-0.1,0.4c-0.1,0.1-0.1,0.3-0.2,0.4c-0.1,0.2-0.2,0.3-0.2,0.5c-0.9,1.4-1.9,2.6-2.9,3.7c-0.9,0.9-2,1.8-3.3,2.5
				C237,336.2,235.7,336.5,234.2,336.5z M234.4,299.5c0-0.8-0.4-1.2-1.1-1.2c-0.6,0-1.2,0.5-2,1.4c-0.8,0.9-1.6,2.2-2.5,3.9
				c-0.9,1.7-1.8,3.6-2.8,5.9c-1,2.3-1.9,4.8-2.9,7.4c0.7-0.6,1.4-1.3,2.3-2.2s1.7-1.9,2.5-3c0.8-1.1,1.7-2.2,2.5-3.4
				c0.8-1.2,1.5-2.3,2.1-3.4c0.6-1.1,1.1-2.1,1.5-3.1C234.2,300.8,234.4,300.1,234.4,299.5z"/>
			<path id="XMLID_39_" class="st6" d="M271.1,329.2c-0.7,1-1.5,1.9-2.6,2.6c-0.9,0.7-2,1.3-3.3,1.8c-1.3,0.5-2.8,0.8-4.6,0.8
				c-0.7,0-1.5-0.1-2.3-0.2c-1,0.8-2,1.3-3.2,1.8c-1.2,0.4-2.4,0.6-3.7,0.6c-1.2,0-2.4-0.2-3.6-0.7c-1.1-0.4-2.1-1-3-1.8
				c-0.9-0.8-1.5-1.7-2-2.7c-0.5-1-0.7-2.1-0.7-3.3c0-2.5,0.4-4.7,1.3-6.7c0.9-1.9,2-3.6,3.3-4.9s2.9-2.3,4.5-3c1.6-0.7,3.2-1,4.8-1
				c1.2,0,2.4,0.2,3.5,0.6c1.1,0.4,2,1,2.8,1.8c0.8,0.8,1.4,1.7,1.9,2.8c0.5,1.1,0.7,2.3,0.7,3.7c0,1.6-0.3,3.3-1,5
				c-0.7,1.8-1.6,3.4-2.7,4.9c0.2,0,0.3,0.1,0.4,0.1c0.1,0,0.3,0,0.5,0c1,0,2-0.2,2.8-0.6s1.6-0.9,2.2-1.4c0.7-0.6,1.4-1.3,2-2
				c0-0.1,0.1-0.3,0.3-0.4c0.1-0.1,0.2-0.2,0.4-0.3c0.2-0.1,0.3-0.1,0.5-0.1c0.3,0,0.6,0.1,0.9,0.4c0.3,0.2,0.4,0.5,0.4,0.8
				c0,0.2,0,0.3-0.1,0.4c-0.1,0.1-0.1,0.3-0.2,0.4C271.3,328.8,271.2,329,271.1,329.2z M249.3,329.6c0,1.2,0.2,2.2,0.7,2.9
				c0.5,0.8,1.2,1.1,2.1,1.1c0.6,0,1.3-0.2,1.9-0.7c-0.7-0.4-1-0.9-1-1.4c0-0.3,0.1-0.7,0.3-1c0.2-0.4,0.5-0.7,0.8-1s0.6-0.5,1-0.7
				c0.3-0.2,0.6-0.3,0.9-0.3c0.2,0,0.4,0,0.7,0.1c0.6-1.5,1.1-3.1,1.4-4.8c0.3-1.7,0.5-3.2,0.5-4.5c0-1.4-0.2-2.3-0.7-2.9
				c-0.4-0.6-1-0.9-1.7-0.9c-0.7,0-1.4,0.3-2.2,1s-1.5,1.7-2.2,2.9c-0.7,1.3-1.3,2.7-1.7,4.4C249.5,325.7,249.3,327.6,249.3,329.6z"
				/>
			<path id="XMLID_90_" class="st6" d="M293.3,329.2c-1,1.4-2.2,2.6-3.5,3.7c-1.2,0.9-2.6,1.8-4.2,2.5c-1.7,0.8-3.6,1.1-5.7,1.1
				c-1.3,0-2.6-0.2-3.9-0.5c-1.3-0.3-2.5-0.8-3.5-1.6c-1-0.7-1.9-1.7-2.5-2.8c-0.6-1.2-1-2.6-1-4.3c0-2,0.4-3.9,1.2-5.7
				s1.9-3.4,3.2-4.8c1.3-1.4,2.7-2.4,4.3-3.2c1.6-0.8,3.2-1.2,4.7-1.2c1.1,0,2,0.2,2.9,0.5s1.5,0.8,2.1,1.3c0.6,0.6,1,1.2,1.3,1.9
				c0.3,0.7,0.5,1.4,0.5,2.1c0,0.5-0.1,1-0.3,1.6c-0.2,0.5-0.5,1-0.9,1.5c-0.4,0.4-0.7,0.8-1.2,1.1c-0.4,0.3-0.8,0.4-1.2,0.4
				c-0.8,0-1.5-0.2-2.1-0.7c-0.6-0.5-0.9-1.1-0.9-1.8c0-0.5,0.1-0.9,0.4-1.3c0.2-0.3,0.5-0.6,0.8-0.9c0.3-0.3,0.6-0.5,0.8-0.7
				c0.3-0.2,0.4-0.5,0.4-0.8s-0.2-0.6-0.5-0.9c-0.3-0.3-0.7-0.4-1.2-0.4c-0.9,0-1.7,0.3-2.5,1s-1.5,1.5-2.2,2.6
				c-0.6,1.1-1.2,2.3-1.6,3.6c-0.4,1.3-0.6,2.7-0.6,4c0,2.1,0.6,3.6,1.7,4.6c1.1,1,2.5,1.5,4.2,1.5c1.4,0,2.6-0.3,3.7-0.8
				c1.1-0.6,2.1-1.2,2.9-1.9c1-0.8,1.8-1.7,2.5-2.8c0.1-0.1,0.2-0.3,0.4-0.4c0.1-0.1,0.3-0.2,0.4-0.3c0.2-0.1,0.3-0.1,0.5-0.1
				c0.4,0,0.7,0.1,0.9,0.4c0.2,0.2,0.4,0.5,0.4,0.8c0,0.2,0,0.3-0.1,0.4c-0.1,0.1-0.2,0.3-0.2,0.4
				C293.5,328.8,293.4,329,293.3,329.2z"/>
			<path id="XMLID_94_" class="st6" d="M319.9,329.2c-0.7,1-1.5,1.9-2.6,2.6c-0.9,0.7-2,1.3-3.3,1.8c-1.3,0.5-2.8,0.8-4.6,0.8
				c-0.7,0-1.5-0.1-2.3-0.2c-1,0.8-2,1.3-3.2,1.8c-1.2,0.4-2.4,0.6-3.7,0.6c-1.2,0-2.4-0.2-3.6-0.7c-1.1-0.4-2.1-1-3-1.8
				c-0.9-0.8-1.5-1.7-2-2.7c-0.5-1-0.7-2.1-0.7-3.3c0-2.5,0.4-4.7,1.3-6.7c0.9-1.9,2-3.6,3.3-4.9s2.9-2.3,4.5-3c1.6-0.7,3.2-1,4.8-1
				c1.2,0,2.4,0.2,3.5,0.6c1.1,0.4,2,1,2.8,1.8c0.8,0.8,1.4,1.7,1.9,2.8c0.5,1.1,0.7,2.3,0.7,3.7c0,1.6-0.3,3.3-1,5
				c-0.7,1.8-1.6,3.4-2.7,4.9c0.2,0,0.3,0.1,0.4,0.1c0.1,0,0.3,0,0.5,0c1,0,2-0.2,2.8-0.6s1.6-0.9,2.2-1.4c0.7-0.6,1.4-1.3,2-2
				c0-0.1,0.1-0.3,0.3-0.4c0.1-0.1,0.2-0.2,0.4-0.3c0.2-0.1,0.3-0.1,0.5-0.1c0.3,0,0.6,0.1,0.9,0.4c0.3,0.2,0.4,0.5,0.4,0.8
				c0,0.2,0,0.3-0.1,0.4c-0.1,0.1-0.1,0.3-0.2,0.4C320.1,328.8,320,329,319.9,329.2z M298.1,329.6c0,1.2,0.2,2.2,0.7,2.9
				c0.5,0.8,1.2,1.1,2.1,1.1c0.6,0,1.3-0.2,1.9-0.7c-0.7-0.4-1-0.9-1-1.4c0-0.3,0.1-0.7,0.3-1c0.2-0.4,0.5-0.7,0.8-1s0.6-0.5,1-0.7
				c0.3-0.2,0.6-0.3,0.9-0.3c0.2,0,0.4,0,0.7,0.1c0.6-1.5,1.1-3.1,1.4-4.8c0.3-1.7,0.5-3.2,0.5-4.5c0-1.4-0.2-2.3-0.7-2.9
				c-0.4-0.6-1-0.9-1.7-0.9c-0.7,0-1.4,0.3-2.2,1s-1.5,1.7-2.2,2.9c-0.7,1.3-1.3,2.7-1.7,4.4C298.3,325.7,298.1,327.6,298.1,329.6z"
				/>
			<path id="XMLID_103_" class="st6" d="M355.2,313.3c1-0.6,2-1.3,2.8-2.2c0.7-0.8,1.3-1.7,1.9-2.8c0.6-1.1,0.9-2.4,0.9-3.9
				c0-1.4-0.3-2.6-0.9-3.6c-0.6-1-1.4-1.9-2.4-2.6c-1-0.7-2.1-1.3-3.4-1.6c-1.3-0.4-2.6-0.5-4-0.5c-2.8,0-5.2,0.4-7.4,1.1
				c-2.2,0.7-4,1.7-5.5,2.9c-1.5,1.2-2.6,2.6-3.4,4.3c-0.8,1.6-1.2,3.4-1.2,5.1c0,0.9,0.2,1.7,0.4,2.3c0.3,0.6,0.6,1.1,1,1.6
				c0.4,0.4,0.7,0.8,1,1c0.3,0.3,0.4,0.5,0.4,0.7c0,0.8-0.4,1.1-1.3,1.1c-0.8,0-1.7-0.2-2.8-0.5s-2.1-0.9-3.1-1.5
				c-1-0.7-1.8-1.5-2.5-2.4c-0.7-0.9-1-2-1-3.2c0-2.2,0.7-4.3,2.2-6.3c1.5-1.9,3.4-3.6,5.7-5c2.4-1.4,5.1-2.5,8.1-3.4
				c3.1-0.8,6.2-1.2,9.4-1.2c2.3,0,4.5,0.2,6.6,0.7c2.1,0.5,4,1.2,5.6,2.2c1.6,1,2.9,2.2,3.9,3.7c1,1.5,1.5,3.1,1.5,5.1
				c0,1.2-0.2,2.2-0.6,3.2c-0.4,1-0.9,1.9-1.6,2.7c-0.6,0.8-1.3,1.5-2,2.2c-0.7,0.6-1.4,1.1-2,1.6c-0.6,0.4-1.2,0.8-1.6,1
				s-0.7,0.4-0.8,0.4c0,0,0.4,0.2,1.1,0.6c0.7,0.4,1.5,1,2.3,1.7c0.8,0.8,1.6,1.8,2.3,3c0.7,1.2,1,2.8,1,4.5c0,2-0.4,3.7-1.3,5.1
				c-0.8,1.4-1.9,2.6-3.2,3.5c-1.3,0.9-2.8,1.6-4.4,2c-1.6,0.4-3.2,0.7-4.8,0.7c-2.7,0-5.3-0.5-7.7-1.4s-4.8-2-6.9-3.2
				c-1.4,1.5-2.8,2.7-4.4,3.4c-1.6,0.8-3.5,1.2-5.6,1.2c-1.2,0-2.4-0.2-3.6-0.5c-1.1-0.3-2.2-0.8-3.1-1.4c-0.9-0.6-1.6-1.3-2.2-2.2
				c-0.5-0.8-0.8-1.8-0.8-2.8c0-1.1,0.2-2.1,0.7-3c0.5-0.9,1.1-1.6,1.8-2.2s1.6-1.1,2.5-1.4c0.9-0.3,1.8-0.5,2.7-0.5
				c1.6,0,3.1,0.3,4.6,0.8c1.5,0.5,3,1.2,4.5,1.9l0.7-1.1c0.6-1,1.1-2.2,1.7-3.7c0.6-1.5,1.2-3,1.8-4.6c0.6-1.6,1.2-3.3,1.8-4.9
				c0.6-1.7,1.2-3.2,1.7-4.5c0.6-1.4,1.1-2.6,1.6-3.5c0.5-1,1-1.6,1.4-1.8c1.4-1,2.8-1.6,4.2-1.9s2.4-0.5,3.1-0.5
				c0.4,0,0.7,0.1,0.8,0.2c0.1,0.2,0.2,0.4,0.2,0.6s-0.4,0.8-1.2,1.7c-0.8,0.9-1.6,2.2-2.3,3.8c-0.2,0.4-0.6,1.4-1.1,3
				c-0.5,1.6-1.2,3.4-2,5.5c-0.8,2.1-1.7,4.2-2.6,6.5s-1.9,4.3-2.9,6c-0.2,0.4-0.5,0.9-0.7,1.3c-0.2,0.4-0.5,0.8-0.7,1.2
				c1.7,0.9,3.3,1.7,4.9,2.4c1.6,0.7,3.2,1,4.9,1c1.1,0,2.2-0.2,3.2-0.6c1-0.4,1.9-0.9,2.7-1.6c0.8-0.7,1.4-1.6,1.9-2.6
				c0.5-1,0.7-2.2,0.7-3.4c0-2-0.4-3.5-1.2-4.6c-0.8-1.1-1.6-1.7-2.5-1.8c-0.3,0.1-0.7,0.2-1,0.4c-0.3,0.1-0.7,0.2-1,0.2
				c-0.4,0.1-0.7,0.1-1,0.1c-0.9,0-1.6-0.2-2.2-0.7c-0.6-0.5-0.9-1.1-0.9-1.9c0-0.9,0.3-1.5,0.9-2c0.6-0.5,1.3-0.7,2.1-0.7
				c0.4,0,0.9,0,1.3,0.1c0.4,0.1,0.8,0.2,1.2,0.2C354.4,313.1,354.8,313.2,355.2,313.3z M326.1,327.2c-0.9,0-1.7,0.3-2.3,0.9
				s-0.9,1.3-0.9,2.1c0,0.8,0.3,1.4,1,1.9c0.7,0.5,1.5,0.7,2.5,0.7c1.2,0,2.3-0.3,3.2-0.9c0.9-0.6,1.8-1.6,2.7-2.8
				c-1.2-0.6-2.3-1-3.3-1.4C328,327.4,327,327.2,326.1,327.2z"/>
			<path id="XMLID_106_" class="st6" d="M388.8,334.4c1.9-1.1,3.5-2.3,4.7-3.4c1.2-1.2,2.3-2.4,3.2-3.6c0.1-0.1,0.2-0.3,0.4-0.4
				c0.1-0.1,0.3-0.2,0.4-0.3c0.2-0.1,0.3-0.1,0.5-0.1c0.4,0,0.7,0.1,0.9,0.4c0.2,0.2,0.4,0.5,0.4,0.8c0,0.2,0,0.3-0.1,0.4
				c-0.1,0.1-0.2,0.3-0.2,0.4c-0.1,0.2-0.2,0.3-0.3,0.5c-1,1.4-2.4,2.8-4.1,4.3c-1.7,1.5-3.9,2.9-6.6,4.3c-0.5,1.8-1.1,3.6-1.8,5.4
				c-0.7,1.8-1.5,3.4-2.4,4.9c-1,1.4-2.1,2.6-3.4,3.5s-2.9,1.4-4.7,1.4c-0.9,0-1.8-0.1-2.6-0.4c-0.8-0.3-1.5-0.7-2.2-1.2
				c-0.6-0.5-1.1-1.1-1.5-1.8s-0.5-1.4-0.5-2.2c0-1,0.3-1.9,0.9-2.8c0.6-0.9,1.5-1.7,2.6-2.4c1.1-0.8,2.4-1.5,4-2.2
				c1.5-0.7,3.2-1.4,5-2.1c0.3-1.1,0.6-2.2,0.8-3.2c0.2-1,0.4-1.9,0.5-2.6c-0.5,0.6-1,1.1-1.6,1.6c-0.6,0.5-1.3,1-2,1.4
				c-0.7,0.4-1.5,0.8-2.2,1c-0.8,0.3-1.5,0.4-2.3,0.4c-0.7,0-1.4-0.1-2.1-0.4c-0.7-0.3-1.4-0.7-2-1.2s-1.1-1.1-1.5-1.9
				c-0.4-0.7-0.6-1.5-0.6-2.3c0-1.1,0.2-2.4,0.5-4c0.4-1.6,0.8-3.2,1.3-4.9c0.5-1.7,1-3.2,1.5-4.7c0.5-1.5,1-2.6,1.3-3.5
				c0.2-0.3,0.4-0.6,0.7-0.8c0.3-0.2,0.6-0.3,1-0.3c0.4,0,0.9,0.1,1.5,0.4s1.1,0.6,1.6,1c0.5,0.4,0.9,0.7,1.2,1.1
				c0.3,0.4,0.5,0.7,0.5,0.9c0,0.8-0.2,1.8-0.6,2.9c-0.4,1.2-0.8,2.4-1.3,3.8c-0.5,1.4-0.9,2.8-1.3,4.2c-0.4,1.4-0.6,2.8-0.6,4.1
				c0,0.5,0.1,0.9,0.4,1.3s0.6,0.5,1,0.5c0.5,0,1-0.1,1.5-0.4c0.5-0.3,1-0.6,1.5-1s0.9-0.9,1.3-1.4c0.4-0.5,0.7-1,1-1.5
				c0.6-1,1.1-2.2,1.6-3.5c0.5-1.3,0.9-2.6,1.3-4c0.4-1.3,0.8-2.6,1.1-3.9c0.3-1.3,0.7-2.4,1-3.5c0.1-0.4,0.3-0.6,0.6-0.8
				c0.3-0.2,0.7-0.3,1.1-0.3c0.4,0,0.9,0.1,1.5,0.4c0.5,0.3,1,0.6,1.5,1c0.5,0.4,0.9,0.7,1.2,1.1c0.3,0.4,0.5,0.7,0.5,0.9
				c0,0.4-0.1,1.2-0.4,2.3s-0.5,2.4-0.9,3.9c-0.4,1.5-0.8,3.1-1.2,4.8c-0.5,1.7-0.9,3.3-1.3,4.7L388.8,334.4z M374,349.8
				c0.6,0,1.3-0.2,1.9-0.7s1.2-1.1,1.7-1.8s1-1.6,1.4-2.7c0.4-1,0.8-2.1,1.2-3.1c-1.1,0.6-2.1,1.2-2.9,1.9c-0.9,0.7-1.6,1.3-2.3,1.9
				s-1.1,1.2-1.5,1.8c-0.4,0.6-0.5,1.1-0.5,1.5C373,349.4,373.3,349.8,374,349.8z"/>
			<path id="XMLID_109_" class="st6" d="M406.5,332.5c0.8,0,1.6-0.3,2.4-0.8s1.5-1.1,2.1-1.8c0.7-0.7,1.4-1.6,2-2.6
				c0-0.1,0.1-0.3,0.3-0.4c0.1-0.1,0.2-0.2,0.4-0.3c0.2-0.1,0.3-0.1,0.5-0.1c0.3,0,0.6,0.1,0.9,0.4c0.3,0.2,0.4,0.5,0.4,0.8
				c0,0.2,0,0.3-0.1,0.4c-0.1,0.1-0.1,0.3-0.2,0.4c-0.1,0.2-0.2,0.3-0.2,0.5c-0.9,1.4-1.9,2.6-2.9,3.7c-0.9,0.9-2,1.8-3.3,2.5
				c-1.3,0.8-2.6,1.1-4.1,1.1c-1,0-1.9-0.2-2.9-0.5c-1-0.3-1.9-0.8-2.7-1.5c-0.8-0.6-1.5-1.4-2-2.3c-0.5-0.9-0.8-1.8-0.8-2.9
				c0-0.8,0.1-1.9,0.3-3.1c0.2-1.2,0.5-2.5,0.8-4c0.4-1.4,0.8-3,1.2-4.5c0.5-1.6,0.9-3.2,1.5-4.7h-1.6c-0.3,0-0.5-0.2-0.5-0.5
				c0-0.3,0.2-0.7,0.6-1.3c0.4-0.5,0.8-0.8,1.2-0.8h1.2c0.6-1.6,1.2-3.1,1.8-4.5c0.6-1.4,1.1-2.5,1.7-3.5c0.2-0.3,0.4-0.6,0.7-0.8
				c0.3-0.2,0.6-0.3,1-0.3c0.4,0,0.9,0.1,1.5,0.4c0.5,0.3,1,0.6,1.5,1c0.5,0.4,0.9,0.8,1.2,1.2c0.3,0.4,0.5,0.7,0.5,1
				c0,0.3-0.2,0.9-0.6,1.9c-0.4,1-0.8,2.2-1.4,3.7h4c0.3,0,0.5,0.2,0.5,0.5c0,0.2-0.1,0.4-0.2,0.6s-0.3,0.5-0.4,0.7
				c-0.2,0.2-0.4,0.4-0.6,0.6c-0.2,0.2-0.4,0.2-0.6,0.2h-3.7c-0.5,1.3-1,2.7-1.5,4.2s-0.9,2.9-1.3,4.4c-0.4,1.4-0.7,2.8-1,4.2
				c-0.3,1.3-0.4,2.5-0.4,3.6c0,0.9,0.3,1.7,0.9,2.2C404.9,332.2,405.7,332.5,406.5,332.5z"/>
			<path id="XMLID_111_" class="st6" d="M436.2,329.2c-0.9,1.4-2,2.6-3.3,3.7c-1.1,0.9-2.5,1.8-4.2,2.5c-1.7,0.8-3.6,1.1-5.9,1.1
				c-1.5,0-2.9-0.2-4.2-0.7c-1.3-0.4-2.4-1-3.3-1.8s-1.6-1.7-2.2-2.8c-0.5-1.1-0.8-2.3-0.8-3.5c0-2.3,0.4-4.3,1.3-6.2
				c0.8-1.9,1.9-3.5,3.2-4.8c1.3-1.3,2.7-2.4,4.2-3.1c1.5-0.7,2.9-1.1,4.2-1.1c0.9,0,1.8,0.2,2.6,0.5c0.8,0.4,1.5,0.8,2.1,1.4
				c0.6,0.6,1.1,1.2,1.4,2c0.3,0.8,0.5,1.5,0.5,2.3c0,0.7-0.2,1.6-0.5,2.6s-0.8,2-1.6,2.9c-0.7,0.9-1.7,1.7-3,2.4
				c-1.3,0.7-2.8,1-4.7,1c-0.4,0-0.9-0.1-1.4-0.2c-0.3,0-0.6-0.1-0.9-0.2c0,1.8,0.5,3.2,1.6,4.1c1,1,2.3,1.4,3.7,1.4
				c1.4,0,2.7-0.3,3.8-0.9c1.2-0.6,2.1-1.2,2.9-1.9c1-0.8,1.8-1.7,2.5-2.8c0-0.1,0.1-0.3,0.3-0.4c0.1-0.1,0.2-0.2,0.4-0.3
				s0.3-0.1,0.5-0.1c0.3,0,0.6,0.1,0.9,0.4c0.3,0.2,0.4,0.5,0.4,0.8c0,0.2,0,0.3-0.1,0.4c-0.1,0.1-0.1,0.3-0.2,0.4
				C436.4,328.8,436.3,329,436.2,329.2z M420.1,324.9c1.1,0,2.1-0.3,3.1-0.9c1-0.6,1.8-1.3,2.5-2.2c0.7-0.9,1.2-1.7,1.6-2.7
				c0.4-0.9,0.6-1.7,0.6-2.3c0-0.8-0.4-1.2-1.1-1.2c-0.8,0-1.7,0.3-2.5,1c-0.8,0.7-1.5,1.5-2.1,2.5c-0.6,1-1.1,2-1.5,3.1
				C420.3,323.2,420.1,324.1,420.1,324.9z"/>
			<path id="XMLID_114_" class="st6" d="M460.7,329.2c-1,1.5-2.3,2.8-3.9,3.9c-1.4,1-3.1,1.9-5.2,2.7c-2.1,0.8-4.7,1.2-7.8,1.2
				c-1.5,0-2.9-0.3-4.2-0.9c-1.3-0.6-2.5-1.3-3.4-2.2c-1-0.9-1.8-1.8-2.3-2.9c-0.6-1-0.9-2-0.9-2.9s0.3-1.6,0.9-2.2
				c0.6-0.6,1.3-1.1,2-1.5c0.8-0.4,1.8-0.8,2.9-1.1c0.2-0.4,0.6-0.9,1-1.5c0.3-0.5,0.7-1.2,1.3-1.9s1.1-1.7,1.8-2.8
				c1.4-2.1,2.6-3.6,3.6-4.4c1-0.8,1.9-1.2,2.6-1.2c0.3,0,0.6,0.1,1,0.3c0.3,0.2,0.7,0.4,1,0.6c0.3,0.2,0.5,0.5,0.7,0.7
				s0.3,0.4,0.3,0.6c0,0.2-0.1,0.4-0.2,0.7c-0.2,0.3-0.3,0.6-0.5,1c-0.2,0.3-0.3,0.7-0.5,1.1c-0.1,0.4-0.2,0.8-0.2,1.2
				c0,1.2,0.1,2.2,0.4,3.1c0.2,0.9,0.5,1.7,0.8,2.5c0.3,0.8,0.6,1.5,0.8,2.3c0.2,0.7,0.4,1.6,0.4,2.5c0,0.8-0.1,1.5-0.2,2
				c-0.1,0.5-0.3,1-0.5,1.4c-0.2,0.4-0.4,0.8-0.7,1.1c1.2-0.3,2.2-0.8,3.1-1.3c0.9-0.6,1.7-1.1,2.4-1.7c0.7-0.7,1.4-1.4,1.9-2.2
				c0-0.1,0.1-0.3,0.3-0.4c0.1-0.1,0.2-0.2,0.4-0.3c0.2-0.1,0.3-0.1,0.5-0.1c0.3,0,0.6,0.1,0.9,0.4c0.3,0.2,0.4,0.5,0.4,0.8
				c0,0.2,0,0.3-0.1,0.4c-0.1,0.1-0.1,0.3-0.2,0.4C460.9,328.8,460.8,329,460.7,329.2z M443.8,320c-0.8,1.3-1.6,2.4-2.2,3.5
				c-0.6,0.9-1.1,1.8-1.5,2.6c-0.5,0.8-0.7,1.3-0.7,1.5c0,0.9,0,1.7,0.1,2.5c0.1,0.8,0.3,1.5,0.5,2.2c0.2,0.6,0.5,1.1,0.9,1.5
				c0.4,0.4,0.8,0.6,1.4,0.6c0.9,0,1.7-0.5,2.4-1.5c0.7-1,1-2.2,1-3.5c0-0.8-0.1-1.6-0.3-2.4c-0.2-0.8-0.4-1.7-0.6-2.5
				c-0.2-0.8-0.4-1.6-0.6-2.4C443.9,321.2,443.8,320.6,443.8,320z"/>
		</g>
	</g>
	<path id="XMLID_870_" class="st1" d="M280.3,240.6"/>
	<polygon id="XMLID_925_" class="st1" points="280.3,243.6 280.4,240.7 279.3,243.4 	"/>
</g>
</svg>
