<?xml version="1.0" encoding="utf-8"?>
<!-- Generator: Adobe Illustrator 19.0.0, SVG Export Plug-In . SVG Version: 6.00 Build 0)  -->
<svg version="1.1" id="Layer_1" xmlns="http://www.w3.org/2000/svg" xmlns:xlink="http://www.w3.org/1999/xlink" x="0px" y="0px"
	 viewBox="-429.3 261.5 41.1 38.3" style="enable-background:new -429.3 261.5 41.1 38.3;" xml:space="preserve">
<style type="text/css">
	.st0{fill:#A74C2A;}
	.st1{fill:#FFF3D3;}
</style>
<rect id="XMLID_1378_" x="-429.3" y="261.5" class="st0" width="41.1" height="38.3"/>
<g id="XMLID_1375_">
	<path id="XMLID_1377_" class="st1" d="M-402.9,273.2c-2-3.6-6.7-4.9-10.3-2.9l1,1.9c2.6-1.5,5.9-0.5,7.4,2.1s0.5,5.9-2.1,7.4
		l5.6,10c0.8-0.4,1-1.4,0.6-2.2l-3.8-6.8l-0.1-0.1C-401.9,280.3-401.1,276.4-402.9,273.2z"/>
	<path id="XMLID_1376_" class="st1" d="M-406.8,281.7c-2.6,1.5-5.9,0.5-7.4-2.1s-0.5-5.9,2.1-7.4l0,0l-1-1.9l0,0
		c-3.6,2-4.9,6.7-2.9,10.3c1.8,3.2,5.5,4.6,8.8,3.5c0,0.1,0,0.1,0.1,0.2l3.8,6.8c0.4,0.8,1.4,1,2.2,0.6l0,0L-406.8,281.7
		L-406.8,281.7z"/>
</g>
</svg>
