<?xml version="1.0" encoding="utf-8"?>
<!-- Generator: Adobe Illustrator 19.0.0, SVG Export Plug-In . SVG Version: 6.00 Build 0)  -->
<svg version="1.1" id="Layer_1" xmlns="http://www.w3.org/2000/svg" xmlns:xlink="http://www.w3.org/1999/xlink" x="0px" y="0px"
	 viewBox="-336 145.4 287 271.6" style="enable-background:new -336 145.4 287 271.6;" xml:space="preserve">
<style type="text/css">
	.st0{fill:#FCBE56;}
	.st1{fill:#763B19;}
	.st2{fill:#F0785D;}
	.st3{fill:#EE634C;}
	.st4{fill:#EEA63D;}
	.st5{fill:#FFD372;}
	.st6{fill:#F28C68;}
	.st7{fill:#663110;}
	.st8{fill:#8C4723;}
	.st9{fill:#B06521;}
</style>
<g id="XMLID_817_">
	<path id="XMLID_1124_" class="st0" d="M-77.5,262c-3.2-20.3-8.4-43.1-22.6-59.9c-4.5,6.8-11.9,11.1-19.1,11.1
		c-6.5,0-11.6-3.7-14-10.2c-0.5-1.3-0.8-2.7-1.1-4.3c-1-5.9,0.8-12.1,4.9-17.3c-6-2.5-12.5-4.5-19.4-5.9c-10.2-2.1-20.6-3-31-3.3
		c0.6,1.3,1,2.6,1.2,4c1,6.4-2,12.6-5.1,17.8c-3.4,5.8-8.3,12.7-15.7,15.3c-1.5,0.5-3,0.8-4.5,0.8l0,0c-1.4,0-2.7-0.3-3.8-0.8
		c-1.6-0.7-2.8-1.9-3.9-3c-5.7-5.6-9.1-10.7-10.9-16.1c-2.1-6.3-1.5-12.9,1.5-17.8c-10.6,0.7-20.4,2.5-29.4,6.8
		c-8.2,4-15.3,9.9-21.8,15.6c-8.7,7.6-17.6,16.1-25.1,25.6c1.6-0.2,3.4-0.3,5.2-0.3c0.2,0,0.4,0,0.6,0c5,0.1,8.6,1,11.4,2.9
		c7,4.8,7.5,14.6,7.1,22.6c-0.1,1.1-0.1,2.4-0.7,3.7c-0.7,1.6-1.9,2.7-3,3.7l-6.6,6c-2,1.8-4.4,4-7.5,4.7c-0.7,0.2-1.5,0.3-2.3,0.3
		c-3.4,0-7.1-1.8-10-4.8c-1.9-2-3.4-4.3-4.9-6.6c-0.8-1.2-1.6-2.4-2.4-3.6c-0.3-0.4-0.7-0.9-1-1.3c-0.3-0.4-0.6-0.8-0.9-1.2
		c-1.1,3-2,6.2-2.7,9.4c-1.6,7.9-1.8,15.9-1,23.8c2.2-0.8,4.6-1.3,6.9-1.3c3.9,0,7.1,1.3,9.1,3.7c2.3,2.7,3,6.6,2.1,11.5
		c-0.6,3.4-2,6.2-4.1,8.1c-2.2,2-5.1,3.1-8.5,3.1c2.3,7.4,5.1,14.6,7.8,21.5c7.1,17.8,15.2,36.4,29.3,50c6.3,6,14,11.3,23.1,15.8
		c17,8.3,36.1,12.5,56.7,12.5c7.7,0,15.6-0.6,23.4-1.8c-3.3-0.5-6.4-1.6-9.1-3.3c-3-1.9-5.4-4.3-6.8-7.1c-3.1-6-2.4-14,2-23.2
		c1.5-3.1,3.5-6.6,6.7-8.9c3-2.2,6.8-3.2,12-3.2c2.2,0,4.4,0.2,6.2,0.3c4.2,0.4,8.9,0.8,13,3.1c6.6,3.8,10.1,12.3,8.5,20.7
		c-1.3,6.9-5.7,13-11.9,17c6.7-1.9,13.3-4.3,19.8-7c9.8-4.2,17.4-8.5,23.7-13.4c-3.2-1.3-5.9-4-6.9-7.3c-1.9-6.4,1.5-12.7,5.2-16.4
		c2.9-2.9,6.3-4.5,9.5-4.5c0.9,0,1.8,0.1,2.7,0.4c3.8,1.2,6,4.9,6.5,8.5c6.2-10.1,10.7-22.1,12.9-35.2
		C-72.2,301.4-74.8,279-77.5,262z M-169.3,210.3c1.6-4.9,6-8.5,10.7-8.8c0.2,0,0.5,0,0.7,0c4.6,0,8.1,2.8,9.1,7.3
		c1,4.1-0.3,9.7-5.4,12.2c-1.5,0.8-3.2,1.2-5,1.2l0,0c-3,0-5.8-1.1-7.9-2.9C-169.6,216.9-170.4,213.7-169.3,210.3z M-210.7,269.7
		c0.3,0.6,0.1,1.4-0.5,1.7c-0.6,0.3-1.4,0.1-1.7-0.5c-3.2-5.7-9.5-9.5-16.1-9.7c-7-0.3-14.1,3.8-17.5,10.1c-0.2,0.4-0.7,0.7-1.1,0.7
		c-0.2,0-0.4,0-0.6-0.2c-0.6-0.3-0.8-1.1-0.5-1.7c3.9-7.2,11.7-11.7,19.8-11.4C-221.4,258.9-214.3,263.2-210.7,269.7z M-271.2,339.6
		c-2.6,1.6-5.9,2.3-9.9,2.3l0,0c-1,0-2,0-3.1-0.1c-2.8-0.2-6-0.7-8.6-2.7c-3-2.3-4.8-6.5-4.5-11c0.4-7.4,3.4-17.2,10.5-20.4
		c1.8-0.9,3.8-1.3,5.8-1.3c8.9,0,15.7,8.7,17,16.7C-263,329.7-266,336.5-271.2,339.6z M-260.1,200.9c2.8-3.2,7-5,11.6-5
		c3.7,0,7.1,1.2,9.7,3.4c6.1,5.2,6.9,15.1,1.8,21.3c-1.3,1.5-2.6,2.4-4,2.7c-0.3,0.1-0.7,0.1-1,0.1l0,0c-1.3,0-2.6-0.5-3.7-0.9
		c-2.7-1.1-5.5-2.4-8.1-3.7c-6.2-3.3-9.2-7.1-9.1-11.4C-262.8,204.6-261.4,202.3-260.1,200.9z M-250.2,369.9c-1.7,2-3.6,3-5.4,3l0,0
		c-2.6,0-4.7-2.1-6.2-6.3c-1.1-2.9-0.8-5.7,0.9-8c3-4.2,9.3-5.8,12.7-5.8c2.6,0,3.3,1,3.4,1.8C-244.2,358.9-246.7,365.9-250.2,369.9
		z M-202.1,387.6c-1.6,5.1-6.8,8.8-12.3,8.8l0,0c-0.7,0-1.4-0.1-2.1-0.2c-6.1-1.1-10.7-7-10.4-13.2c0.2-3.2,1.6-6.4,3.9-8.6
		c1-0.9,2.1-1.7,3.3-2.3c3.3-1.6,7.5-1.6,10.9,0C-203.2,374.9-200.3,381.8-202.1,387.6z M-158.4,311.9
		c-2.3,12.2-14.8,24.8-37.4,25.3c-0.5,0-1.1,0-1.6,0c-20.7,0-27.5-10.8-29.7-17.3c-3-8.7-0.7-18.1,3.2-21.1
		c3.6-2.8,14.6-3.4,23.1-3.4c15.6,0,33.2,1.9,38.4,4.2C-158.8,301.2-157.3,306-158.4,311.9z M-137,271.4c-0.6,0.3-1.4,0.1-1.7-0.5
		c-3.2-5.7-9.5-9.5-16.1-9.7c-7-0.2-14.1,3.8-17.5,10.1c-0.2,0.4-0.7,0.7-1.1,0.7c-0.2,0-0.4,0-0.6-0.2c-0.6-0.3-0.8-1.1-0.5-1.7
		c3.9-7.2,11.7-11.7,19.8-11.4c7.4,0.2,14.5,4.6,18.2,11C-136.2,270.3-136.4,271-137,271.4z M-109.7,235.7l8.9-1.6
		c0.7-0.1,1.3-0.2,2-0.2c0.6,0,1.2,0.1,1.8,0.3c2,0.8,2.9,2.9,3.4,4.2c2,4.9,3.9,10.6,1.5,15.5c-2,4.1-8.6,6-14.3,6l0,0
		c-7.8,0-12.9-3.1-12.9-8c0-0.6,0-1.3,0-1.9C-119.5,242.8-119.6,237.5-109.7,235.7z M-84.6,305.6c-1.6,7-5.7,13.1-11.2,16.6
		c-2.6,1.6-4.9,2.4-7.1,2.4l0,0c-0.2,0-0.3,0-0.5,0c-4.2-0.2-7.6-3.3-10.5-6.6c-2.1-2.3-4.1-4.7-5.2-7.6c-1.2-2.9-1.4-6.1-1.5-8.8
		c-0.2-6.2,0.6-10.9,2.5-14.8c2.4-5.2,7-8.8,11.8-9.5c0.6-0.1,1.2-0.1,1.9-0.1c6.3,0,11.8,4.3,16.6,8.4c0.1,0.1,0.2,0.2,0.2,0.3
		C-84.1,291.4-83,298.6-84.6,305.6z"/>
	<path id="XMLID_1120_" class="st1" d="M-309.4,246.1c0.3,0.5,0.7,0.9,1,1.4c0.9,1.2,1.7,2.5,2.5,3.7c1.5,2.3,2.8,4.4,4.6,6.2
		c2.4,2.5,5.5,4.1,8.2,4.1c0.6,0,1.1-0.1,1.7-0.2c2.4-0.6,4.5-2.5,6.4-4.1l6.6-6c0.9-0.8,1.9-1.7,2.3-2.8c0.4-0.8,0.4-1.9,0.5-2.8
		c0.4-7.3,0-16.3-6-20.4c-2.4-1.6-5.5-2.4-10-2.5c-0.2,0-0.4,0-0.6,0c-6.5,0-11.7,1.5-15.5,4.4c-4.6,3.6-6.6,9.7-4.7,14.3
		C-311.7,243.1-310.6,244.5-309.4,246.1z"/>
	<path id="XMLID_1117_" class="st1" d="M-218,172.5c-3.3,4.3-4.1,10.8-2.1,17c1.7,5,4.9,9.7,10.3,15.1c1,1,2,1.9,3.2,2.5
		c0.8,0.4,1.7,0.6,2.8,0.6l0,0c1.1,0,2.4-0.2,3.6-0.7c6.7-2.3,11.2-8.8,14.4-14.2c2.9-4.8,5.7-10.5,4.8-16.1
		c-0.8-5.3-5.1-10-10.6-11.8c-1.6-0.5-3.4-0.8-5.2-0.8c-3.8,0-7.8,1.2-11.1,3.3c-0.2,0.1-0.5,0.3-0.7,0.4c-1,0.7-2.1,1.3-3.3,1.7
		c-0.6,0.2-1.2,0.3-1.7,0.4c-0.6,0.1-1.2,0.2-1.6,0.4C-216.3,170.6-217.1,171.3-218,172.5z"/>
	<path id="XMLID_1074_" class="st1" d="M-252.7,216.5c2.5,1.3,5.2,2.6,7.8,3.6c0.9,0.4,1.9,0.7,2.8,0.7c0.2,0,0.4,0,0.6-0.1
		c0.8-0.2,1.7-0.8,2.6-1.8c4.2-5,3.5-13.5-1.5-17.8c-2.1-1.8-5-2.8-8.1-2.8c-3.8,0-7.4,1.5-9.7,4.1c-1.4,1.6-2.1,3.3-2.2,4.9
		C-260.5,210.7-257.9,213.8-252.7,216.5z"/>
	<path id="XMLID_1069_" class="st1" d="M-310.5,302.3L-310.5,302.3c2,0,4.8-0.4,7-2.4c2.1-1.9,3-4.7,3.3-6.7
		c0.8-4.1,0.2-7.3-1.5-9.4c-2-2.3-5-2.8-7.2-2.8c-5.9,0-12.1,3.4-14.1,7.8c-1.4,3.1-0.6,6.4,2.2,9.7c0.9,1,2.1,1.8,3.9,2.6
		C-314.8,301.8-312.6,302.3-310.5,302.3z"/>
	<path id="XMLID_1062_" class="st1" d="M-266.5,323.5c-1.1-7-6.9-14.6-14.5-14.6c-1.6,0-3.3,0.4-4.8,1.1c-6.1,2.7-8.6,11.5-9,18.2
		c-0.2,3.7,1.2,7.1,3.5,8.9c2.1,1.6,4.9,2,7.3,2.2c1,0.1,2,0.1,2.9,0.1l0,0c3.6,0,6.4-0.6,8.6-2
		C-268.1,334.8-265.6,329.1-266.5,323.5z"/>
	<path id="XMLID_1056_" class="st1" d="M-247.2,355.4c-0.2,0-0.5-0.1-1-0.1c-2.9,0-8.4,1.5-10.6,4.7c-1.2,1.6-1.3,3.5-0.6,5.7
		c0.6,1.7,2,4.7,3.9,4.7c1,0,2.2-0.8,3.5-2.2C-249.2,364.9-247,359-247.2,355.4z"/>
	<path id="XMLID_1053_" class="st1" d="M-147.2,362.6c-3.6-2-8-2.4-11.9-2.8c-1.8-0.2-3.9-0.3-6-0.3c-4.6,0-8,0.9-10.6,2.7
		c-2.7,2-4.5,5.1-5.9,8c-2.9,5.9-5.6,14.3-2.1,20.9c1.3,2.4,3.3,4.5,5.9,6.2c3.4,2.1,7.6,3.3,12.1,3.3l0,0c2.2,0,4.3-0.3,6.4-0.8
		c9.7-2.4,17.6-10.2,19.3-19.1C-138.6,373.4-141.6,365.8-147.2,362.6z"/>
	<path id="XMLID_1050_" class="st1" d="M-104.5,279.6c-0.5,0-1,0-1.5,0.1c-4,0.6-7.8,3.7-9.9,8.1c-1.7,3.5-2.4,7.9-2.2,13.7
		c0.1,2.5,0.3,5.4,1.3,7.9s2.9,4.7,4.8,6.8c2.4,2.7,5.3,5.6,8.8,5.8c1.9,0.1,3.9-0.5,6.2-2c5-3.2,8.7-8.6,10.1-15
		c1.4-6.3,0.4-12.8-2.7-17.7C-94.1,283.6-99.1,279.6-104.5,279.6z"/>
	<path id="XMLID_1047_" class="st1" d="M-126.9,182.5c-4,4.7-5.7,10.4-4.8,15.8c0.2,1.4,0.6,2.7,1,3.8c2,5.5,6.1,8.5,11.6,8.5
		c6.3,0,13.2-4.1,17.1-10.1c2.7-4.1,4-8.3,4-12.3c-0.1-4.5-2.2-8.6-5.5-10.8c-2.2-1.5-5.1-2.2-8.8-2.2h-0.2
		C-117.8,175.2-123,177.9-126.9,182.5z"/>
	<path id="XMLID_1044_" class="st1" d="M-159.2,219.7c1.4,0,2.7-0.3,3.9-0.9c3.9-2,4.9-6.3,4.1-9.4c-0.8-3.4-3.3-5.4-6.7-5.4
		c-0.2,0-0.4,0-0.5,0c-3.7,0.2-7.2,3.1-8.5,7.1c-0.8,2.4-0.2,4.7,1.6,6.3C-163.8,218.8-161.5,219.7-159.2,219.7z"/>
	<path id="XMLID_1040_" class="st1" d="M-116.8,250c0,0.6,0,1.2,0,1.9c0,3.8,5.3,5.5,10.4,5.5l0,0c5.7,0,10.7-1.9,12-4.6
		c1.9-4,0.3-8.8-1.6-13.5c-0.5-1.2-1-2.4-2-2.8c-0.2-0.1-0.5-0.1-0.8-0.1c-0.5,0-1,0.1-1.5,0.2l-8.9,1.6
		C-117,239.6-116.9,242.9-116.8,250z"/>
	<path id="XMLID_1037_" class="st1" d="M-91.2,360.7c0.1-3.2-1.6-7.2-5-8.3c-0.6-0.2-1.3-0.3-1.9-0.3c-2.5,0-5.3,1.4-7.7,3.8
		c-4.1,4.1-5.9,9.5-4.6,13.9c1,3.5,4.7,6.3,8.3,6.3l0,0c1.1,0,2.1-0.3,3-0.8c1.7-1,2.9-2.7,3.9-4.2
		C-93.4,368.3-91.3,364.6-91.2,360.7z"/>
	<path id="XMLID_1034_" class="st1" d="M-209.9,374.5c-1.3-0.6-2.8-1-4.4-1c-1.5,0-3,0.3-4.4,1c-1,0.5-1.9,1.1-2.7,1.8
		c-1.9,1.8-3,4.3-3.2,6.9c-0.2,4.9,3.6,9.7,8.4,10.6c0.5,0.1,1.1,0.1,1.6,0.1l0,0c4.4,0,8.6-3,9.9-7.1
		C-203,382.2-205.5,376.6-209.9,374.5z"/>
	<path id="XMLID_1031_" class="st2" d="M-163.3,301.9c-4.9-2.1-22.4-4-37.4-4c-11.4,0-19.2,1-21.6,2.9c-2.9,2.2-5.1,10.2-2.4,18.3
		c2,5.8,8.2,15.6,27.3,15.6c0.5,0,1,0,1.5,0c24.2-0.6,33.4-14.9,35-23.3C-160,306.8-161,302.9-163.3,301.9z"/>
	<path id="XMLID_1030_" class="st3" d="M-163.3,301.9c-4.9-2.1-22.4-4-37.4-4c-11.4,0-19.2,1-21.6,2.9c-2.8,2.1-5,9.8-2.6,17.6
		c15.8-12.3,38.2-16.4,56.9-9c2.3,0.9,4.6,2,6.9,2.9c0.1-0.3,0.1-0.6,0.2-0.9C-160,306.8-161,302.9-163.3,301.9z"/>
	<g id="XMLID_1024_">
		<path id="XMLID_1029_" class="st4" d="M-75.9,323.3c0.3-2,0.6-4.1,0.9-6.1c-8.9,8.1-18.1,15.9-27.7,23.2c-2.5,1.9-5,3.8-7.9,4.9
			c-3.4,1.3-7.1,1.6-10.5,3c-4,1.6-7.2,4.8-10.6,7.4c-3.5,2.7-7.4,5-11.4,6.7c4.8,4.3,7.1,11.5,5.7,18.7c-1.3,6.9-5.7,13-11.9,17
			c6.7-1.9,13.3-4.3,19.8-7c9.8-4.2,17.4-8.5,23.7-13.4c-3.2-1.3-5.9-4-6.9-7.3c-1.9-6.4,1.5-12.7,5.2-16.4c2.9-2.9,6.3-4.5,9.5-4.5
			c0.9,0,1.8,0.1,2.7,0.4c3.8,1.2,6,4.9,6.5,8.5C-82.6,348.4-78.1,336.4-75.9,323.3z"/>
		<path id="XMLID_1025_" class="st4" d="M-170,402.7c-3.3-0.5-6.4-1.6-9.1-3.3c-3-1.9-5.4-4.3-6.8-7.1c-3.1-6-2.4-14,2-23.2
			c0.7-1.5,1.5-3,2.6-4.5c-0.1,0-0.2-0.1-0.3-0.1c-3.6-1.2-7.3-2.7-11-2c-3.9,0.8-7.2,4-11.2,4c-2.7,0-5.2-1.4-7.6-2.7
			c-18.8-10.8-40.1-21-52.5-38.1c0,5.7-2.8,11.1-7.4,13.8c-2.6,1.6-5.9,2.3-9.9,2.3l0,0c-1,0-2,0-3.1-0.1c-2.8-0.2-6-0.7-8.6-2.7
			c-3-2.3-4.8-6.5-4.5-11c0.4-7.4,3.4-17.2,10.5-20.4c1.9-0.8,3.9-1.2,5.9-1.2c3.3,0,6.2,1.2,8.8,3c-0.7-1.4-1.4-2.7-2.4-3.9
			c-2.5-3.2-6.4-5.3-8.7-8.7c-3.6-5.3-2.6-12.3-3.4-18.7c-0.6-5-2.4-9.7-4.6-14.3c-0.6,0.1-1.2,0.2-1.7,0.2c-3.4,0-7.1-1.8-10-4.8
			c-1.9-2-3.4-4.3-4.9-6.6c-0.8-1.2-1.6-2.4-2.4-3.6c-0.3-0.4-0.7-0.9-1-1.3c-0.3-0.4-0.6-0.8-0.9-1.2c-1.1,3-2,6.2-2.7,9.4
			c-1.6,7.9-1.8,15.9-1,23.8c2.2-0.8,4.6-1.3,6.9-1.3c3.9,0,7.1,1.3,9.1,3.7c2.3,2.7,3,6.6,2.1,11.5c-0.6,3.4-2,6.2-4.1,8.1
			c-2.2,2-5.1,3.1-8.5,3.1c2.3,7.4,5.1,14.6,7.8,21.5c7.1,17.8,15.2,36.4,29.3,50c6.3,6,14,11.3,23.1,15.8
			c17,8.3,36.1,12.5,56.7,12.5C-185.7,404.5-177.9,403.9-170,402.7z M-250.2,369.9c-1.7,2-3.6,3-5.4,3l0,0c-2.6,0-4.7-2.1-6.2-6.3
			c-1.1-2.9-0.8-5.7,0.9-8c3-4.2,9.3-5.8,12.7-5.8c2.6,0,3.3,1,3.4,1.8C-244.2,358.9-246.7,365.9-250.2,369.9z M-202.1,387.6
			c-1.6,5.1-6.8,8.8-12.3,8.8l0,0c-0.7,0-1.4-0.1-2.1-0.2c-6.1-1.1-10.7-7-10.4-13.2c0.2-3.2,1.6-6.4,3.9-8.6c1-0.9,2.1-1.7,3.3-2.3
			c3.3-1.6,7.5-1.6,10.9,0C-203.2,374.9-200.3,381.8-202.1,387.6z"/>
	</g>
	<path id="XMLID_1023_" class="st4" d="M-132.2,327.7c-5.8-2.8-13-1.4-18,2.5c-5,3.9-8.1,10-9.4,16.2c3.2,1.6,7.2,0,10.1-2.2
		c2.9-2.2,5.3-5.1,8.6-6.5c1.9-0.8,4.1-1.2,5.7-2.6C-133.1,333.4-132.6,330.4-132.2,327.7z"/>
	<path id="XMLID_1022_" class="st4" d="M-253.4,308.8c1.4,2.6,2.9,5.2,5.2,7.1c2.3,1.9,5.6,2.8,8.3,1.6c2-2.4,1-6-0.1-9
		c-0.9-2.4-1.8-4.8-2.7-7.2c-0.6-1.5-1.2-3-2.6-3.8c-0.8-0.4-1.7-0.6-2.2-1.3c-0.3-0.5-0.4-1-0.6-1.6c-0.6-1.6-2.6-2.3-4.4-2.4
		c-1.8-0.1-3.6,0.2-5.2-0.4c-2.1,2.3-1,6,0.4,8.9C-256.1,303.4-254.8,306.1-253.4,308.8z"/>
	<path id="XMLID_1021_" class="st4" d="M-192.3,226.1c-0.1-0.4-0.5-0.8-0.8-1.1c-3.7-3.4-8.8-5.3-13.9-5.2c-1.8,0-3.5,0.3-5.3,0.3
		c-3,0-6-0.9-8.8,0c-2.8,0.9-5,4.7-2.9,6.8c0.7,0.8,1.8,1.1,2.9,1.4c1.5,0.4,3.1,0.9,4.6,1.3c3.9,1.1,7.7,2.2,11.7,2.4
		c4,0.2,8.2-0.7,11.3-3.2C-192.7,228.1-191.9,227.1-192.3,226.1z"/>
	<path id="XMLID_1019_" class="st4" d="M-261.5,211.4c4.5,6.3,12,10.5,19.7,11.1c2.8,0.2,6.3-0.6,6.9-3.3c0.7,4.4-1.5,9.2-5.3,11.4
		c-3.6,2.2-8.3,2.1-12.3,0.8c-4-1.3-7.6-3.8-11-6.2c-2.4-1.7-4.8-3.5-6.6-5.8c-1.8-2.4-2.8-5.4-2.1-8.3c0.7-2.9,3.6-5.2,6.6-4.7
		C-266.5,206.5-260.7,211.3-261.5,211.4z"/>
	<path id="XMLID_1018_" class="st4" d="M-116.8,219.5c-3.4,2-7.5,3.5-11.2,2.2c-1.7-0.6-3.2-1.8-4.5-3c-2.7-2.5-5.1-5.4-7-8.6
		c-2.6-4.3-4.4-10-1.8-14.4c0.9-1.5,2.2-2.7,3.2-4.1c1.2-0.2,2.5-0.5,3.7-0.7c-0.7,2.6,0.2,5.4,1.1,7.9c1.2,3.5,2.6,7,5.4,9.4
		c3.2,2.7,7.7,3.2,11.8,2.5c4.1-0.8,7.8-2.7,11.5-4.6c0.7,0.1,0.6,1.2,0.2,1.8C-107.7,212.6-111.9,216.6-116.8,219.5z"/>
	<path id="XMLID_1016_" class="st4" d="M-117.9,249.7c-0.1-2.2-0.6-4.3-1.5-6.3c-3.3,2.1-5.4,6-5.4,10c0.1,3.9,2.3,7.8,5.6,9.8
		c3.9,2.3,8.7,2.2,13.2,1.6c2.6-0.3,5.2-0.8,7.6-1.9c3.8-1.9,6.7-5.6,7.4-9.8c-3.3,2.6-6.9,4.8-11,5.9c-4,1.1-8.5,0.8-12.1-1.3
		c-1.6-0.9-3-2.3-3.5-4.1C-117.9,252.3-117.8,251-117.9,249.7z"/>
	<path id="XMLID_1015_" class="st4" d="M-106.4,322.6c-3.7-0.6-7-3.1-8.6-6.4c-0.4-2-1.3-4-2.6-5.5c-0.8-1-1.9-1.9-2.4-3.1
		c-0.3-0.8-0.5-1.6-0.6-2.4c-1-6.9-0.6-14.5,3.6-20.1c-3.2,1.2-5.9,3.6-7.6,6.6c-2.6,4.6-2.4,10.2-2.3,15.4c0.1,2.1,0.1,4.3,0.7,6.4
		c0.9,3.1,3,5.8,5.1,8.2c2.2,2.5,4.8,4.8,8,5.7c3.7,1,7.5-0.1,11.2-1.2c1.7-0.8,2.9-2.4,3.4-4.1C-101.1,322.5-103.8,323-106.4,322.6
		z"/>
	<path id="XMLID_1014_" class="st4" d="M-285,258.8c2.7-1.5,5.4-2.9,8.1-4.4c-0.7,4.3-2.1,9.4-6.3,10.8c-1.1,0.4-2.3,0.4-3.5,0.7
		c-1.7,0.4-3.3,1.4-4.5,2.7c-1.1-1.9-0.5-4.4,0.9-6.1C-288.8,260.9-286.9,259.8-285,258.8z"/>
	<path id="XMLID_1012_" class="st4" d="M-216.1,212.5c0.7,1,1.5,2.1,2.6,2.7c0.9,0.5,2,0.6,3,0.6c4.3,0.2,8.6-0.1,12.8-1
		c1.1-0.2,2.2-0.5,3.1-1c1.9-1.1,3.1-3.1,4.1-5.1c1.6-3.4,2.8-7,3.5-10.6c-3.2,1.5-5.2,4.6-7.6,7.2c-2.4,2.6-6.1,4.7-9.3,3.5
		c-2-0.8-3.7-2.7-5.8-2.2c0-1.7-2.7-1.5-4-2.6c-0.3-0.3-0.5-0.7-0.7-1.1c-2.1-3.8-4.1-7.7-6-11.6c-2.4-4.9-4.7-10.8-1.9-15.6
		c-3.3,1.1-5.3,4.6-5.6,8c-0.3,3.4,0.8,6.8,2,10.1C-223.3,200.4-220,206.7-216.1,212.5z"/>
	<path id="XMLID_1011_" class="st4" d="M-169,221.7c-1.7-1.2-3.7-1.7-5.2-3.1c-2.5-2.4-2.4-6.6-0.3-9.4c2-2.7,5.6-4.1,9-4.2
		c-2,3.9-3.9,8.6-1.7,12.4c1.4,2.3,4.1,3.7,6.7,4c2.7,0.3,5.4-0.1,8.1-0.6c-1.6,4.8-8.2,7.1-12.5,4.3
		C-166.4,224.1-167.5,222.7-169,221.7z"/>
	<path id="XMLID_1010_" class="st4" d="M-253.9,242.1c-0.3,1.1-1.6,1.7-2.8,1.8c-4.9,0.7-10-2.9-11.1-7.7c0.7-0.1,1.5-0.2,2.2-0.3
		c4.2-2.4,10.2,0.1,11.6,4.6C-253.8,241-253.7,241.6-253.9,242.1z"/>
	<path id="XMLID_1008_" class="st4" d="M-218.1,352.9c2.1-0.7,4,1.4,5.4,3.1c2.1,2.4,4.9,4.5,8.1,4.5c3.2,0,6.4-3.1,5.6-6.1
		c-2.6-0.5-5.3-1-7.9-1.5c-0.8-0.2-1.7-0.3-2.4-0.8c-0.7-0.4-1.2-1.1-1.9-1.6C-213.5,348.6-217.5,350-218.1,352.9z"/>
	<path id="XMLID_1005_" class="st5" d="M-147.3,182c-3.4-1.5-6.6-1.6-10.3-1.5c-3.3,0.1-7,0.3-10.1,1.8c-0.9,0.5-0.8,2.1,0.3,2.3
		c2.8,0.5,5.7,0.2,8.6,0.2c3.6,0.1,7,0.7,10.6,0.4C-146.7,185.1-145.6,182.7-147.3,182z"/>
	<path id="XMLID_1003_" class="st5" d="M-253.6,186.8c-5,0.1-10.1,4.7-13.9,7.6c-4.2,3.2-9.3,7.6-11.3,12.6
		c-0.3,0.7,0.6,1.2,1.2,0.9c1.8-1.2,3.3-2.8,4.8-4.2c2.2-2,4.5-3.9,6.9-5.6c2.2-1.6,4.6-3.1,7-4.5c2.2-1.3,4.8-2.1,6.5-4.1
		C-251.6,188.6-252.1,186.8-253.6,186.8z"/>
	<path id="XMLID_1001_" class="st5" d="M-238.9,181.4c-2.7,0.7-5.5,1.1-8.2,1.8c-1.3,0.3-1.4,2.4,0,2.7c3.3,0.7,6.5-0.2,9.2-2.1
		C-236.7,183-237.4,181-238.9,181.4z"/>
	<path id="XMLID_1000_" class="st5" d="M-91.8,226.8c-0.8-3.8-3.4-6.9-7.1-8.2c-1.8-0.6-2.4,1.8-1.2,2.8c2.3,1.8,4.4,3.9,5.9,6.4
		C-93.4,229-91.6,228.2-91.8,226.8z"/>
	<path id="XMLID_998_" class="st5" d="M-138,320.1c-2.8-1.3-6.5-1.2-9,0.7c-1.2,0.9-0.6,3,1.1,2.6c2.5-0.6,4.7-0.8,7.2-0.5
		C-137.3,323-136.7,320.8-138,320.1z"/>
	<path id="XMLID_995_" class="st5" d="M-78.7,303.5c-0.6-1.9-3.1-1.4-3.3,0.4c-0.3,2.7-0.2,5.5-0.4,8.2c-0.1,1.8,2.4,1.9,3,0.4
		C-78.3,309.6-77.9,306.5-78.7,303.5z"/>
	<path id="XMLID_980_" class="st5" d="M-251,286.1c-2.3-1.8-4.4-2.6-7.4-2.6c-2.5,0-5.6,0.6-7.4,2.5c-0.6,0.6-0.2,1.7,0.7,1.6
		c2-0.1,3.9-0.7,5.9-0.7c2.3-0.1,5.1,0.5,7.3,1C-251.1,288-250.1,286.8-251,286.1z"/>
	<path id="XMLID_961_" class="st5" d="M-241.7,288.9c-0.4-0.3-0.9-0.7-1.3-1c-0.5-0.3-1.1-0.5-1.6-0.6c-1.3-0.4-2.2,1.6-1,2.3
		c0.5,0.3,1,0.6,1.6,0.7c0.5,0.1,1.1,0.2,1.6,0.3C-241.6,290.6-241.1,289.4-241.7,288.9z"/>
	<path id="XMLID_960_" class="st5" d="M-125.7,238c-1.3,0.6-2.4,1.4-3.5,2.3c-1.1,1-2.6,1.9-3.2,3.2c-0.5,1,0.3,2.2,1.5,1.9
		c1.4-0.4,2.6-1.6,3.8-2.5s2.2-2,3.2-3.2C-123,238.6-124.6,237.5-125.7,238z"/>
	<ellipse id="XMLID_959_" class="st6" cx="-229.8" cy="284.4" rx="12.2" ry="5.1"/>
	<ellipse id="XMLID_958_" class="st6" cx="-152.6" cy="284.4" rx="12.2" ry="5.1"/>
	<path id="XMLID_957_" class="st7" d="M-203.8,207.5c1.1,0,2.4-0.2,3.6-0.7c5.4-1.9,9.4-6.4,12.4-11c-2.6,2.3-5.6,4-8.8,5.1
		c-1.1,0.4-2.3,0.6-3.4,0.4c-1.9-0.4-3.1-2.2-4.2-3.8c-1.7-2.6-3.4-5.2-5.1-7.8c-1.7-2.7-3.5-5.4-4.2-8.5c-0.7-3.1-0.2-6.7,2.2-8.8
		c1.3-1.2,3.1-1.9,4.5-3c1.2-0.9,2.1-2.3,2.1-3.7c-1.1,0.5-2.1,1-3.1,1.6c-0.2,0.1-0.5,0.3-0.7,0.4c-1,0.7-2.1,1.3-3.3,1.7
		c-0.6,0.2-1.2,0.3-1.7,0.4c-0.6,0.1-1.2,0.2-1.6,0.4c-0.9,0.3-1.8,1.1-2.7,2.2c-3.3,4.3-4.1,10.8-2.1,17c1.7,5,4.9,9.7,10.3,15.1
		c1,1,2,1.9,3.2,2.5C-205.8,207.3-204.8,207.5-203.8,207.5L-203.8,207.5z"/>
	<path id="XMLID_956_" class="st7" d="M-102,200.5c0.2-0.4,0.4-0.7,0.7-1.1c-4.8,4.9-12.1,7.3-18.8,5.7c-1.1-0.3-2.3-0.7-3.1-1.5
		s-1.3-1.9-1.8-3c-1.5-3.7-3.1-7.5-3.1-11.6c0-2.4,0.6-4.8,1.6-7c-0.1,0.1-0.2,0.2-0.3,0.4c-4,4.7-5.7,10.4-4.8,15.8
		c0.2,1.4,0.6,2.7,1,3.8c2,5.5,6.1,8.5,11.6,8.5C-112.8,210.6-106,206.6-102,200.5z"/>
	<path id="XMLID_955_" class="st7" d="M-152.4,216.3c-2.2,0.1-4.6,0.8-6.8,0.8c-0.7,0-1.4,0-2.1-0.4c-0.5-0.3-0.9-0.7-1.2-1.1
		c-1.4-1.9-2.4-4.1-2.6-6.4c0-0.6,0-1.2,0.1-1.7c-0.9,1-1.6,2.3-2,3.6c-0.8,2.4-0.2,4.7,1.6,6.3c1.5,1.4,3.9,2.3,6.2,2.3
		c1.4,0,2.7-0.3,3.9-0.9C-154.1,218.2-153.1,217.3-152.4,216.3z"/>
	<path id="XMLID_954_" class="st7" d="M-96.2,251.4c-4.1,1.8-9,3.5-13,1.5c-3.2-1.6-5.1-5.4-4.4-8.9c0.6-2.8,2.8-5.2,5.5-6l-1.2,0.2
		c-7.8,1.4-7.7,4.6-7.6,11.7c0,0.6,0,1.2,0,1.9c0,3.8,5.3,5.5,10.4,5.5l0,0c5.7,0,10.7-1.9,12-4.6c0.4-0.8,0.6-1.7,0.8-2.6
		C-94.5,250.6-95.3,251-96.2,251.4z"/>
	<path id="XMLID_953_" class="st7" d="M-86.7,303.6c-3.5,3.2-6.9,6.4-10.5,9.6c-1.3,1.2-2.8,2.4-4.5,2.9c-2.1,0.6-4.4-0.2-6.2-1.5
		c-5.7-4.2-5.6-12.6-5-19.7c0.4-4.7,1.1-9.8,3.3-13.9c-2.6,1.4-4.9,3.8-6.3,6.9c-1.7,3.5-2.4,7.9-2.2,13.7c0.1,2.5,0.3,5.4,1.3,7.9
		s2.9,4.7,4.8,6.8c2.4,2.7,5.3,5.6,8.8,5.8c1.9,0.1,3.9-0.5,6.2-2c5-3.2,8.7-8.6,10.1-15C-86.9,304.5-86.8,304.1-86.7,303.6z"/>
	<g id="XMLID_949_">
		<path id="XMLID_952_" class="st7" d="M-99.4,371.6c-3.6-0.4-7-3.4-7.2-7c-0.1-1.6,0.5-3.1,1-4.6c0.7-1.9,1.4-3.8,2.1-5.8
			c0-0.1,0.1-0.3,0.2-0.4c-0.9,0.6-1.7,1.3-2.6,2.1c-4.1,4.1-5.9,9.5-4.6,13.9c1,3.5,4.7,6.3,8.3,6.3l0,0c1.1,0,2.1-0.3,3-0.8
			c1.6-0.9,2.8-2.5,3.7-4C-96.7,371.6-98,371.7-99.4,371.6z"/>
		<path id="XMLID_951_" class="st7" d="M-101.7,352.9C-101.7,353-101.7,353-101.7,352.9L-101.7,352.9L-101.7,352.9z"/>
		<path id="XMLID_950_" class="st7" d="M-101.7,353l0.2,0.4C-101.5,353.2-101.5,353-101.7,353z"/>
	</g>
	<path id="XMLID_944_" class="st7" d="M-151.2,389.9c-5,5-13,8.6-19.1,5c-5.5-3.2-6.8-10.5-6.9-16.9c0-2.7,0.1-5.5,0.9-8.1
		c1.5-5,5.8-8.9,10.7-10.4c-4.4,0.1-7.7,0.9-10.2,2.7c-2.7,2-4.5,5.1-5.9,8c-2.9,5.9-5.6,14.3-2.1,20.9c1.3,2.4,3.3,4.5,5.9,6.2
		c3.4,2.1,7.6,3.3,12.1,3.3l0,0c2.2,0,4.3-0.3,6.4-0.8c9.7-2.4,17.6-10.2,19.3-19.1c0.3-1.4,0.4-2.8,0.3-4.1
		C-143.9,380.6-147.1,385.8-151.2,389.9z"/>
	<path id="XMLID_943_" class="st7" d="M-212.2,390.6c-3.2-0.5-6.6-1.9-8.1-4.8c-1.4-2.6-0.9-5.9,0.7-8.3c1.1-1.6,2.5-2.9,4.2-3.8
		c-1.2,0.1-2.3,0.4-3.3,0.9s-1.9,1.1-2.7,1.8c-1.9,1.8-3,4.3-3.2,6.9c-0.2,4.9,3.6,9.7,8.4,10.6c0.5,0.1,1.1,0.1,1.6,0.1l0,0
		c2.8,0,5.5-1.2,7.5-3.2C-208.7,390.9-210.4,390.8-212.2,390.6z"/>
	<path id="XMLID_942_" class="st7" d="M-255.5,366.4c-2.1-1.8-2.9-4.8-2.4-7.4c-0.3,0.3-0.7,0.7-0.9,1.1c-1.2,1.6-1.3,3.5-0.6,5.7
		c0.6,1.7,2,4.7,3.9,4.7c1,0,2.2-0.8,3.5-2.2c1.1-1.2,2.1-2.9,2.9-4.6c-0.2,0.1-0.4,0.2-0.6,0.3C-251.6,365-253.5,367.2-255.5,366.4
		z"/>
	<path id="XMLID_941_" class="st7" d="M-271.8,332.4c-2,1.6-4.1,3.2-6.6,4c-2.5,0.7-5.5,0.3-7.2-1.6c-1.5-1.8-1.6-4.3-1.7-6.6
		c-0.1-4.4-0.2-8.9,1.1-13.1c0.7-2.2,1.8-4.3,3.3-6.1c-1,0.2-2,0.5-3,0.9c-6.1,2.7-8.6,11.5-9,18.2c-0.2,3.7,1.2,7.1,3.5,8.9
		c2.1,1.6,4.9,2,7.3,2.2c1,0.1,2,0.1,2.9,0.1l0,0c3.6,0,6.4-0.6,8.6-2c3.1-1.8,5.3-5.3,5.9-9.1C-268.3,329.7-270,331-271.8,332.4z"
		/>
	<path id="XMLID_921_" class="st7" d="M-240.8,215.4c-3.7-0.1-7.3-1.4-10.8-2.8c-1.9-3-4-6.2-3.8-9.7c0-1.1,0.4-2.2,1-3.2
		c-1.5,0.7-2.8,1.7-3.8,2.9c-1.4,1.6-2.1,3.3-2.2,4.9c-0.1,3.3,2.5,6.3,7.7,9.1c2.5,1.3,5.2,2.6,7.8,3.6c0.9,0.4,1.9,0.7,2.8,0.7
		c0.2,0,0.4,0,0.6-0.1c0.8-0.2,1.7-0.8,2.6-1.8c1-1.2,1.7-2.6,2.2-4.1C-238,215.3-239.4,215.4-240.8,215.4z"/>
	<path id="XMLID_920_" class="st7" d="M-276.1,248.4c0.4-0.8,0.4-1.9,0.5-2.8c0-0.3,0-0.6,0-0.9c-2.7,2.2-5.4,4.4-8.2,6.6
		c-3.3,2.7-7.6,5.6-11.6,4c-2.3-0.9-3.8-3.1-5.1-5.3c-2.9-5-5.3-10.7-4.8-16.4c0.3-3.9,2.3-7.7,5.3-10.1c-3,0.7-5.6,1.9-7.7,3.6
		c-4.6,3.6-6.6,9.7-4.7,14.3c0.7,1.7,1.8,3.1,3,4.6c0.3,0.5,0.7,0.9,1,1.4c0.9,1.2,1.7,2.5,2.5,3.7c1.5,2.3,2.8,4.4,4.6,6.2
		c2.4,2.5,5.5,4.1,8.2,4.1c0.6,0,1.1-0.1,1.7-0.2c2.4-0.6,4.5-2.5,6.4-4.1l6.6-6C-277.5,250.3-276.6,249.4-276.1,248.4z"/>
	<path id="XMLID_892_" class="st7" d="M-300.4,293.9c-3.9,2.3-8.4,3.5-12.9,3.3c-0.1-1.4-1.7-2.2-2.9-3c-2.2-1.6-3.4-4.5-2.8-7.2
		c0.5-2.7,2.8-4.9,5.4-5.5h-0.1c-4.2,1.2-7.9,3.9-9.3,7.1c-1.4,3.1-0.6,6.4,2.2,9.7c0.9,1,2.1,1.8,3.9,2.6c2.1,0.9,4.3,1.3,6.4,1.3
		l0,0c2,0,4.8-0.4,7-2.4C-301.8,298.2-300.9,295.8-300.4,293.9z"/>
	<path id="XMLID_888_" class="st8" d="M-187.9,171.1c-2.6-2.9-6.8-5-10.7-4.7c-0.8,0.1-1,1.2-0.2,1.5c1.8,0.6,3.6,1,5.4,1.9
		c1.6,0.8,3.1,1.7,4.6,2.6C-188,172.9-187.3,171.8-187.9,171.1z"/>
	<path id="XMLID_887_" class="st8" d="M-182.9,178.1c-0.3-0.4-0.5-0.8-0.7-1.3s-0.5-1-0.7-1.5s-0.6-0.8-1.2-0.7
		c-0.5,0.1-0.9,0.7-0.7,1.2c0.2,0.6,0.5,1.3,0.9,1.8s0.8,0.9,1.3,1.3C-183.4,179.4-182.4,178.8-182.9,178.1z"/>
	<path id="XMLID_885_" class="st8" d="M-285.1,228.2c-2.8-2.2-7.7-3.6-11.1-2c-0.8,0.3-0.4,1.4,0.2,1.6c1.5,0.5,3.1,0.4,4.6,0.7
		c1.8,0.3,3.5,0.9,5.4,1.2C-285.2,229.8-284.3,228.8-285.1,228.2z"/>
	<path id="XMLID_884_" class="st8" d="M-280.8,232.3c-0.1-0.7-0.5-1.1-1-1.6c-0.6-0.6-1.5,0.2-1.1,0.9c0.3,0.6,0.6,1.1,1.2,1.4
		C-281.2,233.3-280.7,232.9-280.8,232.3z"/>
	<path id="XMLID_883_" class="st8" d="M-243.2,202.5c-1.9-0.8-3.9-1.5-6-1.6c-0.6,0-0.7,0.7-0.3,1c1.8,1.2,3.9,1.6,5.9,2
		C-242.6,204.2-242.3,202.9-243.2,202.5z"/>
	<path id="XMLID_882_" class="st8" d="M-155.7,205.8c-1.3-0.2-2.9-0.4-4.2,0c-0.7,0.2-0.7,1.3,0,1.5c1.3,0.4,2.9,0.2,4.2,0
		C-155,207.2-155,206-155.7,205.8z"/>
	<path id="XMLID_881_" class="st8" d="M-106.9,179c-3.4-1.8-7.5-1.8-11-0.2c-1,0.5-0.2,1.8,0.7,1.7c3.3-0.5,6.3-0.4,9.6,0
		C-106.7,180.7-106,179.5-106.9,179z"/>
	<path id="XMLID_880_" class="st8" d="M-103.1,183c-0.3-0.3-0.5-0.6-0.6-0.9c-0.1-0.4-0.6-0.6-1-0.5s-0.6,0.5-0.5,1
		c0.1,0.3,0.2,0.7,0.4,1c0.3,0.4,0.6,0.6,1.1,0.7C-103.1,184.4-102.6,183.5-103.1,183z"/>
	<path id="XMLID_877_" class="st8" d="M-99.8,239.2c-1.8-1.1-4.8-1.5-6.4,0.1c-0.4,0.4-0.2,1,0.3,1.2c0.8,0.3,1.7,0.2,2.6,0.2
		c1.1,0,2.1,0,3.2,0C-99.4,240.7-99.1,239.7-99.8,239.2z"/>
	<path id="XMLID_876_" class="st8" d="M-96.9,241.1c-0.2-0.1-0.3-0.2-0.5-0.2c-0.6-0.1-1.1,0.2-1.1,0.9c0,0.6,0.6,1,1.1,0.9
		c0.2,0,0.4-0.1,0.5-0.2C-96.5,242-96.5,241.5-96.9,241.1z"/>
	<path id="XMLID_873_" class="st8" d="M-91.7,289.6c-4.3-3.1-9.5-9.3-15.4-6.5c-1.2,0.6-0.3,2.2,0.8,2c5.7-0.9,8.6,5.3,13.6,6.7
		C-91.2,292.1-90.6,290.3-91.7,289.6z"/>
	<path id="XMLID_872_" class="st8" d="M-89.2,295.2c-0.2-0.4-0.5-0.8-0.8-1.2c-0.4-0.5-1-0.7-1.5-0.4c-0.6,0.3-0.7,1-0.4,1.5
		c0.2,0.4,0.4,0.8,0.6,1.1c0.3,0.5,0.7,0.8,1.2,1.1s1.3-0.1,1.2-0.7C-89,296.1-89,295.6-89.2,295.2z"/>
	<path id="XMLID_867_" class="st8" d="M-94.2,358c-0.3-0.6-0.5-1.3-0.8-1.8c-0.4-0.6-0.8-1.2-1.2-1.7c-0.6-0.8-1.8-0.1-1.3,0.8
		l1,1.9c0.3,0.6,0.8,1.1,1.3,1.6C-94.8,359-93.9,358.5-94.2,358z"/>
	<path id="XMLID_866_" class="st8" d="M-151.8,365.7c-2.5-2.6-6.7-3.6-10.1-2.4c-0.8,0.3-0.6,1.4,0.2,1.4c3.3,0.2,5.8,1,8.7,2.6
		C-152,368-151,366.6-151.8,365.7z"/>
	<path id="XMLID_865_" class="st8" d="M-144.8,371.5c-0.3-0.5-0.6-1.1-1-1.5c-0.5-0.5-1-0.9-1.5-1.3c-1-0.9-2.3,0.5-1.5,1.5
		c0.4,0.4,0.8,0.9,1.2,1.3c0.5,0.5,1.1,0.8,1.7,1.1C-145.1,373-144.4,372.2-144.8,371.5z"/>
	<path id="XMLID_864_" class="st8" d="M-207.3,379.8c-1.2-2.5-3.6-4.3-6.4-4.5c-0.9-0.1-1.3,1.4-0.5,1.8c2.1,0.9,4,2,5.5,3.8
		C-208,381.5-206.9,380.6-207.3,379.8z"/>
	<path id="XMLID_863_" class="st8" d="M-249.9,357.1c-0.7-0.3-1.5-0.4-2.2,0c-0.6,0.3-1.2,0.8-1.2,1.4c0,0.2,0.2,0.4,0.4,0.4
		c0.4,0,0.9-0.2,1.3-0.2c0.5-0.1,1.1-0.3,1.6-0.3C-249.4,358.3-249.3,357.4-249.9,357.1z"/>
	<path id="XMLID_862_" class="st8" d="M-270.6,319c-0.6-2-1.6-3.6-3.3-4.8c-1.5-1.1-3.7-2.4-5.7-2c-0.4,0.1-0.6,0.7-0.2,0.9
		c1.3,1,2.9,1.5,4.2,2.6c1.3,1.1,2.6,2.5,3.5,4C-271.6,320.3-270.3,319.9-270.6,319z"/>
	<path id="XMLID_861_" class="st8" d="M-268.5,323.7c-0.4-0.6-1-1.2-1.6-1.6c-0.9-0.7-2.1,0.8-1.2,1.6c0.4,0.3,0.7,0.7,0.9,1.1
		c0.2,0.4,0.6,0.8,0.8,1.3c0.3,0.8,1.5,0.7,1.6-0.2C-268.1,325.2-268.1,324.3-268.5,323.7z"/>
	<path id="XMLID_860_" class="st8" d="M-307.3,283.8c-1.9-1.6-5.3-1.5-7,0.5c-0.5,0.6,0,1.8,0.8,1.4c0.9-0.4,1.6-0.8,2.6-0.9
		c0.9-0.1,1.9,0.1,2.8,0.2C-307.4,285.2-306.7,284.4-307.3,283.8z"/>
	<path id="XMLID_859_" class="st8" d="M-303.5,285.1c-0.5-0.4-1-0.6-1.6-0.4c-0.4,0.1-0.6,0.7-0.3,1c0.1,0.1,0.2,0.2,0.3,0.3
		c0.2,0.1,0.2,0.2,0.1,0.1c0,0,0.2,0.2,0.1,0.1c0.1,0.2,0.2,0.3,0.4,0.4c0-0.1,0,0,0,0s0,0,0,0.1c0,0,0,0,0,0.1
		c0.3,0.8,1.5,0.7,1.5-0.2C-303,286-303.1,285.4-303.5,285.1z"/>
	<g id="XMLID_818_">
		<path id="XMLID_850_" class="st9" d="M-75,261.6c-3.3-20.9-8.7-44.5-23.7-61.8c2.1-3.9,3.2-7.8,3.1-11.5
			c-0.1-5.3-2.6-10.3-6.6-12.9c-2.6-1.7-6-2.6-10.2-2.7h-0.2c-5.4,0-10.8,2.4-15,6.7c-6.4-2.7-13.3-4.8-20.7-6.3
			c-10.8-2.2-21.9-3.1-32.9-3.4c-2.3-3.3-5.7-6-9.8-7.2c-1.9-0.6-3.9-0.9-5.9-0.9c-4.3,0-8.7,1.3-12.5,3.7c-0.2,0.2-0.5,0.3-0.7,0.5
			c-0.9,0.6-1.8,1.2-2.7,1.4c-0.4,0.1-0.9,0.2-1.4,0.3c-0.7,0.1-1.4,0.2-2.1,0.5c-1,0.4-1.9,1-2.8,1.9c-11.7,0.6-22.5,2.4-32.5,7.2
			c-8.5,4.1-15.7,10.2-22.4,16c-9.5,8.3-19.2,17.6-27.2,28.3c-3.1,0.8-5.8,2.1-8.1,3.9c-4.7,3.7-8.1,10.8-5.5,17.2
			c0.2,0.5,0.4,1,0.7,1.5c-1.4,3.7-2.6,7.5-3.4,11.5c-1.8,8.4-1.9,17-0.9,25.4c-3.2,1.7-5.7,4.1-7,6.9c-1.8,4-0.9,8.4,2.6,12.3
			c1.1,1.3,2.7,2.3,4.9,3.3c1.5,0.7,3.2,1.1,4.8,1.3c2.4,7.8,5.3,15.4,8.2,22.6c7.2,18.1,15.5,36.9,29.9,50.8
			c6.4,6.2,14.4,11.6,23.8,16.2c17.4,8.5,36.8,12.8,57.8,12.8l0,0c21.6,0,44-4.7,64.8-13.6c10.8-4.6,19.1-9.4,25.8-14.9
			c0.2,0,0.5,0,0.7,0l0,0c1.6,0,3-0.4,4.3-1.1c2-1.2,3.4-3.1,4.7-5c1.6-2.5,3.5-5.7,4.2-9.2c7.6-11,13-24.6,15.5-39.5
			C-69.7,301.5-72.3,278.8-75,261.6z M-99.1,375.3c-0.9,0.5-1.9,0.8-3,0.8l0,0c-3.5,0-7.2-2.8-8.3-6.3c-1.3-4.4,0.5-9.9,4.6-13.9
			c2.4-2.4,5.2-3.8,7.7-3.8c0.7,0,1.3,0.1,1.9,0.3c3.4,1.1,5.1,5.1,5,8.3c-0.1,3.9-2.2,7.6-4.1,10.4
			C-96.2,372.6-97.4,374.3-99.1,375.3z M-88.8,358.4c-0.6-3.6-2.8-7.3-6.5-8.5c-0.9-0.3-1.8-0.4-2.7-0.4c-3.1,0-6.6,1.6-9.5,4.5
			c-3.8,3.7-7.1,10-5.2,16.4c1,3.3,3.7,6,6.9,7.3c-6.3,4.9-13.9,9.2-23.7,13.4c-6.5,2.8-13.1,5.1-19.8,7c6.1-4,10.6-10.2,11.9-17
			c1.6-8.4-1.9-16.9-8.5-20.7c-4-2.3-8.8-2.7-13-3.1c-1.9-0.2-4-0.3-6.2-0.3c-5.2,0-9,1-12,3.2c-3.2,2.3-5.2,5.8-6.7,8.9
			c-4.5,9.2-5.2,17.2-2,23.2c1.5,2.8,3.8,5.3,6.8,7.1c2.7,1.7,5.8,2.8,9.1,3.3c-7.8,1.2-15.7,1.8-23.4,1.8
			c-20.6,0-39.7-4.2-56.7-12.5c-9.1-4.5-16.9-9.8-23.1-15.8c-14.1-13.6-22.2-32.1-29.3-50c-2.7-6.9-5.5-14.1-7.8-21.5
			c3.4,0,6.4-1.1,8.5-3.1c2.1-1.9,3.5-4.7,4.1-8.1c0.9-4.9,0.2-8.8-2.1-11.5c-2-2.4-5.2-3.7-9.1-3.7c-2.4,0-4.7,0.5-6.9,1.3
			c-0.8-7.9-0.7-15.9,1-23.8c0.7-3.2,1.6-6.4,2.7-9.4c0.3,0.4,0.6,0.8,0.9,1.2c0.3,0.4,0.7,0.9,1,1.3c0.8,1.2,1.7,2.4,2.4,3.6
			c1.5,2.3,3,4.6,4.9,6.6c2.9,3.1,6.6,4.8,10,4.8c0.8,0,1.5-0.1,2.3-0.3c3.1-0.7,5.5-2.9,7.5-4.7l6.6-6c1-0.9,2.3-2.1,3-3.7
			c0.5-1.2,0.6-2.6,0.7-3.7c0.4-8,0-17.8-7.1-22.6c-2.8-1.9-6.4-2.9-11.4-2.9c-0.2,0-0.4,0-0.6,0c-1.8,0-3.5,0.1-5.2,0.3
			c7.5-9.5,16.5-18,25.1-25.6c6.5-5.7,13.6-11.7,21.8-15.6c9-4.4,18.8-6.1,29.4-6.8c-3,4.9-3.6,11.6-1.5,17.8
			c1.8,5.4,5.2,10.5,10.9,16.1c1.1,1.1,2.4,2.3,3.9,3c1.1,0.5,2.4,0.8,3.8,0.8l0,0c1.4,0,2.9-0.3,4.5-0.8
			c7.4-2.6,12.3-9.5,15.7-15.3c3.1-5.2,6.1-11.4,5.1-17.8c-0.2-1.4-0.6-2.7-1.2-4c10.4,0.4,20.8,1.2,31,3.3
			c6.9,1.4,13.4,3.4,19.4,5.9c-4.1,5.1-5.9,11.4-4.9,17.3c0.3,1.5,0.6,3,1.1,4.3c2.4,6.5,7.4,10.2,14,10.2c7.2,0,14.6-4.4,19.1-11.1
			c14.2,16.8,19.4,39.6,22.6,59.9c2.7,17.1,5.3,39.5,1.6,61.3C-78.1,336.4-82.6,348.4-88.8,358.4z M-159.3,399.8
			c-2.1,0.5-4.3,0.8-6.4,0.8l0,0c-4.5,0-8.7-1.1-12.1-3.3c-2.6-1.6-4.7-3.8-5.9-6.2c-3.5-6.7-0.8-15.1,2.1-20.9c1.4-2.8,3.2-6,5.9-8
			c2.6-1.9,5.9-2.7,10.6-2.7c2.1,0,4.2,0.2,6,0.3c3.9,0.3,8.4,0.7,11.9,2.8c5.6,3.2,8.6,10.8,7.2,18.1
			C-141.7,389.6-149.6,397.4-159.3,399.8z M-320.8,298.4c-2.8-3.2-3.6-6.6-2.2-9.7c2-4.4,8.2-7.8,14.1-7.8c2.2,0,5.2,0.5,7.2,2.8
			c1.8,2.1,2.3,5.3,1.5,9.4c-0.4,2-1.2,4.8-3.3,6.7c-2.2,2-5,2.4-7,2.4l0,0c-2.1,0-4.3-0.5-6.4-1.3
			C-318.7,300.2-320,299.4-320.8,298.4z M-312.4,241.4c-1.9-4.6,0.1-10.7,4.7-14.3c3.8-2.9,9-4.4,15.5-4.4c0.2,0,0.4,0,0.6,0
			c4.4,0.1,7.6,0.8,10,2.5c6,4.1,6.4,13.1,6,20.4c-0.1,1-0.1,2-0.5,2.8c-0.4,1.1-1.4,1.9-2.3,2.8l-6.6,6c-1.8,1.7-3.9,3.6-6.4,4.1
			c-0.5,0.1-1.1,0.2-1.7,0.2c-2.7,0-5.8-1.5-8.2-4.1c-1.8-1.8-3.1-4-4.6-6.2c-0.8-1.2-1.6-2.5-2.5-3.7c-0.3-0.5-0.7-0.9-1-1.4
			C-310.6,244.5-311.7,243.1-312.4,241.4z M-213.7,169.9c0.6-0.1,1.1-0.2,1.7-0.4c1.3-0.4,2.3-1.1,3.3-1.7c0.2-0.1,0.5-0.3,0.7-0.4
			c3.4-2.1,7.3-3.3,11.1-3.3c1.8,0,3.5,0.3,5.2,0.8c5.5,1.7,9.8,6.4,10.6,11.8c0.9,5.6-1.9,11.3-4.8,16.1
			c-3.2,5.4-7.7,11.9-14.4,14.2c-1.3,0.4-2.5,0.7-3.6,0.7l0,0c-1,0-2-0.2-2.8-0.6c-1.2-0.5-2.2-1.5-3.2-2.5
			c-5.4-5.3-8.6-10.1-10.3-15.1c-2-6.1-1.3-12.6,2.1-17c0.9-1.2,1.8-1.9,2.7-2.2C-214.9,170-214.3,170-213.7,169.9z M-112.5,175.2
			h0.2c3.7,0,6.6,0.8,8.8,2.2c3.3,2.2,5.4,6.3,5.5,10.8c0.1,3.9-1.3,8.2-4,12.3c-3.9,6.1-10.8,10.1-17.1,10.1c-5.5,0-9.6-3-11.6-8.5
			c-0.4-1.2-0.8-2.5-1-3.8c-0.9-5.4,0.8-11.1,4.8-15.8C-123,177.9-117.8,175.2-112.5,175.2z"/>
		<path id="XMLID_846_" class="st9" d="M-253.8,218.8c2.6,1.4,5.3,2.6,8.1,3.7c1.1,0.4,2.4,0.9,3.7,0.9l0,0c0.4,0,0.7,0,1.1-0.1
			c1.4-0.3,2.7-1.2,4-2.7c5.1-6.1,4.3-16.1-1.8-21.3c-2.6-2.2-6.1-3.4-9.7-3.4c-4.6,0-8.8,1.8-11.6,5c-1.2,1.4-2.7,3.7-2.8,6.5
			C-263,211.7-260,215.5-253.8,218.8z M-248.6,198.4c3.1,0,6,1,8.1,2.8c5,4.3,5.7,12.7,1.5,17.8c-0.9,1.1-1.7,1.7-2.6,1.8
			c-0.2,0-0.4,0.1-0.6,0.1c-0.9,0-1.9-0.4-2.8-0.7c-2.7-1.1-5.3-2.3-7.8-3.6c-5.2-2.8-7.8-5.8-7.7-9.1c0-1.6,0.8-3.3,2.2-4.9
			C-256,200-252.3,198.4-248.6,198.4z"/>
		<path id="XMLID_843_" class="st9" d="M-281,306.4c-2,0-4,0.4-5.9,1.3c-7.1,3.2-10.1,13-10.5,20.4c-0.2,4.5,1.5,8.7,4.5,11
			c2.6,1.9,5.8,2.4,8.6,2.7c1.1,0.1,2.1,0.1,3.1,0.1l0,0c4,0,7.3-0.8,9.9-2.3c5.3-3.1,8.2-9.9,7.2-16.5
			C-265.3,315.1-272.1,306.4-281,306.4z M-281.1,339.4c-0.9,0-1.8,0-2.9-0.1c-2.5-0.2-5.2-0.6-7.3-2.2c-2.4-1.8-3.7-5.2-3.5-8.9
			c0.4-6.7,2.9-15.5,9-18.2c1.6-0.7,3.2-1.1,4.8-1.1c7.6,0,13.4,7.6,14.5,14.6c0.9,5.6-1.6,11.3-6,13.9
			C-274.8,338.7-277.6,339.4-281.1,339.4L-281.1,339.4z"/>
		<path id="XMLID_840_" class="st9" d="M-248.2,352.8c-3.3,0-9.7,1.6-12.7,5.8c-1.6,2.3-1.9,5.1-0.9,8c1.5,4.2,3.6,6.3,6.2,6.3l0,0
			c1.8,0,3.6-1.1,5.4-3c3.5-4,5.9-11,5.3-15.2C-244.9,353.8-245.6,352.8-248.2,352.8z M-255.5,370.4c-1.9,0-3.3-2.9-3.9-4.7
			c-0.8-2.2-0.6-4,0.6-5.7c2.3-3.2,7.7-4.7,10.6-4.7c0.5,0,0.8,0,1,0.1c0.2,3.6-2,9.5-4.8,12.8
			C-253.3,369.6-254.5,370.4-255.5,370.4z"/>
		<path id="XMLID_837_" class="st9" d="M-87.9,285.5c-4.7-4.1-10.3-8.4-16.6-8.4c-0.6,0-1.3,0-1.9,0.1c-4.9,0.7-9.4,4.3-11.8,9.5
			c-1.8,3.9-2.6,8.6-2.5,14.8c0.1,2.7,0.3,5.9,1.5,8.8s3.2,5.2,5.2,7.6c2.9,3.3,6.2,6.4,10.5,6.6c0.2,0,0.4,0,0.5,0l0,0
			c2.2,0,4.6-0.8,7.1-2.4c5.6-3.5,9.7-9.6,11.2-16.6c1.6-7,0.4-14.2-3.1-19.8C-87.7,285.7-87.8,285.6-87.9,285.5z M-87,305
			c-1.4,6.4-5.1,11.8-10.1,15c-2.3,1.5-4.3,2.1-6.2,2c-3.5-0.2-6.4-3.1-8.8-5.8c-1.9-2.2-3.8-4.3-4.8-6.8c-1.1-2.6-1.3-5.4-1.3-7.9
			c-0.1-5.8,0.6-10.1,2.2-13.7c2.1-4.4,5.9-7.5,9.9-8.1c0.5-0.1,1-0.1,1.5-0.1c5.4,0,10.4,3.9,14.8,7.7
			C-86.6,292.3-85.6,298.7-87,305z"/>
		<path id="XMLID_834_" class="st9" d="M-167,219.3c2,1.9,4.9,2.9,7.9,2.9l0,0c1.8,0,3.5-0.4,5-1.2c5.1-2.6,6.4-8.2,5.4-12.2
			c-1.1-4.5-4.6-7.3-9.1-7.3c-0.2,0-0.5,0-0.7,0c-4.7,0.3-9.1,3.9-10.7,8.8C-170.4,213.7-169.6,216.9-167,219.3z M-166.9,211.1
			c1.3-4,4.8-6.9,8.5-7.1c0.2,0,0.4,0,0.5,0c3.4,0,5.9,2,6.7,5.4c0.8,3.2-0.2,7.5-4.1,9.4c-1.1,0.6-2.5,0.9-3.9,0.9
			c-2.3,0-4.6-0.8-6.2-2.3C-167.2,215.8-167.7,213.5-166.9,211.1z"/>
		<path id="XMLID_831_" class="st9" d="M-119.3,251.9c0,4.9,5.1,8,12.9,8l0,0c5.7,0,12.3-1.8,14.3-6c2.4-4.9,0.5-10.6-1.5-15.5
			c-0.5-1.3-1.4-3.4-3.4-4.2c-0.5-0.2-1.1-0.3-1.8-0.3s-1.3,0.1-2,0.2l-8.9,1.6c-9.9,1.8-9.8,7-9.7,14.3
			C-119.3,250.6-119.3,251.2-119.3,251.9z M-98.8,236.4c0.3,0,0.6,0,0.8,0.1c0.9,0.4,1.5,1.6,2,2.8c1.9,4.6,3.5,9.5,1.6,13.5
			c-1.3,2.6-6.3,4.6-12,4.6l0,0c-5.2,0-10.4-1.7-10.4-5.5c0-0.7,0-1.3,0-1.9c-0.1-7.1-0.2-10.3,7.6-11.7l8.9-1.6
			C-99.7,236.5-99.2,236.4-98.8,236.4z"/>
		<path id="XMLID_828_" class="st9" d="M-208.8,372.2c-3.3-1.6-7.5-1.6-10.9,0c-1.2,0.6-2.3,1.3-3.3,2.3c-2.3,2.2-3.8,5.4-3.9,8.6
			c-0.3,6.1,4.4,12,10.4,13.2c0.7,0.1,1.4,0.2,2.1,0.2l0,0c5.5,0,10.7-3.7,12.3-8.8C-200.3,381.8-203.2,374.9-208.8,372.2z
			 M-204.5,386.9c-1.3,4-5.6,7.1-9.9,7.1l0,0c-0.6,0-1.1,0-1.6-0.1c-4.8-0.9-8.6-5.7-8.4-10.6c0.1-2.6,1.3-5.1,3.2-6.9
			c0.8-0.7,1.7-1.4,2.7-1.8c1.3-0.6,2.8-1,4.4-1c1.5,0,3,0.3,4.4,1C-205.5,376.6-203,382.2-204.5,386.9z"/>
		<path id="XMLID_825_" class="st9" d="M-162.3,299.6c-5.3-2.3-22.8-4.2-38.4-4.2c-8.5,0-19.5,0.6-23.1,3.4
			c-3.9,3-6.2,12.4-3.2,21.1c2.2,6.5,9,17.3,29.7,17.3c0.5,0,1,0,1.6,0c22.6-0.6,35.1-13.1,37.4-25.3
			C-157.3,306-158.8,301.2-162.3,299.6z M-160.9,311.4c-1.6,8.4-10.8,22.7-35,23.3c-0.5,0-1,0-1.5,0c-19.2,0-25.4-9.8-27.3-15.6
			c-2.8-8.1-0.5-16.1,2.4-18.3c2.4-1.8,10.2-2.9,21.6-2.9c15,0,32.5,1.9,37.4,4C-161,302.9-160,306.8-160.9,311.4z"/>
		<path id="XMLID_822_" class="st1" d="M-248.6,270c-0.3,0.6-0.1,1.4,0.5,1.7c0.2,0.1,0.4,0.2,0.6,0.2c0.4,0,0.9-0.2,1.1-0.7
			c3.4-6.3,10.5-10.3,17.5-10.1c6.5,0.2,12.9,4,16.1,9.7c0.3,0.6,1.1,0.8,1.7,0.5s0.8-1.1,0.5-1.7c-3.6-6.5-10.8-10.8-18.2-11
			C-236.9,258.4-244.7,262.9-248.6,270z"/>
		<path id="XMLID_819_" class="st1" d="M-154.7,258.7c-8.1-0.3-15.9,4.2-19.8,11.4c-0.3,0.6-0.1,1.4,0.5,1.7
			c0.2,0.1,0.4,0.2,0.6,0.2c0.4,0,0.9-0.2,1.1-0.7c3.4-6.3,10.5-10.3,17.5-10.1c6.5,0.2,12.9,4,16.1,9.7c0.3,0.6,1.1,0.8,1.7,0.5
			c0.6-0.3,0.8-1.1,0.5-1.7C-140.2,263.2-147.3,258.9-154.7,258.7z"/>
	</g>
</g>
</svg>
