<?xml version="1.0" encoding="utf-8"?>
<!-- Generator: Adobe Illustrator 19.0.0, SVG Export Plug-In . SVG Version: 6.00 Build 0)  -->
<svg version="1.1" id="Layer_1" xmlns="http://www.w3.org/2000/svg" xmlns:xlink="http://www.w3.org/1999/xlink" x="0px" y="0px"
	 viewBox="0 0 281.4 294.7" style="enable-background:new 0 0 281.4 294.7;" xml:space="preserve">
<style type="text/css">
	.st0{fill:#F1F1F2;}
	.st1{fill:#341D0D;}
	.st2{fill:#EC1C24;}
	.st3{fill:#037BC0;}
	.st4{fill:#8BC53F;}
	.st5{fill:#E2195B;}
	.st6{fill:#F6921E;}
	.st7{fill:#652D90;}
</style>
<g id="XMLID_2_">
	<path id="XMLID_46_" class="st0" d="M239.7,264c0,7.7-46.6,14-104.2,14c-57.5,0-104.2-6.3-104.2-14c0-7.7,46.6-14,104.2-14
		C193.1,250,239.7,256.3,239.7,264z"/>
	<path id="XMLID_45_" class="st1" d="M228.2,159.7c-1.1-3.7-4.3-7.1-8.1-7.8c-2.4-0.4-4.8,0.4-6.9,1.3c-0.9,0.4-1.8,0.9-2.7,1.3
		c1.9-1.5,3.8-3.2,5.5-5.1c9-9.6,10.4-24.6,3.3-35.7c-7.7-12-23.1-19.8-36.8-13c-5.3,2.7-9.9,7.3-12.1,12.9c-1.1,2.9-1.8,5.9-1.7,9
		c0.1,3.6,1.3,7.1,3.1,10c3.7,5.8,10.2,9,16.2,8.8c3-0.1,5.7-1.1,8-2.6c2.2-1.5,3.9-3.5,5-5.6c1.1-2.1,1.7-4.3,1.7-6.4
		c0-2.1-0.5-3.9-1.3-5.4c-1.5-3.1-3.8-4.7-5.4-5.5c-0.8-0.4-1.5-0.6-1.9-0.8c-0.5-0.1-0.7-0.2-0.7-0.2s0.2,0.1,0.7,0.2
		c0.4,0.1,1.1,0.4,1.9,0.8c1.6,0.8,3.9,2.5,5.3,5.5c0.7,1.5,1.2,3.4,1.1,5.4c0,2-0.7,4.2-1.8,6.2c-1.1,2-2.8,3.9-5,5.3
		c-2.2,1.4-4.8,2.3-7.6,2.3c-7,0.1-14-4.9-16.3-11.5c-1.9-5.5-1.4-11,1.4-16.2c3.7-6.7,11.5-11.8,19.3-11.4
		c20.5,0.9,34,25.2,20.5,41.6c-6.8,8.3-17.1,12.9-26.6,17.3c-2.6,1.2-5.6,1.8-5.3,0.7c2.3-11.1-11.1-21.7-20.5-14.8
		c-6.4,4.7-5,16.2,2.9,16.6c10,0.4,7.9-9.5,3.8-10.5c1.6,0.6,4.9,5.9,0.5,8.4c-4.8,2.8-9.7-1.2-9.7-6.5c0-4.1,2.9-7.9,7.1-8.4
		c11-1.2,18.8,13.8,6.9,20.9c-1.9,1.1-4.1,1.8-6.2,2.6c-0.7,0.3-1.3,0.5-1.9,0.8c-15.5,6-22.8,12.5-22.8,12.5l7.8-7.6
		c-3.1-4-6.1-8.2-9.6-11.8c-7.5-7.7-18.4-12.2-17.9-24.6c0.1-2.7,1-6,2.6-8.2c12-16.7,34.8-7,29.3,9.7c-0.6,1.9-5,9.8-15.3,7.5
		c-10-2.3-6.9-16.8,2.9-17.3c-13.2-0.4-13.5,16.8-2.9,19.6c5.6,1.5,12.3-0.7,15.6-5.6c6.5-9.6,2.5-20.2-6.2-24.5
		c-7-3.4-16.4-1.2-22.2,3.1c-5.8,4.4-10.1,12.6-8.7,19.9c0.5,2.4-11-2-18.3-7.2l0-0.1c0,0-0.1,0-0.1,0c-11.5-8.1-21-16.9-24.4-28.9
		c-4.6-15.8,2.7-27.9,8.6-34.2c12-12.9,33.4-16.8,47.1-4.1c9.3,8.7,13.7,24.3,5.6,35.3c-6.5,8.9-18.3,14.1-28.8,8.9
		c-7.9-3.9-13.1-13.7-10.3-22.3c0.7-2.3,1.9-4.3,3.2-5.9c2.7-3.1,5.8-4.4,7.9-5c1.1-0.3,1.9-0.4,2.5-0.5c0.6,0,0.9-0.1,0.9-0.1
		s-0.3,0-0.9,0.1c-0.6,0.1-1.4,0.1-2.5,0.4c-2.1,0.5-5.3,1.8-8.2,4.8c-1.4,1.5-2.7,3.5-3.6,5.9c-0.8,2.4-1.1,5.2-0.7,8.2
		c0.4,2.9,1.4,6,3.3,8.8c6.6,10.2,20.4,12,30.6,6.4c17.9-9.8,17.6-34.6,3.9-48c-6.9-6.8-16.6-10.4-26.4-9.8
		c-4.7,0.3-9.3,1.3-13.7,3.1c0.1-0.2,0.3-0.3,0.4-0.5c9.8-11.6-9.6-27.9-19.8-17.1c-2.2,2.3-3.3,5.6-2.9,8.7c0.2,1.5,0.8,3,1.6,4.1
		c0.9,1.2,2,2.1,3.2,2.7c1.2,0.6,2.6,0.9,3.9,0.9c1.3,0,2.6-0.4,3.6-1c4.8-2.9,3.9-10.4-1.7-11.6c0.2,0,0.5,0.1,0.7,0.1
		c0.7,0.2,1.8,0.5,2.8,1.5c4,4.1-0.2,10.7-5.4,10.7c-8.3-0.2-10.7-10.4-5.3-15.7c9.5-9.5,27.1,5.3,18,15.5c-0.9,1-1.8,1.8-2.8,2.6
		c-1,0.8-2,1.5-3,2.2c-11.1,7.8-18.8,19-20.2,32.7c-0.5,5.2,0.4,12,1,14.3c1.2,4.6,3.4,8.9,6.1,12.5c2.3,3.2,4.9,5.9,7.5,8.3
		c-1.1-0.5-2.3-1-3.5-1.3c-1.4-0.3-3-0.5-4.5-0.2c-12,2.2-14.7,21.7-2.3,25.5c3.1,1,6.5,0.5,9.1-1.1c1.3-0.8,2.3-2,3-3.3
		c0.7-1.3,1-2.7,1.1-4.1c0-1.4-0.3-2.7-0.9-3.9c-0.6-1.2-1.4-2.2-2.4-2.8c-1-0.7-2.1-1-3.2-1.1c-1.1-0.1-2.1,0.1-3.1,0.4
		c-0.9,0.3-1.7,0.9-2.3,1.5c-0.6,0.6-1,1.3-1.2,2c-0.5,1.3-0.3,2.5-0.2,3.2c0.1,0.4,0.2,0.6,0.3,0.8c0.1,0.2,0.1,0.3,0.1,0.3
		s0-0.1-0.1-0.3c-0.1-0.2-0.2-0.4-0.3-0.8c-0.2-0.7-0.3-1.9,0.2-3.2c0.2-0.6,0.6-1.3,1.2-1.9c3.1-3.3,8.9-1.8,10.7,2.1
		c0.5,1.1,0.8,2.5,0.8,3.8c0,1.3-0.4,2.7-1.1,3.9c-0.7,1.2-1.7,2.3-2.9,3c-2.5,1.5-5.7,1.9-8.6,0.9c-6.1-2.1-8.6-9.2-6.6-15
		c1.3-3.9,4.8-7.7,9-8.3c1.3-0.2,2.6,0,3.8,0.3c5.7,1.6,10.6,5.4,15.3,8.9c11.8,9,24.4,17.8,34.1,29.2c6.9,8.2,9.7,18.8,10.7,29.3
		c1.2,13.3,1.6,29.5-4.2,41.9c-4.8,10.3-14.4,16.1-24.7,20.1c-5,1.9-13.4,6.2-18.8,5.9c13.9,0.7,28.5-4.4,43.2-2.5
		c4.4,0.6,7.2,2.6,9.5,3.1c3.8,0.7,6.4-7.5,28.6-3.8c-1.8-3.2-3.8-4.5-6.1-8.3c-7.4-12.2-15.5-51.5-7.9-63c5.3-3.4,3-7.7,9.1-10.8
		c0.8-0.4,1.5-0.9,2.3-1.4c6.4-4,13.5-6.6,20.2-10.1c6.2-3.3,12.3-7,18.7-9.8c1.5-0.7,3.1-1.5,4.8-2.5c2.6-1.5,5.6-3.3,8.7-2.9
		c3.5,0.5,6.4,3.6,7.4,6.8c1.2,3.5,0.5,7.8-2.3,10.5c-0.9,0.9-2,1.5-3.2,1.9c-2.4,0.8-5,0.5-7.1-0.7c-1-0.6-1.9-1.5-2.4-2.5
		c-0.6-1-0.9-2.1-0.9-3.2c-0.1-4,3.6-7.5,7.6-6.1c0.7,0.3,1.4,0.7,1.9,1.2c0.5,0.5,0.8,1.1,1,1.6c0.3,0.9,0.3,1.9,0.1,2.8
		c1.2-4.6-4.5-7.5-8.1-5c-0.8,0.5-1.5,1.4-2,2.3c-0.5,1-0.7,2.1-0.7,3.2c0,1.1,0.3,2.3,0.9,3.4c2.6,4.9,9.6,5.1,13.5,1.6
		C228.5,168.2,229.4,163.5,228.2,159.7z"/>
	<path id="XMLID_44_" class="st2" d="M155,120.2c0.7-1.4,1.8-3.9,4-4.7c1.8-0.7,3.4-0.1,3.9,1.1c0.2,0.4,0.1,0.8,0,1.3
		c-0.2,0.3-1.9,2.4-5.3,3.3c0,0,3.4,0,5.8-2.1c0.4,0.2,0.7,0.5,0.8,0.9c0.5,1.2-0.6,2.8-2.4,3.5c-3.9,1.5-8.7-1.1-8.7-1.1
		S154.3,121.8,155,120.2z"/>
	<path id="XMLID_43_" class="st3" d="M50.3,66.1c3.2-0.3,8.6-1.1,12.5,1.7c3.2,2.3,3.9,5.8,2.3,7.9c-0.5,0.7-1.3,1.2-2.2,1.4
		c-0.8-0.1-6.2-0.7-11.4-5.5c0,0,3.8,5.8,9.9,7.6c0.1,0.9-0.1,1.7-0.6,2.4c-1.6,2.2-5.4,2.1-8.6-0.2c-6.9-5-7.7-16.1-7.7-16.1
		S46.8,66.5,50.3,66.1z"/>
	<path id="XMLID_42_" class="st4" d="M140.4,34.3c1,3,2.9,8.2,0.9,12.6c-1.6,3.6-4.8,5-7.3,3.9c-0.8-0.4-1.4-1-1.8-1.8
		c-0.1-0.8-0.6-6.2,3-12.3c0,0-4.8,4.9-5.4,11.3c-0.9,0.2-1.7,0.2-2.5-0.1c-2.4-1.1-3.1-4.9-1.6-8.5c3.4-7.8,14.1-10.9,14.1-10.9
		S139.3,31,140.4,34.3z"/>
	<path id="XMLID_41_" class="st5" d="M107.3,16.2c1,3,2.9,8.2,0.9,12.6c-1.6,3.6-4.8,5-7.3,3.9c-0.8-0.4-1.4-1-1.8-1.8
		c-0.1-0.8-0.6-6.2,3-12.3c0,0-4.8,4.9-5.4,11.3c-0.9,0.2-1.7,0.2-2.5-0.1c-2.4-1.1-3.1-4.9-1.6-8.4c3.4-7.8,14.1-10.9,14.1-10.9
		S106.1,12.9,107.3,16.2z"/>
	<path id="XMLID_40_" class="st6" d="M191.8,20.1c1.2,3.5,3.3,9.5,1.1,14.6c-1.8,4.2-5.6,5.8-8.4,4.5c-0.9-0.4-1.6-1.2-2.1-2.1
		c-0.1-0.9-0.7-7.2,3.4-14.2c0,0-5.6,5.7-6.2,13c-1,0.3-2,0.3-2.9-0.1c-2.8-1.2-3.6-5.6-1.8-9.8c4-9,16.3-12.6,16.3-12.6
		S190.5,16.2,191.8,20.1z"/>
	<path id="XMLID_39_" class="st4" d="M201.9,36.8c-0.7,2.2-2.1,6.1-0.7,9.4c1.2,2.7,3.6,3.7,5.4,2.9c0.6-0.3,1-0.7,1.3-1.4
		c0.1-0.6,0.5-4.6-2.2-9.1c0,0,3.6,3.6,4,8.3c0.6,0.2,1.3,0.2,1.9-0.1c1.8-0.8,2.3-3.6,1.2-6.3c-2.5-5.8-10.5-8.1-10.5-8.1
		S202.7,34.3,201.9,36.8z"/>
	<path id="XMLID_38_" class="st5" d="M265.5,99.6c-1.6-0.5-4.4-1.4-6.7-0.4c-1.9,0.9-2.6,2.6-2,3.9c0.2,0.4,0.5,0.7,1,0.9
		c0.4,0,3.3,0.3,6.5-1.7c0,0-2.5,2.6-5.9,3c-0.1,0.5-0.1,0.9,0.1,1.3c0.6,1.3,2.6,1.6,4.5,0.8c4.1-1.9,5.7-7.6,5.7-7.6
		S267.3,100.2,265.5,99.6z"/>
	<path id="XMLID_37_" class="st2" d="M221.5,56.9c1,3,2.9,8.2,0.9,12.6c-1.6,3.6-4.8,5-7.3,3.9c-0.8-0.4-1.4-1-1.8-1.8
		c-0.1-0.8-0.6-6.2,3-12.3c0,0-4.8,4.9-5.4,11.3c-0.9,0.2-1.7,0.2-2.5-0.1c-2.4-1.1-3.2-4.9-1.6-8.5c3.4-7.8,14.1-10.9,14.1-10.9
		S220.4,53.5,221.5,56.9z"/>
	<path id="XMLID_36_" class="st3" d="M241.5,70c1,3,2.9,8.2,0.9,12.6c-1.6,3.6-4.8,5-7.3,3.9c-0.8-0.3-1.4-1-1.8-1.8
		c-0.1-0.8-0.6-6.2,3-12.3c0,0-4.8,4.9-5.4,11.3c-0.9,0.2-1.7,0.2-2.5-0.1c-2.4-1.1-3.1-4.9-1.6-8.5c3.4-7.8,14.1-10.9,14.1-10.9
		S240.4,66.7,241.5,70z"/>
	<path id="XMLID_35_" class="st3" d="M264.2,142.5c-3.4,0.3-9.2,1-13.3-2.1c-3.3-2.5-4-6.2-2.3-8.5c0.6-0.7,1.4-1.2,2.3-1.4
		c0.8,0.1,6.6,0.9,12,6.1c0,0-3.9-6.2-10.3-8.3c0-1,0.2-1.9,0.7-2.6c1.7-2.3,5.8-2.1,9.1,0.4c7.2,5.4,7.9,17.2,7.9,17.2
		S267.9,142.1,264.2,142.5z"/>
	<path id="XMLID_34_" class="st4" d="M57.7,36.6c2.4,2.1,6.6,5.7,7.1,10.5c0.4,3.9-1.7,6.7-4.4,7c-0.9,0.1-1.7-0.2-2.5-0.7
		c-0.5-0.6-3.6-5.1-3.5-12.1c0,0-1.8,6.7,0.9,12.4c-0.6,0.6-1.4,1.1-2.2,1.2c-2.7,0.3-5.1-2.7-5.6-6.6c-0.9-8.5,6.8-16.5,6.8-16.5
		S55.1,34.2,57.7,36.6z"/>
	<path id="XMLID_33_" class="st4" d="M24.5,76.5c1.9-2.1,5-5.8,9.3-6.3c3.5-0.4,6,1.5,6.2,3.9c0.1,0.8-0.1,1.5-0.6,2.2
		c-0.5,0.4-4.5,3.2-10.7,3.1c0,0,5.9,1.6,11-0.8c0.6,0.6,0.9,1.2,1,2c0.3,2.4-2.3,4.6-5.8,4.9c-7.5,0.8-14.6-6-14.6-6
		S22.4,78.8,24.5,76.5z"/>
	<path id="XMLID_32_" class="st5" d="M11.4,96.4c1.4-1.6,3.9-4.5,7.1-4.8c2.7-0.3,4.6,1.2,4.8,3c0.1,0.6-0.1,1.2-0.5,1.7
		c-0.4,0.3-3.4,2.5-8.2,2.4c0,0,4.5,1.2,8.5-0.6c0.4,0.4,0.7,0.9,0.8,1.5c0.2,1.8-1.8,3.5-4.4,3.8c-5.8,0.6-11.2-4.6-11.2-4.6
		S9.7,98.2,11.4,96.4z"/>
	<path id="XMLID_31_" class="st5" d="M35.5,126.2c0.4-1.3,1.1-3.7,3-4.8c1.5-0.9,3-0.5,3.6,0.5c0.2,0.3,0.2,0.7,0.2,1.1
		c-0.2,0.3-1.4,2.4-4.3,3.6c0,0,3-0.5,4.9-2.6c0.4,0.1,0.7,0.4,0.9,0.7c0.6,1-0.1,2.6-1.7,3.4c-3.3,1.9-7.9,0.2-7.9,0.2
		S35,127.7,35.5,126.2z"/>
	<path id="XMLID_30_" class="st6" d="M46.1,91c1.9-0.7,5.1-1.9,7.8-0.7c2.2,0.9,3.1,2.9,2.5,4.5c-0.2,0.5-0.6,0.9-1.1,1.1
		c-0.5,0.1-3.8,0.4-7.6-1.7c0,0,3.1,3,7,3.2c0.2,0.5,0.2,1.1,0,1.6c-0.6,1.5-3,2-5.2,1.1c-4.9-2.1-6.9-8.7-6.9-8.7S44,91.7,46.1,91z
		"/>
	<path id="XMLID_29_" class="st5" d="M196.3,52.7c0.5,1.5,1.5,4.2,0.5,6.4c-0.8,1.8-2.5,2.5-3.7,2c-0.4-0.2-0.7-0.5-0.9-0.9
		c0-0.4-0.3-3.2,1.5-6.3c0,0-2.5,2.5-2.8,5.7c-0.4,0.1-0.9,0.1-1.3-0.1c-1.3-0.5-1.6-2.5-0.8-4.3c1.8-4,7.2-5.6,7.2-5.6
		S195.8,51,196.3,52.7z"/>
	<path id="XMLID_28_" class="st5" d="M116.8,92.5c1.8,1.3,5,3.5,5.7,6.8c0.6,2.7-0.7,4.8-2.6,5.2c-0.6,0.1-1.2,0-1.8-0.3
		c-0.4-0.4-2.9-3.3-3.3-8.2c0,0-0.8,4.8,1.5,8.6c-0.4,0.5-0.9,0.8-1.5,1c-1.8,0.4-3.8-1.5-4.3-4.2c-1.2-5.9,3.6-12,3.6-12
		S114.8,91,116.8,92.5z"/>
	<path id="XMLID_27_" class="st4" d="M93.4,73.9c1.5,0.7,4,1.9,5,4.1c0.8,1.9,0.1,3.5-1.1,4.1c-0.4,0.2-0.9,0.2-1.3,0
		c-0.3-0.2-2.5-2-3.5-5.4c0,0,0.1,3.5,2.2,6c-0.2,0.4-0.5,0.7-0.9,0.9C92.4,84,90.8,82.9,90,81c-1.6-4,1-9.1,1-9.1
		S91.8,73.1,93.4,73.9z"/>
	<path id="XMLID_26_" class="st7" d="M83.4,96.1c0.8-0.9,2.1-2.6,3.9-2.9c1.5-0.2,2.6,0.5,2.8,1.5c0.1,0.3,0,0.7-0.2,1
		c-0.2,0.2-1.9,1.5-4.6,1.6c0,0,2.6,0.5,4.7-0.6c0.3,0.2,0.4,0.5,0.5,0.8c0.2,1-0.9,2-2.4,2.3c-3.2,0.5-6.5-2.3-6.5-2.3
		S82.5,97.1,83.4,96.1z"/>
	<path id="XMLID_25_" class="st6" d="M89.2,115.4c0.3-1.6,0.7-4.4,2.6-5.9c1.6-1.2,3.4-1.1,4.2,0c0.3,0.3,0.4,0.8,0.4,1.3
		c-0.1,0.4-1.2,2.9-4.3,4.8c0,0,3.4-1,5.1-3.8c0.5,0.1,0.8,0.3,1.1,0.7c0.8,1.1,0.3,2.9-1.3,4.2c-3.4,2.7-9,1.5-9,1.5
		S88.9,117.2,89.2,115.4z"/>
	<path id="XMLID_24_" class="st3" d="M147.8,112.1c-1.6-0.1-4.4-0.3-6.1-2.1c-1.4-1.5-1.3-3.3-0.3-4.2c0.3-0.3,0.8-0.5,1.2-0.5
		c0.4,0.1,3,1,5.1,3.9c0,0-1.3-3.3-4.2-4.8c0.1-0.5,0.2-0.9,0.6-1.2c1-0.9,2.9-0.5,4.3,1c3,3.2,2.2,8.8,2.2,8.8
		S149.6,112.2,147.8,112.1z"/>
	<path id="XMLID_23_" class="st6" d="M187.3,126c0.3-1.6,0.7-4.4,2.6-5.9c1.6-1.2,3.4-1.1,4.2,0c0.3,0.3,0.4,0.8,0.4,1.3
		c-0.1,0.4-1.2,2.9-4.3,4.8c0,0,3.4-1,5.1-3.8c0.5,0.1,0.8,0.3,1.1,0.7c0.8,1.1,0.3,2.9-1.3,4.2c-3.4,2.7-9,1.5-9,1.5
		S187,127.8,187.3,126z"/>
	<path id="XMLID_22_" class="st3" d="M211.7,126.6c-1.1,0.8-2.9,2.1-4.8,1.9c-1.6-0.2-2.5-1.3-2.4-2.4c0-0.4,0.2-0.7,0.5-0.9
		c0.3-0.1,2.3-1,5.2-0.3c0,0-2.5-1.3-5-0.8c-0.2-0.3-0.3-0.6-0.3-1c0.1-1.1,1.5-1.8,3.1-1.6c3.5,0.4,6,4.2,6,4.2
		S212.9,125.7,211.7,126.6z"/>
	<path id="XMLID_21_" class="st7" d="M130.1,18.2c0.5,1.6,1.5,4.4,0.5,6.7c-0.8,1.9-2.6,2.7-3.9,2.1c-0.4-0.2-0.8-0.5-1-1
		c0-0.4-0.3-3.3,1.6-6.5c0,0-2.6,2.6-2.9,6c-0.5,0.1-0.9,0.1-1.3-0.1c-1.3-0.6-1.7-2.6-0.8-4.5c1.8-4.2,7.5-5.8,7.5-5.8
		S129.5,16.4,130.1,18.2z"/>
	<path id="XMLID_20_" class="st7" d="M54.4,123.5c1.4,0.2,3.9,0.5,5.2,2.2c1.1,1.4,1,2.9,0.1,3.7c-0.3,0.3-0.7,0.4-1.1,0.4
		c-0.3-0.1-2.6-1-4.3-3.7c0,0,1,2.9,3.4,4.4c-0.1,0.4-0.3,0.7-0.6,1c-0.9,0.8-2.6,0.3-3.7-1.1c-2.4-2.9-1.6-7.9-1.6-7.9
		S52.8,123.3,54.4,123.5z"/>
	<path id="XMLID_19_" class="st7" d="M91.2,153.3c-1.4-0.2-3.9-0.5-5.2-2.2c-1.1-1.4-1-2.9-0.1-3.7c0.3-0.3,0.7-0.4,1.1-0.4
		c0.3,0.1,2.6,1,4.3,3.7c0,0-1-2.9-3.4-4.4c0.1-0.4,0.3-0.7,0.5-1c0.9-0.8,2.6-0.3,3.7,1.1c2.4,2.9,1.6,7.9,1.6,7.9
		S92.8,153.6,91.2,153.3z"/>
	<path id="XMLID_18_" class="st4" d="M200.4,72.8c1,3,2.9,8.2,0.9,12.6c-1.6,3.6-4.8,5-7.3,3.9c-0.8-0.4-1.4-1-1.8-1.8
		c-0.1-0.8-0.6-6.2,3-12.3c0,0-4.8,4.9-5.4,11.3c-0.9,0.2-1.7,0.2-2.5-0.1c-2.4-1.1-3.2-4.9-1.6-8.4c3.4-7.8,14.1-10.9,14.1-10.9
		S199.3,69.4,200.4,72.8z"/>
	<path id="XMLID_17_" class="st6" d="M149.1,57.9c0,2,0.2,5.5-1.8,7.9c-1.6,1.9-3.9,2.1-5.2,1c-0.4-0.4-0.7-0.9-0.8-1.5
		c0.1-0.5,0.8-3.9,4.2-6.9c0,0-3.9,2.1-5.4,5.8c-0.6,0-1.1-0.2-1.5-0.5c-1.3-1.1-1-3.6,0.7-5.4c3.6-4.1,10.7-4,10.7-4
		S149,55.6,149.1,57.9z"/>
	<path id="XMLID_16_" class="st2" d="M160.2,39.1c1.7,1.1,4.7,3,5.5,5.9c0.6,2.4-0.4,4.4-2.1,4.8c-0.5,0.1-1.1,0.1-1.6-0.2
		c-0.3-0.3-2.8-2.9-3.4-7.3c0,0-0.5,4.4,1.8,7.8c-0.3,0.5-0.8,0.8-1.3,0.9c-1.6,0.4-3.5-1.2-4.1-3.6c-1.4-5.3,2.7-11.1,2.7-11.1
		S158.3,37.9,160.2,39.1z"/>
	<path id="XMLID_15_" class="st2" d="M31.2,107.5c1-1.8,2.6-4.9,5.5-5.9c2.4-0.8,4.4,0.1,5,1.7c0.2,0.5,0.1,1.1-0.1,1.7
		c-0.3,0.4-2.6,3-7,3.9c0,0,4.4,0.1,7.6-2.4c0.5,0.3,0.9,0.7,1,1.2c0.6,1.6-0.9,3.6-3.3,4.4c-5.1,1.8-11.3-1.8-11.3-1.8
		S30.1,109.5,31.2,107.5z"/>
	<path id="XMLID_14_" class="st2" d="M249.6,115.6c-0.9,1.8-2.4,5-5.3,6.1c-2.3,0.9-4.4,0.1-5-1.5c-0.2-0.5-0.2-1.1,0-1.6
		c0.3-0.4,2.5-3.1,6.9-4.2c0,0-4.4,0-7.5,2.6c-0.5-0.3-0.9-0.7-1.1-1.2c-0.6-1.6,0.8-3.6,3.1-4.5c5.1-2,11.3,1.5,11.3,1.5
		S250.6,113.6,249.6,115.6z"/>
	<path id="XMLID_13_" class="st7" d="M178.7,54.7c0.9,2.4,2.6,6.6,1.1,10.3c-1.2,3-3.8,4.2-5.8,3.4c-0.7-0.3-1.2-0.8-1.5-1.5
		c-0.1-0.6-0.7-5.1,2.1-10.1c0,0-3.8,4.1-4.1,9.4c-0.7,0.2-1.4,0.2-2.1,0c-2-0.8-2.7-3.9-1.5-6.9c2.6-6.5,11.3-9.3,11.3-9.3
		S177.7,52,178.7,54.7z"/>
	<path id="XMLID_12_" class="st4" d="M163,79c-1,2.7-2.5,7.3-6.3,9.3c-3.1,1.6-6.1,0.8-7.2-1.3c-0.4-0.7-0.4-1.5-0.3-2.3
		c0.3-0.6,3-4.7,8.8-7c0,0-6.1,0.8-10,4.9c-0.7-0.3-1.3-0.8-1.7-1.5c-1.1-2.1,0.5-5.1,3.6-6.8c6.7-3.6,15.9,0.1,15.9,0.1
		S164.1,76,163,79z"/>
	<path id="XMLID_11_" class="st6" d="M236.1,105.4c-0.5,2.5-1.3,6.9-4.4,9.2c-2.5,1.9-5.4,1.6-6.6-0.2c-0.4-0.6-0.6-1.3-0.5-2
		c0.2-0.6,2-4.6,7-7.4c0,0-5.4,1.5-8.3,5.7c-0.7-0.2-1.3-0.5-1.7-1.1c-1.3-1.7-0.3-4.7,2.3-6.6c5.5-4.1,14.3-2,14.3-2
		S236.7,102.6,236.1,105.4z"/>
	<path id="XMLID_10_" class="st5" d="M173.9,86.8c2.2,0.4,6.1,1.1,8.2,3.8c1.7,2.3,1.4,4.8-0.1,5.9c-0.5,0.4-1.1,0.5-1.8,0.5
		c-0.5-0.2-4.1-1.8-6.6-6.2c0,0,1.4,4.8,5.2,7.3c-0.2,0.6-0.5,1.2-1,1.5c-1.5,1.2-4.1,0.3-5.8-2c-3.7-4.9-1.9-12.7-1.9-12.7
		S171.4,86.3,173.9,86.8z"/>
	<path id="XMLID_9_" class="st2" d="M214.2,88c0.3,1.7,0.9,4.6-0.4,6.8c-1.1,1.8-2.9,2.3-4.1,1.6c-0.4-0.2-0.7-0.6-0.8-1.1
		c0-0.4,0.1-3.3,2.4-6.3c0,0-2.9,2.3-3.7,5.6c-0.5,0.1-0.9,0-1.3-0.2c-1.2-0.7-1.3-2.8-0.2-4.6c2.4-3.9,8.3-4.8,8.3-4.8
		S213.9,86.1,214.2,88z"/>
	<path id="XMLID_8_" class="st2" d="M112.6,37.8c1.8,1.4,4.9,3.9,5.4,7.3c0.4,2.8-1,4.9-2.9,5.2c-0.6,0.1-1.2-0.1-1.8-0.4
		c-0.4-0.4-2.8-3.5-2.9-8.6c0,0-1,4.8,1.1,8.9c-0.4,0.5-1,0.8-1.6,0.9c-1.9,0.3-3.8-1.7-4.2-4.5c-0.9-6.1,4.3-12.1,4.3-12.1
		S110.6,36.2,112.6,37.8z"/>
	<path id="XMLID_7_" class="st3" d="M152.5,12c2.3,1.9,6.4,5.1,7.1,9.5c0.6,3.6-1.3,6.4-3.8,6.8c-0.8,0.1-1.6-0.1-2.4-0.5
		c-0.5-0.6-3.6-4.6-3.9-11.2c0,0-1.4,6.3,1.4,11.6c-0.6,0.6-1.3,1.1-2.1,1.2c-2.5,0.4-4.9-2.3-5.5-5.9c-1.2-7.9,5.7-15.8,5.7-15.8
		S149.9,9.9,152.5,12z"/>
	<path id="XMLID_6_" class="st3" d="M49.4,112.6c0.7-2.2,1.7-6,4.6-7.8c2.4-1.5,4.9-0.9,5.9,0.7c0.3,0.5,0.4,1.2,0.3,1.8
		c-0.3,0.5-2.2,3.9-6.8,6c0,0,4.9-0.9,7.8-4.4c0.6,0.2,1.1,0.6,1.4,1.1c1,1.6-0.2,4.1-2.6,5.6c-5.2,3.2-12.8,0.6-12.8,0.6
		S48.6,115.1,49.4,112.6z"/>
	<path id="XMLID_5_" class="st6" d="M78.2,25.4c1.1,0.9,3.1,2.4,3.4,4.5c0.3,1.7-0.6,3-1.8,3.2c-0.4,0.1-0.8,0-1.1-0.3
		c-0.2-0.3-1.7-2.2-1.8-5.4c0,0-0.7,3,0.7,5.6c-0.3,0.3-0.6,0.5-1,0.6c-1.2,0.2-2.4-1.1-2.6-2.8c-0.6-3.8,2.7-7.5,2.7-7.5
		S76.9,24.4,78.2,25.4z"/>
	<path id="XMLID_4_" class="st7" d="M249.1,95.2c-0.5,1-1.3,2.9-2.9,3.5c-1.3,0.5-2.5,0.1-2.9-0.8c-0.1-0.3-0.1-0.6,0-0.9
		c0.2-0.2,1.4-1.8,3.9-2.5c0,0-2.5,0.1-4.2,1.6c-0.3-0.2-0.5-0.4-0.6-0.7c-0.4-0.9,0.4-2.1,1.7-2.6c2.9-1.2,6.4,0.7,6.4,0.7
		S249.6,94,249.1,95.2z"/>
	<path id="XMLID_3_" class="st4" d="M238.4,140.5c-1.4-1.5-3.7-4-6.7-4.3c-2.5-0.2-4.2,1.2-4.3,2.8c0,0.6,0.1,1.1,0.5,1.6
		c0.4,0.3,3.2,2.2,7.7,2.1c0,0-4.2,1.2-7.8-0.4c-0.4,0.4-0.6,0.9-0.7,1.4c-0.1,1.7,1.7,3.2,4.2,3.4c5.3,0.5,10.3-4.5,10.3-4.5
		S239.9,142.1,238.4,140.5z"/>
</g>
</svg>
