<?xml version="1.0" encoding="utf-8"?>
<!-- Generator: Adobe Illustrator 19.0.0, SVG Export Plug-In . SVG Version: 6.00 Build 0)  -->
<svg version="1.1" id="Layer_1" xmlns="http://www.w3.org/2000/svg" xmlns:xlink="http://www.w3.org/1999/xlink" x="0px" y="0px"
	 viewBox="168 -115.3 1296 791.3" style="enable-background:new 168 -115.3 1296 791.3;" xml:space="preserve">
<style type="text/css">
	.st0{display:none;fill:#1E110B;stroke:#000000;stroke-width:0.25;stroke-miterlimit:10;}
	.st1{display:none;fill:#1E110B;}
	.st2{fill:#FFFFFF;}
	.st3{fill:#CCCCCC;}
	.st4{fill:#44281F;}
</style>
<rect id="XMLID_948_" x="-1172" y="-839.9" class="st0" width="795" height="676.2"/>
<rect id="XMLID_1041_" x="-1172" y="-115.3" class="st1" width="1290" height="791.3"/>
<g id="XMLID_1155_">
	<g id="XMLID_1467_">
		<path id="XMLID_1471_" class="st2" d="M1189.4,1.2H442.8c-12.4,0-22.5,10.1-22.5,22.5v504.2c0,12.4,10.1,22.5,22.5,22.5h746.6
			c12.4,0,22.5-10.1,22.5-22.5V23.7C1211.9,11.3,1201.8,1.2,1189.4,1.2z"/>
		<path id="XMLID_1470_" class="st2" d="M367.6,550.3h896.9h18.2c53,0-117.5,17.7-125.6,17.7H1137H495h-20
			c-8.1,0-178.6-17.7-125.6-17.7H367.6z"/>
		<path id="XMLID_1469_" class="st3" d="M1207.6,527.5v0.3c0,10-8.2,18.2-18.2,18.2H442.8c-10,0-18.2-8.2-18.2-18.2v-0.3H1207.6z"/>
		<rect id="XMLID_1468_" x="452.4" y="36.5" class="st4" width="727.3" height="459.2"/>
	</g>
</g>
<rect id="XMLID_1344_" x="-1171.5" y="724.6" class="st0" width="679.5" height="118.5"/>
</svg>
