<?xml version="1.0" encoding="utf-8"?>
<!-- Generator: Adobe Illustrator 19.0.0, SVG Export Plug-In . SVG Version: 6.00 Build 0)  -->
<svg version="1.1" id="Layer_1" xmlns="http://www.w3.org/2000/svg" xmlns:xlink="http://www.w3.org/1999/xlink" x="0px" y="0px"
	 viewBox="0 0 1835 1160" style="enable-background:new 0 0 1835 1160;" xml:space="preserve">
<style type="text/css">
	.st0{fill:#FFFFFF;}
	.st1{fill:#B5B5B5;stroke:#020202;stroke-width:4;stroke-miterlimit:10;}
	.st2{fill:none;stroke:#000000;stroke-width:4;stroke-miterlimit:10;}
	.st3{fill:#F0961E;stroke:#020202;stroke-width:4;stroke-miterlimit:10;}
	.st4{fill:#FFFFFF;stroke:#020202;stroke-width:4;stroke-miterlimit:10;}
	.st5{fill:none;stroke:#020202;stroke-width:4;stroke-miterlimit:10;}
	.st6{fill:#50B8B9;stroke:#020202;stroke-width:4;stroke-miterlimit:10;}
	.st7{fill:#4B4B4B;stroke:#020202;stroke-width:4;stroke-miterlimit:10;}
	.st8{fill:#020202;stroke:#FFFFFF;stroke-width:4;stroke-miterlimit:10;}
	.st9{fill:#020202;}
	.st10{font-family:'MyriadPro-Bold';}
	.st11{font-size:66.9709px;}
	.st12{letter-spacing:15;}
	.st13{font-family:'MyriadPro-Regular';}
</style>
<rect id="XMLID_1_" class="st0" width="1835" height="1160"/>
<polygon id="XMLID_74_" class="st1" points="855,738 942,738 929.3,626 873,626 "/>
<path id="XMLID_12_" class="st2" d="M1455.3,730.3H1437c-6.6,0-12-5.4-12-12v-62.7c0-6.6,5.4-12,12-12h18.3c6.6,0,12,5.4,12,12v62.7
	C1467.3,724.9,1461.9,730.3,1455.3,730.3z"/>
<rect id="XMLID_2_" x="266.7" y="764.6" class="st3" width="1299.9" height="30"/>
<path id="XMLID_6_" class="st4" d="M1538.7,764.6h-46c-6.6,0-12-5.4-12-12v0c0-19.3,12.8-22.2,32-22.2h0c19.3,0,38,3,38,22.2v0
	C1550.7,759.2,1545.3,764.6,1538.7,764.6z"/>
<line id="XMLID_7_" class="st5" x1="1483" y1="747" x2="1506" y2="747"/>
<line id="XMLID_8_" class="st5" x1="1516" y1="747" x2="1522" y2="747"/>
<rect id="XMLID_9_" x="1347.3" y="626.3" class="st6" width="92.7" height="138.2"/>
<g id="XMLID_10_">
	<path id="XMLID_14_" class="st0" d="M1360,647L1360,647c-1.1,0-2-0.9-2-2v-9c0-1.1,0.9-2,2-2l0,0c1.1,0,2,0.9,2,2v9
		C1362,646.1,1361.1,647,1360,647z"/>
</g>
<g id="XMLID_11_">
	<path id="XMLID_13_" class="st0" d="M1360,726L1360,726c-1.1,0-2-0.9-2-2v-69c0-1.1,0.9-2,2-2l0,0c1.1,0,2,0.9,2,2v69
		C1362,725.1,1361.1,726,1360,726z"/>
</g>
<rect id="XMLID_15_" x="1178" y="742.8" class="st7" width="136.5" height="21.8"/>
<rect id="XMLID_16_" x="1192.1" y="725" class="st7" width="110.4" height="17.2"/>
<polyline id="XMLID_18_" class="st5" points="1213,657 1213,724 1281,724 1281,657 "/>
<polyline id="XMLID_19_" class="st5" points="1213,590 1213,657 1281,657 1281,590 "/>
<polyline id="XMLID_20_" class="st5" points="1213,522 1213,590 1281,590 1281,522 "/>
<polyline id="XMLID_21_" class="st5" points="1213,455 1213,522 1281,522 1281,455 "/>
<polyline id="XMLID_22_" class="st5" points="1213,388 1213,455 1281,455 1281,388 "/>
<polyline id="XMLID_23_" class="st5" points="1213,321 1213,388 1281,388 1281,321 "/>
<polyline id="XMLID_24_" class="st5" points="1213,254 1213,321 1281,321 1281,254 "/>
<polyline id="XMLID_25_" class="st5" points="1213,187 1213,254 1281,254 1281,187 "/>
<line id="XMLID_17_" class="st5" x1="1213" y1="656.8" x2="1279.5" y2="723.3"/>
<line id="XMLID_26_" class="st5" x1="1213" y1="724" x2="1281.1" y2="656.8"/>
<line id="XMLID_29_" class="st5" x1="1213" y1="589.6" x2="1279.5" y2="656.1"/>
<line id="XMLID_28_" class="st5" x1="1213" y1="656.8" x2="1281.1" y2="589.6"/>
<line id="XMLID_31_" class="st5" x1="1213" y1="522.5" x2="1279.5" y2="589"/>
<line id="XMLID_30_" class="st5" x1="1213" y1="589.6" x2="1281.1" y2="522.5"/>
<line id="XMLID_33_" class="st5" x1="1213" y1="455.3" x2="1279.5" y2="521.8"/>
<line id="XMLID_32_" class="st5" x1="1213" y1="522.5" x2="1281.1" y2="455.3"/>
<line id="XMLID_35_" class="st5" x1="1213" y1="388.1" x2="1279.5" y2="454.6"/>
<line id="XMLID_34_" class="st5" x1="1213" y1="455.3" x2="1281.1" y2="388.1"/>
<polyline id="XMLID_112_" class="st5" points="520,695 520,762 588,762 588,695 "/>
<polyline id="XMLID_111_" class="st5" points="520,628 520,695 588,695 588,628 "/>
<polyline id="XMLID_110_" class="st5" points="520,560 520,628 588,628 588,560 "/>
<polyline id="XMLID_109_" class="st5" points="520,493 520,560 588,560 588,493 "/>
<polyline id="XMLID_108_" class="st5" points="520,426 520,493 588,493 588,426 "/>
<line id="XMLID_107_" class="st5" x1="520" y1="694.8" x2="586.5" y2="761.3"/>
<line id="XMLID_106_" class="st5" x1="520" y1="762" x2="588.1" y2="694.8"/>
<line id="XMLID_105_" class="st5" x1="520" y1="627.6" x2="586.5" y2="694.1"/>
<line id="XMLID_104_" class="st5" x1="520" y1="694.8" x2="588.1" y2="627.6"/>
<line id="XMLID_103_" class="st5" x1="520" y1="560.5" x2="586.5" y2="627"/>
<line id="XMLID_102_" class="st5" x1="520" y1="627.6" x2="588.1" y2="560.5"/>
<line id="XMLID_101_" class="st5" x1="520" y1="493.3" x2="586.5" y2="559.8"/>
<line id="XMLID_100_" class="st5" x1="520" y1="560.5" x2="588.1" y2="493.3"/>
<line id="XMLID_99_" class="st5" x1="520" y1="426.1" x2="586.5" y2="492.6"/>
<line id="XMLID_98_" class="st5" x1="520" y1="493.3" x2="588.1" y2="426.1"/>
<line id="XMLID_37_" class="st5" x1="1213" y1="320.9" x2="1279.5" y2="387.4"/>
<line id="XMLID_36_" class="st5" x1="1213" y1="388.1" x2="1281.1" y2="320.9"/>
<line id="XMLID_39_" class="st5" x1="1213" y1="253.7" x2="1279.5" y2="320.2"/>
<line id="XMLID_38_" class="st5" x1="1213" y1="320.9" x2="1281.1" y2="253.7"/>
<line id="XMLID_41_" class="st5" x1="1213" y1="186.6" x2="1279.5" y2="253.1"/>
<line id="XMLID_40_" class="st5" x1="1213" y1="253.7" x2="1281.1" y2="186.6"/>
<polyline id="XMLID_44_" class="st5" points="1213,120 1213,187 1281,187 1281,120 "/>
<line id="XMLID_43_" class="st5" x1="1213" y1="119.6" x2="1279.5" y2="186.1"/>
<line id="XMLID_42_" class="st5" x1="1213" y1="186.7" x2="1281.1" y2="119.6"/>
<line id="XMLID_27_" class="st5" x1="1213" y1="120" x2="1281" y2="120"/>
<polyline id="XMLID_49_" class="st5" points="1281,187 1281,254 1349,254 1349,187 "/>
<line id="XMLID_48_" class="st5" x1="1281" y1="186.6" x2="1347.5" y2="253.1"/>
<line id="XMLID_47_" class="st5" x1="1281" y1="253.7" x2="1349.1" y2="186.6"/>
<line id="XMLID_46_" class="st5" x1="1281" y1="187" x2="1349" y2="187"/>
<polyline id="XMLID_53_" class="st5" points="1349,187 1349,254 1417,254 1417,187 "/>
<line id="XMLID_52_" class="st5" x1="1349" y1="186.6" x2="1415.5" y2="253.1"/>
<line id="XMLID_51_" class="st5" x1="1349" y1="253.7" x2="1417.1" y2="186.6"/>
<line id="XMLID_50_" class="st5" x1="1349" y1="187" x2="1417" y2="187"/>
<polyline id="XMLID_57_" class="st5" points="1145,187 1145,254 1213,254 1213,187 "/>
<line id="XMLID_56_" class="st5" x1="1145" y1="186.6" x2="1211.5" y2="253.1"/>
<line id="XMLID_55_" class="st5" x1="1145" y1="253.7" x2="1213.1" y2="186.6"/>
<line id="XMLID_54_" class="st5" x1="1145" y1="187" x2="1213" y2="187"/>
<polyline id="XMLID_61_" class="st5" points="1077,187 1077,254 1145,254 1145,187 "/>
<line id="XMLID_60_" class="st5" x1="1077" y1="186.6" x2="1143.5" y2="253.1"/>
<line id="XMLID_59_" class="st5" x1="1077" y1="253.7" x2="1145.1" y2="186.6"/>
<line id="XMLID_58_" class="st5" x1="1077" y1="187" x2="1145" y2="187"/>
<line id="XMLID_63_" class="st5" x1="1009" y1="253.7" x2="1077.1" y2="186.6"/>
<line id="XMLID_62_" class="st5" x1="1009" y1="253" x2="1077" y2="253"/>
<rect id="XMLID_45_" x="1163.8" y="254.3" class="st3" width="47.7" height="47.7"/>
<rect id="XMLID_64_" x="1174.7" y="265.2" class="st4" width="26" height="26"/>
<rect id="XMLID_65_" x="1021.3" y="254.3" class="st7" width="142.5" height="10.8"/>
<rect id="XMLID_66_" x="1120" y="749.3" class="st4" width="43.8" height="15.2"/>
<rect id="XMLID_68_" x="1076.2" y="749.3" class="st4" width="43.8" height="15.2"/>
<rect id="XMLID_69_" x="1030.2" y="749.3" class="st4" width="43.8" height="15.2"/>
<rect id="XMLID_70_" x="1052.1" y="733.6" class="st4" width="43.8" height="15.2"/>
<rect id="XMLID_71_" x="1098.1" y="734" class="st4" width="43.8" height="15.2"/>
<rect id="XMLID_72_" x="1076.2" y="717.4" class="st4" width="43.8" height="15.2"/>
<rect id="XMLID_67_" x="838.5" y="738.4" class="st1" width="123" height="21.8"/>
<path id="XMLID_84_" class="st1" d="M1137,386v266.6c0,16.5-13.7,29.4-30.2,29.4H693.2c-16.5,0-30.2-12.9-30.2-29.4V386
	c0-16.5,13.7-30,30.2-30h413.7C1123.3,356,1137,369.6,1137,386z"/>
<path id="XMLID_82_" class="st7" d="M1137,386v258H663V386c0-16.5,13.7-30,30.2-30h413.7C1123.3,356,1137,369.6,1137,386z"/>
<rect id="XMLID_73_" x="673" y="376" class="st4" width="454" height="259.3"/>
<circle id="XMLID_75_" class="st1" cx="900" cy="663" r="7.4"/>
<rect id="XMLID_76_" x="673" y="376" class="st1" width="454" height="12.1"/>
<rect id="XMLID_77_" x="673" y="435" class="st6" width="454" height="47.7"/>
<rect id="XMLID_78_" x="684.5" y="505.7" class="st3" width="122" height="66"/>
<line id="XMLID_79_" class="st5" x1="685" y1="585" x2="806" y2="585"/>
<line id="XMLID_81_" class="st5" x1="689" y1="594" x2="802" y2="594"/>
<line id="XMLID_83_" class="st5" x1="695" y1="603" x2="796" y2="603"/>
<rect id="XMLID_88_" x="837.5" y="505.7" class="st3" width="122" height="66"/>
<line id="XMLID_87_" class="st5" x1="838" y1="585" x2="959" y2="585"/>
<line id="XMLID_86_" class="st5" x1="842" y1="594" x2="955" y2="594"/>
<line id="XMLID_85_" class="st5" x1="848" y1="603" x2="949" y2="603"/>
<rect id="XMLID_92_" x="990.5" y="475.7" class="st3" width="122" height="66"/>
<line id="XMLID_91_" class="st5" x1="991" y1="585" x2="1112" y2="585"/>
<line id="XMLID_90_" class="st5" x1="995" y1="594" x2="1108" y2="594"/>
<line id="XMLID_89_" class="st5" x1="1001" y1="603" x2="1102" y2="603"/>
<line id="XMLID_80_" class="st5" x1="1051" y1="265" x2="1051" y2="422"/>
<rect id="XMLID_93_" x="1046" y="412" class="st4" width="10.3" height="26.3"/>
<path id="XMLID_94_" class="st5" d="M1049.7,438.7c5.7,0,10.3,4.6,10.3,10.3s-4.6,10.3-10.3,10.3c-5.7,0-10.3-4.6-10.3-10.3"/>
<line id="XMLID_95_" class="st5" x1="990.5" y1="475.7" x2="1049.7" y2="459.3"/>
<line id="XMLID_97_" class="st5" x1="1110.7" y1="475.7" x2="1051.5" y2="459.3"/>
<path id="XMLID_96_" class="st7" d="M691.8,761.6H611c-6.6,0-12-5.4-12-12V600c0-6.6,5.4-12,12-12h80.8c6.6,0,12,5.4,12,12v149.6
	C703.8,756.2,698.4,761.6,691.8,761.6z"/>
<rect id="XMLID_113_" x="608.7" y="610.7" class="st4" width="83.3" height="127.8"/>
<line id="XMLID_114_" class="st8" x1="636" y1="599" x2="661" y2="599"/>
<rect id="XMLID_115_" x="618.7" y="618.7" class="st6" width="16.7" height="16.7"/>
<rect id="XMLID_117_" x="661" y="618.7" class="st3" width="16.7" height="16.7"/>
<rect id="XMLID_119_" x="619" y="647.2" class="st3" width="16.7" height="16.7"/>
<rect id="XMLID_118_" x="661.3" y="647.2" class="st6" width="16.7" height="16.7"/>
<rect id="XMLID_121_" x="619" y="674.8" class="st6" width="16.7" height="16.7"/>
<rect id="XMLID_120_" x="661.3" y="674.8" class="st3" width="16.7" height="16.7"/>
<rect id="XMLID_123_" x="619" y="700.7" class="st3" width="16.7" height="16.7"/>
<rect id="XMLID_122_" x="661.3" y="700.7" class="st6" width="16.7" height="16.7"/>
<line id="XMLID_116_" class="st5" x1="619" y1="729" x2="678" y2="729"/>
<circle id="XMLID_124_" class="st5" cx="648.1" cy="752.2" r="2.4"/>
<rect id="XMLID_125_" x="278.3" y="671.4" class="st6" width="124.3" height="68.3"/>
<polygon id="XMLID_126_" class="st4" points="444,739.7 402.7,739.7 402.7,693.5 426.7,693.5 444,710.5 "/>
<polyline id="XMLID_127_" class="st4" points="417,694 417,713 444,713.8 "/>
<line id="XMLID_128_" class="st5" x1="278" y1="686" x2="403" y2="686"/>
<line id="XMLID_129_" class="st5" x1="278" y1="717" x2="403" y2="717"/>
<circle id="XMLID_130_" class="st1" cx="309" cy="751.3" r="11.6"/>
<circle id="XMLID_132_" class="st1" cx="334" cy="751.3" r="11.6"/>
<circle id="XMLID_131_" class="st5" cx="334" cy="751.3" r="6.5"/>
<circle id="XMLID_136_" class="st1" cx="423" cy="752.3" r="11.6"/>
<circle id="XMLID_135_" class="st5" cx="423" cy="752.3" r="6.5"/>
<circle id="XMLID_134_" class="st5" cx="309" cy="751.3" r="6.5"/>
<circle id="XMLID_133_" class="st6" cx="570.4" cy="267.2" r="86.7"/>
<circle id="XMLID_137_" class="st4" cx="570.4" cy="267.2" r="74.6"/>
<circle id="XMLID_138_" class="st4" cx="570.4" cy="267.2" r="7.5"/>
<circle id="XMLID_140_" class="st8" cx="570.4" cy="204.2" r="7.5"/>
<circle id="XMLID_141_" class="st8" cx="538.9" cy="212.6" r="7.5"/>
<circle id="XMLID_142_" class="st8" cx="515.8" cy="235.7" r="7.5"/>
<circle id="XMLID_143_" class="st8" cx="507.4" cy="267.2" r="7.5"/>
<circle id="XMLID_144_" class="st8" cx="515.8" cy="298.7" r="7.5"/>
<circle id="XMLID_145_" class="st8" cx="538.9" cy="321.8" r="7.5"/>
<circle id="XMLID_146_" class="st8" cx="570.4" cy="330.2" r="7.5"/>
<circle id="XMLID_147_" class="st8" cx="601.9" cy="321.8" r="7.5"/>
<circle id="XMLID_148_" class="st8" cx="625" cy="298.7" r="7.5"/>
<circle id="XMLID_149_" class="st8" cx="633.4" cy="267.2" r="7.5"/>
<circle id="XMLID_150_" class="st8" cx="625" cy="235.7" r="7.5"/>
<circle id="XMLID_151_" class="st8" cx="601.9" cy="212.6" r="7.5"/>
<g id="XMLID_153_">
	<circle id="XMLID_165_" class="st9" cx="1362.4" cy="462.2" r="3.7"/>
	<circle id="XMLID_164_" class="st9" cx="1346.9" cy="466.4" r="3.7"/>
	<circle id="XMLID_163_" class="st9" cx="1335.6" cy="477.7" r="3.7"/>
	<circle id="XMLID_162_" class="st9" cx="1331.4" cy="493.2" r="3.7"/>
	<circle id="XMLID_161_" class="st9" cx="1335.6" cy="508.7" r="3.7"/>
	<circle id="XMLID_160_" class="st9" cx="1346.9" cy="520" r="3.7"/>
	<circle id="XMLID_159_" class="st9" cx="1362.4" cy="524.2" r="3.7"/>
	<circle id="XMLID_158_" class="st9" cx="1377.9" cy="520" r="3.7"/>
	<circle id="XMLID_157_" class="st9" cx="1389.3" cy="508.7" r="3.7"/>
	<circle id="XMLID_156_" class="st9" cx="1393.4" cy="493.2" r="3.7"/>
	<circle id="XMLID_155_" class="st9" cx="1389.3" cy="477.7" r="3.7"/>
	<circle id="XMLID_154_" class="st9" cx="1377.9" cy="466.4" r="3.7"/>
</g>
<g id="XMLID_180_">
	<circle id="XMLID_192_" class="st9" cx="865.4" cy="838.2" r="3.7"/>
	<circle id="XMLID_191_" class="st9" cx="849.9" cy="842.4" r="3.7"/>
	<circle id="XMLID_190_" class="st9" cx="838.6" cy="853.7" r="3.7"/>
	<circle id="XMLID_189_" class="st9" cx="834.4" cy="869.2" r="3.7"/>
	<circle id="XMLID_188_" class="st9" cx="838.6" cy="884.7" r="3.7"/>
	<circle id="XMLID_187_" class="st9" cx="849.9" cy="896" r="3.7"/>
	<circle id="XMLID_186_" class="st9" cx="865.4" cy="900.2" r="3.7"/>
	<circle id="XMLID_185_" class="st9" cx="880.9" cy="896" r="3.7"/>
	<circle id="XMLID_184_" class="st9" cx="892.3" cy="884.7" r="3.7"/>
	<circle id="XMLID_183_" class="st9" cx="896.4" cy="869.2" r="3.7"/>
	<circle id="XMLID_182_" class="st9" cx="892.3" cy="853.7" r="3.7"/>
	<circle id="XMLID_181_" class="st9" cx="880.9" cy="842.4" r="3.7"/>
</g>
<circle id="XMLID_179_" class="st9" cx="416.4" cy="345.2" r="3.7"/>
<circle id="XMLID_193_" class="st9" cx="689.4" cy="99.2" r="3.7"/>
<circle id="XMLID_197_" class="st9" cx="707.4" cy="99.2" r="3.7"/>
<circle id="XMLID_198_" class="st9" cx="725.4" cy="99.2" r="3.7"/>
<circle id="XMLID_199_" class="st9" cx="743.4" cy="99.2" r="3.7"/>
<circle id="XMLID_200_" class="st9" cx="761.4" cy="99.2" r="3.7"/>
<circle id="XMLID_201_" class="st9" cx="779.4" cy="99.2" r="3.7"/>
<circle id="XMLID_212_" class="st9" cx="1401.4" cy="421.2" r="3.7"/>
<circle id="XMLID_211_" class="st9" cx="1419.4" cy="421.2" r="3.7"/>
<circle id="XMLID_210_" class="st9" cx="1437.4" cy="421.2" r="3.7"/>
<circle id="XMLID_209_" class="st9" cx="1455.4" cy="421.2" r="3.7"/>
<circle id="XMLID_208_" class="st9" cx="1473.4" cy="421.2" r="3.7"/>
<circle id="XMLID_202_" class="st9" cx="1491.4" cy="421.2" r="3.7"/>
<circle id="XMLID_218_" class="st9" cx="1511.4" cy="421.2" r="3.7"/>
<circle id="XMLID_217_" class="st9" cx="1529.4" cy="421.2" r="3.7"/>
<circle id="XMLID_216_" class="st9" cx="1547.4" cy="421.2" r="3.7"/>
<circle id="XMLID_215_" class="st9" cx="1565.4" cy="421.2" r="3.7"/>
<circle id="XMLID_214_" class="st9" cx="1583.4" cy="421.2" r="3.7"/>
<circle id="XMLID_213_" class="st9" cx="1601.4" cy="421.2" r="3.7"/>
<circle id="XMLID_251_" class="st9" cx="1305.4" cy="859.2" r="3.7"/>
<circle id="XMLID_250_" class="st9" cx="1323.4" cy="859.2" r="3.7"/>
<circle id="XMLID_249_" class="st9" cx="1341.4" cy="859.2" r="3.7"/>
<circle id="XMLID_248_" class="st9" cx="1359.4" cy="859.2" r="3.7"/>
<circle id="XMLID_247_" class="st9" cx="1377.4" cy="859.2" r="3.7"/>
<circle id="XMLID_246_" class="st9" cx="1395.4" cy="859.2" r="3.7"/>
<circle id="XMLID_245_" class="st9" cx="1415.4" cy="859.2" r="3.7"/>
<circle id="XMLID_244_" class="st9" cx="1433.4" cy="859.2" r="3.7"/>
<circle id="XMLID_243_" class="st9" cx="1451.4" cy="859.2" r="3.7"/>
<circle id="XMLID_242_" class="st9" cx="1469.4" cy="859.2" r="3.7"/>
<circle id="XMLID_241_" class="st9" cx="1487.4" cy="859.2" r="3.7"/>
<circle id="XMLID_240_" class="st9" cx="1505.4" cy="859.2" r="3.7"/>
<circle id="XMLID_233_" class="st9" cx="268.4" cy="556.2" r="3.7"/>
<circle id="XMLID_232_" class="st9" cx="286.4" cy="556.2" r="3.7"/>
<circle id="XMLID_231_" class="st9" cx="304.4" cy="556.2" r="3.7"/>
<circle id="XMLID_230_" class="st9" cx="322.4" cy="556.2" r="3.7"/>
<circle id="XMLID_229_" class="st9" cx="340.4" cy="556.2" r="3.7"/>
<circle id="XMLID_228_" class="st9" cx="358.4" cy="556.2" r="3.7"/>
<circle id="XMLID_227_" class="st9" cx="378.4" cy="556.2" r="3.7"/>
<circle id="XMLID_226_" class="st9" cx="396.4" cy="556.2" r="3.7"/>
<circle id="XMLID_225_" class="st9" cx="414.4" cy="556.2" r="3.7"/>
<circle id="XMLID_224_" class="st9" cx="432.4" cy="556.2" r="3.7"/>
<circle id="XMLID_221_" class="st9" cx="1497.4" cy="571.2" r="3.7"/>
<circle id="XMLID_220_" class="st9" cx="1515.4" cy="571.2" r="3.7"/>
<circle id="XMLID_219_" class="st9" cx="1533.4" cy="571.2" r="3.7"/>
<circle id="XMLID_207_" class="st9" cx="475.4" cy="153.2" r="3.7"/>
<circle id="XMLID_206_" class="st9" cx="493.4" cy="153.2" r="3.7"/>
<circle id="XMLID_205_" class="st9" cx="511.4" cy="153.2" r="3.7"/>
<circle id="XMLID_204_" class="st9" cx="529.4" cy="153.2" r="3.7"/>
<circle id="XMLID_203_" class="st9" cx="547.4" cy="153.2" r="3.7"/>
<circle id="XMLID_178_" class="st9" cx="400.9" cy="349.4" r="3.7"/>
<circle id="XMLID_177_" class="st9" cx="389.6" cy="360.7" r="3.7"/>
<circle id="XMLID_176_" class="st9" cx="385.4" cy="376.2" r="3.7"/>
<circle id="XMLID_175_" class="st9" cx="389.6" cy="391.7" r="3.7"/>
<circle id="XMLID_174_" class="st9" cx="400.9" cy="403" r="3.7"/>
<circle id="XMLID_173_" class="st9" cx="416.4" cy="407.2" r="3.7"/>
<circle id="XMLID_172_" class="st9" cx="431.9" cy="403" r="3.7"/>
<circle id="XMLID_171_" class="st9" cx="443.3" cy="391.7" r="3.7"/>
<circle id="XMLID_170_" class="st9" cx="447.4" cy="376.2" r="3.7"/>
<circle id="XMLID_169_" class="st9" cx="443.3" cy="360.7" r="3.7"/>
<circle id="XMLID_168_" class="st9" cx="431.9" cy="349.4" r="3.7"/>
<line id="XMLID_139_" class="st2" x1="570" y1="260" x2="570" y2="220"/>
<line id="XMLID_152_" class="st2" x1="575.9" y1="263.8" x2="597.1" y2="242.6"/>
<g id="XMLID_166_">
	<path id="XMLID_196_" class="st9" d="M728,169H627c-1.1,0-2-0.9-2-2l0,0c0-1.1,0.9-2,2-2h101c1.1,0,2,0.9,2,2l0,0
		C730,168.1,729.1,169,728,169z"/>
</g>
<g id="XMLID_194_">
	<path id="XMLID_195_" class="st9" d="M693,139h-66c-1.1,0-2-0.9-2-2l0,0c0-1.1,0.9-2,2-2h66c1.1,0,2,0.9,2,2l0,0
		C695,138.1,694.1,139,693,139z"/>
</g>
<g id="XMLID_234_">
	<path id="XMLID_235_" class="st9" d="M529.6,859.4h-101c-1.1,0-2-0.9-2-2l0,0c0-1.1,0.9-2,2-2h101c1.1,0,2,0.9,2,2l0,0
		C531.6,858.5,530.7,859.4,529.6,859.4z"/>
</g>
<g id="XMLID_236_">
	<path id="XMLID_237_" class="st9" d="M904.1,936h-101c-1.1,0-2-0.9-2-2l0,0c0-1.1,0.9-2,2-2h101c1.1,0,2,0.9,2,2l0,0
		C906.1,935.1,905.2,936,904.1,936z"/>
</g>
<g id="XMLID_238_">
	<path id="XMLID_239_" class="st9" d="M1238.2,827.4h-101c-1.1,0-2-0.9-2-2l0,0c0-1.1,0.9-2,2-2h101c1.1,0,2,0.9,2,2l0,0
		C1240.2,826.5,1239.3,827.4,1238.2,827.4z"/>
</g>
<g id="XMLID_222_">
	<path id="XMLID_223_" class="st9" d="M494.6,829.4h-66c-1.1,0-2-0.9-2-2l0,0c0-1.1,0.9-2,2-2h66c1.1,0,2,0.9,2,2l0,0
		C496.6,828.5,495.7,829.4,494.6,829.4z"/>
</g>
<circle id="XMLID_167_" class="st5" cx="1402.1" cy="362.5" r="21"/>
<circle id="XMLID_253_" class="st5" cx="403.1" cy="235.5" r="21"/>
<text id="XMLID_3_" transform="matrix(1 0 0 1 267.6143 1043.4301)"><tspan x="0" y="0" class="st10 st11 st12">WEB</tspan><tspan x="173.7" y="0" class="st13 st11 st12">SITE</tspan><tspan x="352.7" y="0" class="st10 st11 st12">UNDER</tspan><tspan x="633.4" y="0" class="st13 st11 st12">CONSTRUCTION</tspan></text>
</svg>
